<svg width="1547" height="334" viewBox="0 0 1547 334" fill="none" xmlns="http://www.w3.org/2000/svg">
<g clip-path="url(#clip0_260_386)">
<path d="M42.7375 37.7959H-0.3125V-0.639528H135.348V37.7959H92.2975V146.381H42.7375V37.7959Z" fill="#1B1A1A"/>
<path d="M223.239 149.742C207.419 149.742 193.209 146.451 180.609 139.87C168.009 133.289 158.139 124.188 150.999 112.567C143.859 100.805 140.289 87.573 140.289 72.8709C140.289 58.1688 143.859 45.007 150.999 33.3853C158.139 21.6236 168.009 12.4523 180.609 5.8714C193.209 -0.709533 207.419 -4 223.239 -4C239.059 -4 253.269 -0.709533 265.869 5.8714C278.469 12.4523 288.339 21.6236 295.479 33.3853C302.619 45.007 306.189 58.1688 306.189 72.8709C306.189 87.573 302.619 100.805 295.479 112.567C288.339 124.188 278.469 133.289 265.869 139.87C253.269 146.451 239.059 149.742 223.239 149.742ZM223.239 109.626C229.399 109.626 234.929 108.156 239.829 105.216C244.869 102.135 248.859 97.8645 251.799 92.4037C254.739 86.8029 256.209 80.292 256.209 72.8709C256.209 65.4499 254.739 59.0089 251.799 53.5482C248.859 47.9474 244.869 43.6768 239.829 40.7364C234.929 37.6559 229.399 36.1157 223.239 36.1157C217.079 36.1157 211.479 37.6559 206.439 40.7364C201.539 43.6768 197.619 47.9474 194.679 53.5482C191.739 59.0089 190.269 65.4499 190.269 72.8709C190.269 80.292 191.739 86.8029 194.679 92.4037C197.619 97.8645 201.539 102.135 206.439 105.216C211.479 108.156 217.079 109.626 223.239 109.626Z" fill="#1B1A1A"/>
<path d="M394.527 149.742C371.987 149.742 354.417 143.651 341.817 131.469C329.217 119.287 322.917 102.205 322.917 80.2219V-0.639528H372.477V78.7518C372.477 89.5333 374.367 97.3744 378.147 102.275C382.067 107.176 387.667 109.626 394.947 109.626C402.227 109.626 407.757 107.176 411.537 102.275C415.457 97.3744 417.417 89.5333 417.417 78.7518V-0.639528H466.137V80.2219C466.137 102.205 459.837 119.287 447.237 131.469C434.637 143.651 417.067 149.742 394.527 149.742Z" fill="#1B1A1A"/>
<path d="M551.855 109.416H538.415V146.381H488.855V-0.639528H559.625C573.205 -0.639528 585.035 1.60079 595.115 6.08143C605.195 10.5621 612.965 17.003 618.425 25.4042C623.885 33.8054 626.615 43.6068 626.615 54.8083C626.615 65.3098 624.235 74.4811 619.475 82.3223C614.715 90.1634 607.855 96.3943 598.895 101.015L629.765 146.381H576.845L551.855 109.416ZM576.635 54.8083C576.635 49.3476 574.955 45.147 571.595 42.2066C568.235 39.1261 563.195 37.5859 556.475 37.5859H538.415V72.0308H556.475C563.195 72.0308 568.235 70.5606 571.595 67.6202C574.955 64.5397 576.635 60.2691 576.635 54.8083Z" fill="#1B1A1A"/>
<path d="M708.288 -0.639528H780.738C797.118 -0.639528 811.538 2.3709 823.998 8.39176C836.598 14.2726 846.328 22.7438 853.188 33.8054C860.188 44.8669 863.688 57.8888 863.688 72.8709C863.688 87.853 860.188 100.875 853.188 111.936C846.328 122.998 836.598 131.539 823.998 137.56C811.538 143.441 797.118 146.381 780.738 146.381H708.288V-0.639528ZM778.638 107.736C789.278 107.736 797.748 104.725 804.048 98.7046C810.488 92.5437 813.708 83.9325 813.708 72.8709C813.708 61.8093 810.488 53.2681 804.048 47.2473C797.748 41.0864 789.278 38.006 778.638 38.006H757.848V107.736H778.638Z" fill="#1B1A1A"/>
<path d="M979.904 120.758H924.044L914.173 146.381H863.773L928.034 -0.639528H976.753L1041.01 146.381H989.773L979.904 120.758ZM966.253 85.0526L951.974 48.0874L937.693 85.0526H966.253Z" fill="#1B1A1A"/>
<path d="M1073.46 37.7959H1030.41V-0.639528H1166.07V37.7959H1123.02V146.381H1073.46V37.7959Z" fill="#1B1A1A"/>
<path d="M1301.16 108.996V146.381H1178.94V-0.639528H1298.43V36.7458H1227.66V53.9682H1289.82V89.6733H1227.66V108.996H1301.16Z" fill="#1B1A1A"/>
<path d="M1375.05 149.742C1362.87 149.742 1350.97 148.412 1339.35 145.751C1327.87 142.951 1318.42 139.24 1311 134.62L1326.96 98.4945C1333.96 102.555 1341.8 105.846 1350.48 108.366C1359.16 110.746 1367.49 111.936 1375.47 111.936C1382.33 111.936 1387.23 111.306 1390.17 110.046C1393.11 108.646 1394.58 106.616 1394.58 103.955C1394.58 100.875 1392.62 98.5646 1388.7 97.0243C1384.92 95.4841 1378.62 93.8039 1369.8 91.9836C1358.46 89.6033 1349.01 87.0829 1341.45 84.4226C1333.89 81.6222 1327.31 77.1415 1321.71 70.9806C1316.11 64.6798 1313.31 56.2085 1313.31 45.567C1313.31 36.3257 1315.9 27.9245 1321.08 20.3635C1326.26 12.8024 1333.96 6.85153 1344.18 2.51091C1354.54 -1.8297 1367.07 -4 1381.77 -4C1391.85 -4 1401.72 -2.87984 1411.38 -0.639528C1421.18 1.46077 1429.79 4.61122 1437.21 8.81182L1422.3 44.7269C1407.88 37.4459 1394.23 33.8054 1381.35 33.8054C1368.61 33.8054 1362.24 36.8858 1362.24 43.0467C1362.24 45.9871 1364.13 48.2274 1367.91 49.7676C1371.69 51.1678 1377.92 52.7081 1386.6 54.3883C1397.8 56.4886 1407.25 58.9389 1414.95 61.7393C1422.65 64.3997 1429.3 68.8103 1434.9 74.9712C1440.64 81.1321 1443.51 89.5333 1443.51 100.175C1443.51 109.416 1440.92 117.817 1435.74 125.378C1430.56 132.799 1422.79 138.75 1412.43 143.231C1402.21 147.572 1389.75 149.742 1375.05 149.742Z" fill="#1B1A1A"/>
<g opacity="0.24">
<path fill-rule="evenodd" clip-rule="evenodd" d="M1490.08 284.855V149.382H1434.25V284.855H1380.54V326.807H1543.79V284.855H1490.08ZM1493.08 281.855V146.381H1431.25V281.855H1377.54V329.807H1546.79V281.855H1493.08ZM1358.01 287.357C1366.92 272.858 1371.38 256.437 1371.38 238.094C1371.38 219.752 1366.92 203.243 1358.01 188.569C1349.11 174.07 1336.79 162.715 1321.07 154.505C1305.35 146.294 1287.62 142.189 1267.89 142.189C1248.15 142.189 1230.42 146.294 1214.7 154.505C1198.98 162.715 1186.67 174.07 1177.76 188.569C1168.85 203.243 1164.4 219.752 1164.4 238.094C1164.4 256.437 1168.85 272.858 1177.76 287.357C1186.67 302.031 1198.98 313.474 1214.7 321.684C1230.42 329.895 1248.15 334 1267.89 334C1287.62 334 1305.35 329.895 1321.07 321.684C1336.79 313.474 1349.11 302.031 1358.01 287.357ZM1180.32 190.133C1171.72 204.304 1167.4 220.265 1167.4 238.094C1167.4 255.927 1171.72 271.796 1180.31 285.787L1180.32 285.793L1180.32 285.8C1188.94 299.99 1200.84 311.059 1216.09 319.025C1231.33 326.987 1248.58 331 1267.89 331C1287.19 331 1304.44 326.987 1319.68 319.025C1334.93 311.059 1346.84 299.99 1355.45 285.8L1355.45 285.793L1355.46 285.787C1364.05 271.797 1368.38 255.927 1368.38 238.094C1368.38 220.265 1364.05 204.304 1355.45 190.133C1346.84 176.119 1334.94 165.134 1319.68 157.164C1304.44 149.202 1287.19 145.189 1267.89 145.189C1248.58 145.189 1231.33 149.202 1216.09 157.164C1200.83 165.134 1188.93 176.119 1180.32 190.133ZM1245.63 195.174L1245.64 195.168C1252.26 191.198 1259.7 189.237 1267.89 189.237C1276.07 189.237 1283.58 191.198 1290.36 195.149L1290.4 195.174L1290.44 195.2C1297.03 199.339 1302.26 205.067 1306.16 212.302L1306.17 212.316L1306.17 212.33C1310.1 219.817 1312.02 228.434 1312.02 238.094C1312.02 247.746 1310.11 256.285 1306.17 263.61C1302.27 271.021 1297.02 276.775 1290.4 280.753C1283.62 284.892 1276.09 286.951 1267.89 286.951C1259.69 286.951 1252.25 284.899 1245.63 280.753C1238.84 276.78 1233.5 271.031 1229.61 263.611C1225.66 256.286 1223.75 247.747 1223.75 238.094C1223.75 228.434 1225.67 219.817 1229.6 212.33L1229.6 212.316L1229.61 212.302C1233.52 205.046 1238.86 199.315 1245.62 195.18L1245.63 195.174ZM1232.25 262.202C1235.92 269.189 1240.9 274.518 1247.19 278.186C1253.3 282.029 1260.2 283.951 1267.89 283.951C1275.57 283.951 1282.56 282.029 1288.85 278.186C1294.96 274.518 1299.85 269.189 1303.52 262.202C1307.19 255.389 1309.02 247.353 1309.02 238.094C1309.02 228.836 1307.19 220.713 1303.52 213.725C1299.85 206.912 1294.96 201.584 1288.85 197.741C1282.56 194.072 1275.57 192.238 1267.89 192.238C1260.2 192.238 1253.3 194.072 1247.19 197.741C1240.9 201.584 1235.92 206.912 1232.25 213.725C1228.59 220.713 1226.75 228.836 1226.75 238.094C1226.75 247.353 1228.59 255.389 1232.25 262.202ZM1074.62 201.409C1079.34 207.523 1081.69 217.306 1081.69 230.757V329.807H1143.53V228.923C1143.53 201.497 1135.67 180.184 1119.95 164.986C1104.23 149.788 1082.31 142.189 1054.18 142.189C1026.06 142.189 1004.14 149.788 988.422 164.986C972.702 180.184 964.842 201.497 964.842 228.923V329.807H1025.63V230.757C1025.63 217.306 1028.07 207.523 1032.96 201.409C1037.68 195.295 1044.58 192.238 1053.66 192.238C1062.74 192.238 1069.73 195.295 1074.62 201.409ZM1030.6 199.555C1035.99 192.584 1043.84 189.237 1053.66 189.237C1063.49 189.237 1071.41 192.59 1076.96 199.535L1076.98 199.556L1077 199.576C1082.32 206.482 1084.69 217.084 1084.69 230.757V326.807H1140.53V228.923C1140.53 202.091 1132.86 181.64 1117.86 167.143C1102.85 152.628 1081.76 145.189 1054.18 145.189C1026.61 145.189 1005.52 152.628 990.507 167.143C975.512 181.64 967.842 202.091 967.842 228.923V326.807H1022.63V230.757C1022.63 217.081 1025.09 206.467 1030.6 199.555ZM856.306 195.5L825.128 149.382H766.367L803.597 204.095L800.586 205.648C789.848 211.186 781.723 218.596 776.099 227.86C770.485 237.108 767.627 247.996 767.627 260.63C767.627 274.095 770.901 285.741 777.36 295.68C783.824 305.626 793.044 313.301 805.145 318.68C817.26 324.065 831.587 326.807 848.205 326.807L933.499 326.807V149.382H877.667V195.5H856.306ZM760.697 146.381H826.721L857.899 192.5H874.667V146.381H936.499V329.807L848.205 329.807C831.262 329.807 816.503 327.012 803.927 321.422C791.351 315.832 781.657 307.796 774.845 297.315C768.033 286.833 764.627 274.605 764.627 260.63C764.627 247.528 767.596 236.085 773.535 226.303C778.995 217.309 786.669 210.013 796.558 204.415C797.425 203.924 798.309 203.446 799.211 202.981L760.697 146.381ZM833.271 244.645C837.463 240.977 843.751 239.143 852.135 239.143H874.667V282.117H852.135C843.751 282.117 837.463 280.195 833.271 276.352C829.079 272.683 826.983 267.443 826.983 260.63C826.983 253.817 829.079 248.489 833.271 244.645ZM831.268 278.586C836.225 283.116 843.364 285.117 852.135 285.117H877.667V236.142H852.135C843.379 236.142 836.253 238.049 831.295 242.387L831.269 242.41L831.244 242.434C826.31 246.957 823.983 253.156 823.983 260.63C823.983 268.085 826.301 274.224 831.268 278.586ZM596.916 318.54C612.461 326.052 630.452 329.807 650.888 329.807H741.278V146.381L650.888 146.381C630.452 146.381 612.461 150.05 596.916 157.387C581.196 164.899 569.057 175.555 560.498 189.355C551.765 203.156 547.398 219.402 547.398 238.094C547.398 256.786 551.765 273.033 560.498 286.833C569.057 300.634 581.196 311.203 596.916 318.54ZM598.204 160.097C582.965 167.38 571.281 177.661 563.047 190.937L563.04 190.949L563.033 190.96C554.645 204.214 550.398 219.886 550.398 238.094C550.398 256.302 554.645 271.975 563.033 285.229L563.04 285.24L563.047 285.252C571.277 298.523 582.955 308.713 598.185 315.821L598.203 315.829L598.221 315.838C613.291 323.12 630.822 326.807 650.888 326.807H738.278V149.382L650.888 149.382C630.816 149.382 613.279 152.984 598.204 160.097ZM621.806 205.864C629.666 198.352 640.233 194.596 653.508 194.596H679.446V281.593H653.508C640.233 281.593 629.666 277.749 621.806 270.063C613.771 262.551 609.754 251.895 609.754 238.094C609.754 224.294 613.771 213.55 621.806 205.864ZM619.733 272.232C628.263 280.561 639.636 284.593 653.508 284.593H682.446V191.596H653.508C639.642 191.596 628.27 195.537 619.733 203.695L619.732 203.696C610.969 212.079 606.754 223.685 606.754 238.094C606.754 252.487 610.961 264.016 619.733 272.232ZM400.346 181.35L388.032 149.382H330.749L408.298 326.807H465.157L542.706 149.382L486.471 149.382L474.157 181.35H400.346ZM484.412 146.381L547.292 146.381L467.12 329.807H406.336L326.164 146.381H390.092L402.406 178.35H472.098L484.412 146.381ZM415.06 219.896L459.443 219.896L437.252 277.34L415.06 219.896ZM437.252 269.015L455.068 222.896L419.436 222.896L437.252 269.015ZM282.682 284.855V149.382L226.851 149.382V284.855H173.141V326.807H336.393V284.855H282.682ZM285.682 281.855V146.381L223.851 146.381V281.855H170.141V329.807H339.393V281.855H285.682ZM93.2968 193.024V217.131H15.7448V261.678H93.2968V283.165H5.00281V329.807H154.081V146.381L1.5968 146.381V193.024L93.2968 193.024ZM4.5968 190.024L96.2968 190.024V220.132H18.7448V258.677H96.2968V286.165H8.00281V326.807H151.081V149.382L4.5968 149.382V190.024ZM-59.9343 193.81C-50.178 196.643 -41.2725 200.256 -33.2173 204.648C-32.3313 205.131 -31.4557 205.624 -30.5903 206.126L-10.6783 161.055C-19.9357 155.291 -31.7257 150.661 -46.0483 147.167C-60.5457 143.848 -75.3923 142.189 -90.5884 142.189C-108.928 142.189 -124.474 144.896 -137.224 150.312C-150.15 155.902 -159.844 163.326 -166.306 172.585C-172.769 182.018 -176 192.5 -176 204.03C-176 217.306 -172.42 227.788 -165.258 235.474C-158.272 243.16 -149.975 248.663 -140.368 251.982C-130.762 255.476 -118.972 258.533 -104.998 261.154C-94.1691 263.25 -86.3964 265.172 -81.6803 266.918C-76.9644 268.84 -74.6063 271.635 -74.6063 275.304C-74.6063 282.99 -82.5537 286.833 -98.4484 286.833C-113.713 286.833 -129.844 282.735 -146.843 274.538C-147.739 274.106 -148.637 273.662 -149.538 273.207L-168.14 318.016C-158.883 323.256 -148.141 327.187 -135.914 329.807C-123.862 332.602 -111.548 334 -98.9723 334C-80.6323 334 -64.9996 331.292 -52.0743 325.877C-39.3237 320.461 -29.717 313.037 -23.2544 303.604C-16.7916 294.17 -13.5603 283.689 -13.5603 272.159C-13.5603 258.883 -17.0537 248.314 -24.0403 240.453C-31.027 232.766 -39.2363 227.176 -48.6683 223.682C-58.1003 220.363 -69.8904 217.219 -84.0383 214.249C-95.0424 211.978 -102.902 209.882 -107.618 207.96C-112.509 206.038 -114.954 203.156 -114.954 199.313C-114.954 195.994 -113.12 193.461 -109.452 191.714C-105.784 190.142 -99.671 189.355 -91.1123 189.355C-81.1564 189.355 -70.7637 190.84 -59.9343 193.81ZM-108.732 210.746C-111.461 209.672 -113.768 208.232 -115.408 206.298C-117.099 204.305 -117.954 201.933 -117.954 199.313C-117.954 197.062 -117.32 194.975 -116.009 193.164C-114.722 191.387 -112.898 190.032 -110.742 189.005L-110.689 188.979L-110.634 188.956C-106.364 187.126 -99.7178 186.355 -91.1123 186.355C-80.8567 186.355 -70.1964 187.885 -59.141 190.916L-59.1194 190.922L-59.0979 190.929C-49.2432 193.79 -40.2068 197.442 -32.0007 201.895L-14.4932 162.266C-23.0568 157.326 -33.7826 153.25 -46.7377 150.088C-61.0043 146.823 -75.6196 145.189 -90.5884 145.189C-108.642 145.189 -123.759 147.856 -136.037 153.068C-148.571 158.489 -157.767 165.598 -163.841 174.294C-169.952 183.22 -173 193.105 -173 204.03C-173 216.755 -169.581 226.433 -163.063 233.429L-163.051 233.442L-163.039 233.456C-156.382 240.778 -148.509 245.995 -139.389 249.146L-139.366 249.154L-139.343 249.163C-129.937 252.584 -118.315 255.604 -104.445 258.205L-104.437 258.206L-104.428 258.208C-93.5814 260.308 -85.6016 262.266 -80.6384 264.105L-80.5931 264.122L-80.5485 264.14C-77.9076 265.216 -75.6725 266.636 -74.0819 268.521C-72.4447 270.462 -71.6063 272.764 -71.6063 275.304C-71.6063 277.771 -72.2543 280.06 -73.6265 282.051C-74.9824 284.018 -76.9263 285.523 -79.261 286.652C-83.8488 288.871 -90.3551 289.834 -98.4484 289.834C-114.212 289.834 -130.738 285.613 -147.995 277.313L-164.336 316.676C-155.916 321.118 -146.242 324.525 -135.286 326.874L-135.261 326.879L-135.237 326.885C-123.411 329.627 -111.324 331 -98.9723 331C-80.9152 331 -65.7 328.332 -53.2368 323.111C-40.9059 317.872 -31.804 310.775 -25.7291 301.908C-19.6116 292.978 -16.5603 283.089 -16.5603 272.159C-16.5603 259.424 -19.8993 249.634 -26.2743 242.455C-32.9402 235.127 -40.7379 229.823 -49.689 226.504C-58.9504 223.247 -70.5934 220.137 -84.649 217.187C-95.6558 214.915 -103.741 212.777 -108.732 210.746Z" fill="#1B1A1A"/>
<path fill-rule="evenodd" clip-rule="evenodd" d="M1490.08 284.855V149.382H1434.25V284.855H1380.54V326.807H1543.79V284.855H1490.08ZM1493.08 281.855V146.381H1431.25V281.855H1377.54V329.807H1546.79V281.855H1493.08ZM1358.01 287.357C1366.92 272.858 1371.38 256.437 1371.38 238.094C1371.38 219.752 1366.92 203.243 1358.01 188.569C1349.11 174.07 1336.79 162.715 1321.07 154.505C1305.35 146.294 1287.62 142.189 1267.89 142.189C1248.15 142.189 1230.42 146.294 1214.7 154.505C1198.98 162.715 1186.67 174.07 1177.76 188.569C1168.85 203.243 1164.4 219.752 1164.4 238.094C1164.4 256.437 1168.85 272.858 1177.76 287.357C1186.67 302.031 1198.98 313.474 1214.7 321.684C1230.42 329.895 1248.15 334 1267.89 334C1287.62 334 1305.35 329.895 1321.07 321.684C1336.79 313.474 1349.11 302.031 1358.01 287.357ZM1180.32 190.133C1171.72 204.304 1167.4 220.265 1167.4 238.094C1167.4 255.927 1171.72 271.796 1180.31 285.787L1180.32 285.793L1180.32 285.8C1188.94 299.99 1200.84 311.059 1216.09 319.025C1231.33 326.987 1248.58 331 1267.89 331C1287.19 331 1304.44 326.987 1319.68 319.025C1334.93 311.059 1346.84 299.99 1355.45 285.8L1355.45 285.793L1355.46 285.787C1364.05 271.797 1368.38 255.927 1368.38 238.094C1368.38 220.265 1364.05 204.304 1355.45 190.133C1346.84 176.119 1334.94 165.134 1319.68 157.164C1304.44 149.202 1287.19 145.189 1267.89 145.189C1248.58 145.189 1231.33 149.202 1216.09 157.164C1200.83 165.134 1188.93 176.119 1180.32 190.133ZM1245.63 195.174L1245.64 195.168C1252.26 191.198 1259.7 189.237 1267.89 189.237C1276.07 189.237 1283.58 191.198 1290.36 195.149L1290.4 195.174L1290.44 195.2C1297.03 199.339 1302.26 205.067 1306.16 212.302L1306.17 212.316L1306.17 212.33C1310.1 219.817 1312.02 228.434 1312.02 238.094C1312.02 247.746 1310.11 256.285 1306.17 263.61C1302.27 271.021 1297.02 276.775 1290.4 280.753C1283.62 284.892 1276.09 286.951 1267.89 286.951C1259.69 286.951 1252.25 284.899 1245.63 280.753C1238.84 276.78 1233.5 271.031 1229.61 263.611C1225.66 256.286 1223.75 247.747 1223.75 238.094C1223.75 228.434 1225.67 219.817 1229.6 212.33L1229.6 212.316L1229.61 212.302C1233.52 205.046 1238.86 199.315 1245.62 195.18L1245.63 195.174ZM1232.25 262.202C1235.92 269.189 1240.9 274.518 1247.19 278.186C1253.3 282.029 1260.2 283.951 1267.89 283.951C1275.57 283.951 1282.56 282.029 1288.85 278.186C1294.96 274.518 1299.85 269.189 1303.52 262.202C1307.19 255.389 1309.02 247.353 1309.02 238.094C1309.02 228.836 1307.19 220.713 1303.52 213.725C1299.85 206.912 1294.96 201.584 1288.85 197.741C1282.56 194.072 1275.57 192.238 1267.89 192.238C1260.2 192.238 1253.3 194.072 1247.19 197.741C1240.9 201.584 1235.92 206.912 1232.25 213.725C1228.59 220.713 1226.75 228.836 1226.75 238.094C1226.75 247.353 1228.59 255.389 1232.25 262.202ZM1074.62 201.409C1079.34 207.523 1081.69 217.306 1081.69 230.757V329.807H1143.53V228.923C1143.53 201.497 1135.67 180.184 1119.95 164.986C1104.23 149.788 1082.31 142.189 1054.18 142.189C1026.06 142.189 1004.14 149.788 988.422 164.986C972.702 180.184 964.842 201.497 964.842 228.923V329.807H1025.63V230.757C1025.63 217.306 1028.07 207.523 1032.96 201.409C1037.68 195.295 1044.58 192.238 1053.66 192.238C1062.74 192.238 1069.73 195.295 1074.62 201.409ZM1030.6 199.555C1035.99 192.584 1043.84 189.237 1053.66 189.237C1063.49 189.237 1071.41 192.59 1076.96 199.535L1076.98 199.556L1077 199.576C1082.32 206.482 1084.69 217.084 1084.69 230.757V326.807H1140.53V228.923C1140.53 202.091 1132.86 181.64 1117.86 167.143C1102.85 152.628 1081.76 145.189 1054.18 145.189C1026.61 145.189 1005.52 152.628 990.507 167.143C975.512 181.64 967.842 202.091 967.842 228.923V326.807H1022.63V230.757C1022.63 217.081 1025.09 206.467 1030.6 199.555ZM856.306 195.5L825.128 149.382H766.367L803.597 204.095L800.586 205.648C789.848 211.186 781.723 218.596 776.099 227.86C770.485 237.108 767.627 247.996 767.627 260.63C767.627 274.095 770.901 285.741 777.36 295.68C783.824 305.626 793.044 313.301 805.145 318.68C817.26 324.065 831.587 326.807 848.205 326.807L933.499 326.807V149.382H877.667V195.5H856.306ZM760.697 146.381H826.721L857.899 192.5H874.667V146.381H936.499V329.807L848.205 329.807C831.262 329.807 816.503 327.012 803.927 321.422C791.351 315.832 781.657 307.796 774.845 297.315C768.033 286.833 764.627 274.605 764.627 260.63C764.627 247.528 767.596 236.085 773.535 226.303C778.995 217.309 786.669 210.013 796.558 204.415C797.425 203.924 798.309 203.446 799.211 202.981L760.697 146.381ZM833.271 244.645C837.463 240.977 843.751 239.143 852.135 239.143H874.667V282.117H852.135C843.751 282.117 837.463 280.195 833.271 276.352C829.079 272.683 826.983 267.443 826.983 260.63C826.983 253.817 829.079 248.489 833.271 244.645ZM831.268 278.586C836.225 283.116 843.364 285.117 852.135 285.117H877.667V236.142H852.135C843.379 236.142 836.253 238.049 831.295 242.387L831.269 242.41L831.244 242.434C826.31 246.957 823.983 253.156 823.983 260.63C823.983 268.085 826.301 274.224 831.268 278.586ZM596.916 318.54C612.461 326.052 630.452 329.807 650.888 329.807H741.278V146.381L650.888 146.381C630.452 146.381 612.461 150.05 596.916 157.387C581.196 164.899 569.057 175.555 560.498 189.355C551.765 203.156 547.398 219.402 547.398 238.094C547.398 256.786 551.765 273.033 560.498 286.833C569.057 300.634 581.196 311.203 596.916 318.54ZM598.204 160.097C582.965 167.38 571.281 177.661 563.047 190.937L563.04 190.949L563.033 190.96C554.645 204.214 550.398 219.886 550.398 238.094C550.398 256.302 554.645 271.975 563.033 285.229L563.04 285.24L563.047 285.252C571.277 298.523 582.955 308.713 598.185 315.821L598.203 315.829L598.221 315.838C613.291 323.12 630.822 326.807 650.888 326.807H738.278V149.382L650.888 149.382C630.816 149.382 613.279 152.984 598.204 160.097ZM621.806 205.864C629.666 198.352 640.233 194.596 653.508 194.596H679.446V281.593H653.508C640.233 281.593 629.666 277.749 621.806 270.063C613.771 262.551 609.754 251.895 609.754 238.094C609.754 224.294 613.771 213.55 621.806 205.864ZM619.733 272.232C628.263 280.561 639.636 284.593 653.508 284.593H682.446V191.596H653.508C639.642 191.596 628.27 195.537 619.733 203.695L619.732 203.696C610.969 212.079 606.754 223.685 606.754 238.094C606.754 252.487 610.961 264.016 619.733 272.232ZM400.346 181.35L388.032 149.382H330.749L408.298 326.807H465.157L542.706 149.382L486.471 149.382L474.157 181.35H400.346ZM484.412 146.381L547.292 146.381L467.12 329.807H406.336L326.164 146.381H390.092L402.406 178.35H472.098L484.412 146.381ZM415.06 219.896L459.443 219.896L437.252 277.34L415.06 219.896ZM437.252 269.015L455.068 222.896L419.436 222.896L437.252 269.015ZM282.682 284.855V149.382L226.851 149.382V284.855H173.141V326.807H336.393V284.855H282.682ZM285.682 281.855V146.381L223.851 146.381V281.855H170.141V329.807H339.393V281.855H285.682ZM93.2968 193.024V217.131H15.7448V261.678H93.2968V283.165H5.00281V329.807H154.081V146.381L1.5968 146.381V193.024L93.2968 193.024ZM4.5968 190.024L96.2968 190.024V220.132H18.7448V258.677H96.2968V286.165H8.00281V326.807H151.081V149.382L4.5968 149.382V190.024ZM-59.9343 193.81C-50.178 196.643 -41.2725 200.256 -33.2173 204.648C-32.3313 205.131 -31.4557 205.624 -30.5903 206.126L-10.6783 161.055C-19.9357 155.291 -31.7257 150.661 -46.0483 147.167C-60.5457 143.848 -75.3923 142.189 -90.5884 142.189C-108.928 142.189 -124.474 144.896 -137.224 150.312C-150.15 155.902 -159.844 163.326 -166.306 172.585C-172.769 182.018 -176 192.5 -176 204.03C-176 217.306 -172.42 227.788 -165.258 235.474C-158.272 243.16 -149.975 248.663 -140.368 251.982C-130.762 255.476 -118.972 258.533 -104.998 261.154C-94.1691 263.25 -86.3964 265.172 -81.6803 266.918C-76.9644 268.84 -74.6063 271.635 -74.6063 275.304C-74.6063 282.99 -82.5537 286.833 -98.4484 286.833C-113.713 286.833 -129.844 282.735 -146.843 274.538C-147.739 274.106 -148.637 273.662 -149.538 273.207L-168.14 318.016C-158.883 323.256 -148.141 327.187 -135.914 329.807C-123.862 332.602 -111.548 334 -98.9723 334C-80.6323 334 -64.9996 331.292 -52.0743 325.877C-39.3237 320.461 -29.717 313.037 -23.2544 303.604C-16.7916 294.17 -13.5603 283.689 -13.5603 272.159C-13.5603 258.883 -17.0537 248.314 -24.0403 240.453C-31.027 232.766 -39.2363 227.176 -48.6683 223.682C-58.1003 220.363 -69.8904 217.219 -84.0383 214.249C-95.0424 211.978 -102.902 209.882 -107.618 207.96C-112.509 206.038 -114.954 203.156 -114.954 199.313C-114.954 195.994 -113.12 193.461 -109.452 191.714C-105.784 190.142 -99.671 189.355 -91.1123 189.355C-81.1564 189.355 -70.7637 190.84 -59.9343 193.81ZM-108.732 210.746C-111.461 209.672 -113.768 208.232 -115.408 206.298C-117.099 204.305 -117.954 201.933 -117.954 199.313C-117.954 197.062 -117.32 194.975 -116.009 193.164C-114.722 191.387 -112.898 190.032 -110.742 189.005L-110.689 188.979L-110.634 188.956C-106.364 187.126 -99.7178 186.355 -91.1123 186.355C-80.8567 186.355 -70.1964 187.885 -59.141 190.916L-59.1194 190.922L-59.0979 190.929C-49.2432 193.79 -40.2068 197.442 -32.0007 201.895L-14.4932 162.266C-23.0568 157.326 -33.7826 153.25 -46.7377 150.088C-61.0043 146.823 -75.6196 145.189 -90.5884 145.189C-108.642 145.189 -123.759 147.856 -136.037 153.068C-148.571 158.489 -157.767 165.598 -163.841 174.294C-169.952 183.22 -173 193.105 -173 204.03C-173 216.755 -169.581 226.433 -163.063 233.429L-163.051 233.442L-163.039 233.456C-156.382 240.778 -148.509 245.995 -139.389 249.146L-139.366 249.154L-139.343 249.163C-129.937 252.584 -118.315 255.604 -104.445 258.205L-104.437 258.206L-104.428 258.208C-93.5814 260.308 -85.6016 262.266 -80.6384 264.105L-80.5931 264.122L-80.5485 264.14C-77.9076 265.216 -75.6725 266.636 -74.0819 268.521C-72.4447 270.462 -71.6063 272.764 -71.6063 275.304C-71.6063 277.771 -72.2543 280.06 -73.6265 282.051C-74.9824 284.018 -76.9263 285.523 -79.261 286.652C-83.8488 288.871 -90.3551 289.834 -98.4484 289.834C-114.212 289.834 -130.738 285.613 -147.995 277.313L-164.336 316.676C-155.916 321.118 -146.242 324.525 -135.286 326.874L-135.261 326.879L-135.237 326.885C-123.411 329.627 -111.324 331 -98.9723 331C-80.9152 331 -65.7 328.332 -53.2368 323.111C-40.9059 317.872 -31.804 310.775 -25.7291 301.908C-19.6116 292.978 -16.5603 283.089 -16.5603 272.159C-16.5603 259.424 -19.8993 249.634 -26.2743 242.455C-32.9402 235.127 -40.7379 229.823 -49.689 226.504C-58.9504 223.247 -70.5934 220.137 -84.649 217.187C-95.6558 214.915 -103.741 212.777 -108.732 210.746Z" fill="black" fill-opacity="0.2"/>
</g>
</g>
<defs>
<clipPath id="clip0_260_386">
<rect width="1547" height="334" fill="white"/>
</clipPath>
</defs>
</svg>
