<svg width="1500" height="215" viewBox="0 0 1500 215" fill="none" xmlns="http://www.w3.org/2000/svg">
<g clip-path="url(#clip0_304_6)">
<path d="M59.4793 107C48.1935 107 38.0261 104.654 28.9771 99.9617C19.9281 95.1676 12.8109 88.5373 7.62555 80.071C2.54185 71.5027 0 61.8124 0 51C0 40.1876 2.54185 30.5483 7.62555 22.082C12.8109 13.5137 19.9281 6.88342 28.9771 2.19126C38.0261 -2.60291 48.1935 -5 59.4793 -5C69.8501 -5 79.1024 -3.16393 87.2363 0.508198C95.3702 4.18032 102.081 9.48451 107.368 16.4208L84.6436 36.7705C78.0348 28.4062 70.2568 24.224 61.3094 24.224C53.7856 24.224 47.736 26.6721 43.1606 31.5683C38.5853 36.3625 36.2976 42.8397 36.2976 51C36.2976 59.1603 38.5853 65.6885 43.1606 70.5847C47.736 75.3789 53.7856 77.776 61.3094 77.776C70.2568 77.776 78.0348 73.5938 84.6436 65.2295L107.368 85.5792C102.081 92.5155 95.3702 97.8197 87.2363 101.492C79.1024 105.164 69.8501 107 59.4793 107Z" fill="#1B1A1A"/>
<path d="M171.497 107C160.008 107 149.688 104.603 140.538 99.8087C131.387 95.0146 124.219 88.3843 119.034 79.918C113.848 71.3497 111.256 61.7104 111.256 51C111.256 40.2896 113.848 30.7013 119.034 22.235C124.219 13.6667 131.387 6.98543 140.538 2.19126C149.688 -2.60291 160.008 -5 171.497 -5C182.987 -5 193.307 -2.60291 202.457 2.19126C211.608 6.98543 218.776 13.6667 223.961 22.235C229.147 30.7013 231.739 40.2896 231.739 51C231.739 61.7104 229.147 71.3497 223.961 79.918C218.776 88.3843 211.608 95.0146 202.457 99.8087C193.307 104.603 182.987 107 171.497 107ZM171.497 77.776C175.971 77.776 179.987 76.7049 183.546 74.5628C187.206 72.3188 190.104 69.2076 192.239 65.2295C194.374 61.1494 195.442 56.4062 195.442 51C195.442 45.5938 194.374 40.9016 192.239 36.9235C190.104 32.8434 187.206 29.7322 183.546 27.5902C179.987 25.3461 175.971 24.224 171.497 24.224C167.024 24.224 162.957 25.3461 159.297 27.5902C155.738 29.7322 152.891 32.8434 150.756 36.9235C148.621 40.9016 147.553 45.5938 147.553 51C147.553 56.4062 148.621 61.1494 150.756 65.2295C152.891 69.2076 155.738 72.3188 159.297 74.5628C162.957 76.7049 167.024 77.776 171.497 77.776Z" fill="#1B1A1A"/>
<path d="M266.495 25.4481H235.23V-2.55192H333.753V25.4481H302.488V104.552H266.495V25.4481Z" fill="#1B1A1A"/>
<path d="M367.772 25.4481H336.507V-2.55192H435.029V25.4481H403.765V104.552H367.772V25.4481Z" fill="#1B1A1A"/>
<path d="M498.86 107C487.371 107 477.051 104.603 467.9 99.8087C458.75 95.0146 451.582 88.3843 446.396 79.918C441.211 71.3497 438.618 61.7104 438.618 51C438.618 40.2896 441.211 30.7013 446.396 22.235C451.582 13.6667 458.75 6.98543 467.9 2.19126C477.051 -2.60291 487.371 -5 498.86 -5C510.349 -5 520.669 -2.60291 529.82 2.19126C538.97 6.98543 546.138 13.6667 551.324 22.235C556.509 30.7013 559.102 40.2896 559.102 51C559.102 61.7104 556.509 71.3497 551.324 79.918C546.138 88.3843 538.97 95.0146 529.82 99.8087C520.669 104.603 510.349 107 498.86 107ZM498.86 77.776C503.334 77.776 507.35 76.7049 510.908 74.5628C514.569 72.3188 517.466 69.2076 519.601 65.2295C521.737 61.1494 522.804 56.4062 522.804 51C522.804 45.5938 521.737 40.9016 519.601 36.9235C517.466 32.8434 514.569 29.7322 510.908 27.5902C507.35 25.3461 503.334 24.224 498.86 24.224C494.386 24.224 490.319 25.3461 486.659 27.5902C483.101 29.7322 480.254 32.8434 478.119 36.9235C475.983 40.9016 474.916 45.5938 474.916 51C474.916 56.4062 475.983 61.1494 478.119 65.2295C480.254 69.2076 483.101 72.3188 486.659 74.5628C490.319 76.7049 494.386 77.776 498.86 77.776Z" fill="#1B1A1A"/>
<path d="M677.398 -2.55192V104.552H647.811L607.243 55.8962V104.552H572.165V-2.55192H601.753L642.32 46.1038V-2.55192H677.398Z" fill="#1B1A1A"/>
<path d="M868.45 -2.55192L834.288 104.552H795.703L778.469 47.3279L760.32 104.552H721.735L687.572 -2.55192H724.632L743.239 58.3443L762.913 -2.55192H796.007L814.614 59.1093L834.288 -2.55192H868.45Z" fill="#1B1A1A"/>
<path d="M930.776 107C919.287 107 908.967 104.603 899.816 99.8087C890.666 95.0146 883.498 88.3843 878.312 79.918C873.127 71.3497 870.534 61.7104 870.534 51C870.534 40.2896 873.127 30.7013 878.312 22.235C883.498 13.6667 890.666 6.98543 899.816 2.19126C908.967 -2.60291 919.287 -5 930.776 -5C942.265 -5 952.585 -2.60291 961.736 2.19126C970.886 6.98543 978.054 13.6667 983.24 22.235C988.425 30.7013 991.018 40.2896 991.018 51C991.018 61.7104 988.425 71.3497 983.24 79.918C978.054 88.3843 970.886 95.0146 961.736 99.8087C952.585 104.603 942.265 107 930.776 107ZM930.776 77.776C935.25 77.776 939.266 76.7049 942.824 74.5628C946.485 72.3188 949.382 69.2076 951.518 65.2295C953.653 61.1494 954.72 56.4062 954.72 51C954.72 45.5938 953.653 40.9016 951.518 36.9235C949.382 32.8434 946.485 29.7322 942.824 27.5902C939.266 25.3461 935.25 24.224 930.776 24.224C926.302 24.224 922.235 25.3461 918.575 27.5902C915.017 29.7322 912.17 32.8434 910.035 36.9235C907.899 40.9016 906.832 45.5938 906.832 51C906.832 56.4062 907.899 61.1494 910.035 65.2295C912.17 69.2076 915.017 72.3188 918.575 74.5628C922.235 76.7049 926.302 77.776 930.776 77.776Z" fill="#1B1A1A"/>
<path d="M1060.05 107C1048.56 107 1038.24 104.603 1029.09 99.8087C1019.94 95.0146 1012.77 88.3843 1007.59 79.918C1002.4 71.3497 999.811 61.7104 999.811 51C999.811 40.2896 1002.4 30.7013 1007.59 22.235C1012.77 13.6667 1019.94 6.98543 1029.09 2.19126C1038.24 -2.60291 1048.56 -5 1060.05 -5C1071.54 -5 1081.86 -2.60291 1091.01 2.19126C1100.16 6.98543 1107.33 13.6667 1112.52 22.235C1117.7 30.7013 1120.29 40.2896 1120.29 51C1120.29 61.7104 1117.7 71.3497 1112.52 79.918C1107.33 88.3843 1100.16 95.0146 1091.01 99.8087C1081.86 104.603 1071.54 107 1060.05 107ZM1060.05 77.776C1064.53 77.776 1068.54 76.7049 1072.1 74.5628C1075.76 72.3188 1078.66 69.2076 1080.79 65.2295C1082.93 61.1494 1084 56.4062 1084 51C1084 45.5938 1082.93 40.9016 1080.79 36.9235C1078.66 32.8434 1075.76 29.7322 1072.1 27.5902C1068.54 25.3461 1064.53 24.224 1060.05 24.224C1055.58 24.224 1051.51 25.3461 1047.85 27.5902C1044.29 29.7322 1041.45 32.8434 1039.31 36.9235C1037.18 40.9016 1036.11 45.5938 1036.11 51C1036.11 56.4062 1037.18 61.1494 1039.31 65.2295C1041.45 69.2076 1044.29 72.3188 1047.85 74.5628C1051.51 76.7049 1055.58 77.776 1060.05 77.776Z" fill="#1B1A1A"/>
<path d="M1133.36 -2.55192H1185.97C1197.87 -2.55192 1208.34 -0.358837 1217.39 4.02732C1226.54 8.31148 1233.61 14.4827 1238.59 22.541C1243.67 30.5993 1246.22 40.0856 1246.22 51C1246.22 61.9144 1243.67 71.4007 1238.59 79.459C1233.61 87.5173 1226.54 93.7395 1217.39 98.1257C1208.34 102.41 1197.87 104.552 1185.97 104.552H1133.36V-2.55192ZM1184.45 76.3989C1192.18 76.3989 1198.33 74.2058 1202.9 69.8197C1207.58 65.3315 1209.92 59.0583 1209.92 51C1209.92 42.9417 1207.58 36.7195 1202.9 32.3333C1198.33 27.8452 1192.18 25.6011 1184.45 25.6011H1169.35V76.3989H1184.45Z" fill="#1B1A1A"/>
<path d="M1270.87 106.082C1265.07 106.082 1260.24 104.246 1256.38 100.574C1252.62 96.7996 1250.74 92.0055 1250.74 86.1913C1250.74 80.377 1252.62 75.6849 1256.38 72.1148C1260.24 68.4426 1265.07 66.6066 1270.87 66.6066C1276.66 66.6066 1281.44 68.4426 1285.2 72.1148C1289.07 75.6849 1291 80.377 1291 86.1913C1291 92.0055 1289.07 96.7996 1285.2 100.574C1281.44 104.246 1276.66 106.082 1270.87 106.082Z" fill="#1B1A1A"/>
<g opacity="0.24">
<path fill-rule="evenodd" clip-rule="evenodd" d="M237.977 111.127C228.928 115.777 221.811 122.348 216.626 130.84C211.542 139.231 209 148.784 209 159.5C209 170.216 211.542 179.82 216.626 188.311C221.811 196.702 228.928 203.273 237.977 208.025C247.026 212.675 257.193 215 268.479 215C278.85 215 288.102 213.18 296.236 209.541C304.37 205.902 311.081 200.645 316.368 193.77L293.644 173.602C293.277 174.062 292.907 174.51 292.533 174.944C286.168 182.339 278.76 186.037 270.309 186.037C262.786 186.037 256.736 183.661 252.161 178.91C247.585 174.057 245.298 167.587 245.298 159.5C245.298 151.413 247.585 144.993 252.161 140.242C256.736 135.389 262.786 132.963 270.309 132.963C278.76 132.963 286.168 136.661 292.533 144.056C292.907 144.49 293.277 144.938 293.644 145.398L316.368 125.23C311.081 118.355 304.37 113.098 296.236 109.459C288.102 105.82 278.85 104 268.479 104C257.193 104 247.026 106.376 237.977 111.127ZM313.978 125.023C309.035 118.998 302.89 114.34 295.52 111.042C287.645 107.519 278.643 105.736 268.479 105.736C257.448 105.736 247.565 108.056 238.793 112.662L238.786 112.666L238.779 112.67C230.01 117.176 223.135 123.526 218.12 131.738C213.216 139.833 210.746 149.07 210.746 159.5C210.746 169.926 213.215 179.215 218.12 187.413C223.134 195.523 230.011 201.877 238.786 206.486C247.56 210.993 257.445 213.264 268.479 213.264C278.643 213.264 287.645 211.481 295.52 207.958C302.89 204.66 309.035 200.002 313.978 193.977L293.836 176.1C287.207 183.789 279.352 187.773 270.309 187.773C262.381 187.773 255.85 185.252 250.899 180.111L250.893 180.104L250.887 180.097C245.945 174.857 243.551 167.928 243.551 159.5C243.551 151.077 245.943 144.192 250.893 139.048C255.84 133.804 262.373 131.227 270.309 131.227C279.352 131.227 287.207 135.211 293.836 142.9L313.978 125.023ZM328.034 130.992C322.848 139.383 320.256 148.885 320.256 159.5C320.256 170.115 322.848 179.668 328.034 188.16C333.219 196.551 340.387 203.122 349.538 207.873C358.688 212.624 369.008 215 380.497 215C391.987 215 402.307 212.624 411.457 207.873C420.608 203.122 427.776 196.551 432.961 188.16C438.147 179.668 440.739 170.115 440.739 159.5C440.739 148.885 438.147 139.383 432.961 130.992C427.776 122.5 420.608 115.878 411.457 111.127C402.307 106.376 391.987 104 380.497 104C369.008 104 358.688 106.376 349.538 111.127C340.387 115.878 333.219 122.5 328.034 130.992ZM431.47 187.257C436.477 179.056 438.993 169.819 438.993 159.5C438.993 149.18 436.477 139.997 431.473 131.901L431.471 131.897L431.469 131.893C426.454 123.681 419.527 117.276 410.649 112.666C401.775 108.058 391.737 105.736 380.497 105.736C369.258 105.736 359.22 108.058 350.346 112.666C341.468 117.276 334.541 123.681 329.526 131.893L329.524 131.897L329.522 131.901C324.518 139.997 322.002 149.18 322.002 159.5C322.002 169.818 324.518 179.054 329.524 187.255C334.537 195.365 341.464 201.722 350.346 206.334C359.22 210.942 369.258 213.264 380.497 213.264C391.737 213.264 401.775 210.942 410.649 206.334C419.53 201.722 426.457 195.366 431.47 187.257ZM393.45 184.338L393.444 184.341C389.593 186.639 385.262 187.773 380.497 187.773C375.733 187.773 371.359 186.639 367.417 184.352L367.392 184.338L367.367 184.322C363.535 181.927 360.486 178.613 358.218 174.426L358.214 174.418L358.21 174.41C355.922 170.077 354.807 165.09 354.807 159.5C354.807 153.915 355.92 148.974 358.214 144.735C360.48 140.446 363.535 137.116 367.393 134.813C371.337 132.418 375.72 131.227 380.497 131.227C385.268 131.227 389.602 132.415 393.451 134.814C397.403 137.113 400.512 140.44 402.781 144.733C405.075 148.973 406.188 153.914 406.188 159.5C406.188 165.09 405.073 170.077 402.785 174.41L402.781 174.418L402.777 174.426C400.502 178.625 397.394 181.941 393.456 184.334L393.45 184.338ZM401.239 145.549C399.104 141.505 396.206 138.422 392.546 136.299C388.987 134.075 384.971 132.963 380.497 132.963C376.024 132.963 371.957 134.075 368.297 136.299C364.738 138.422 361.891 141.505 359.756 145.549C357.621 149.492 356.553 154.142 356.553 159.5C356.553 164.858 357.621 169.559 359.756 173.602C361.891 177.545 364.738 180.628 368.297 182.852C371.957 184.975 376.024 186.037 380.497 186.037C384.971 186.037 388.987 184.975 392.546 182.852C396.206 180.628 399.104 177.545 401.239 173.602C403.374 169.559 404.442 164.858 404.442 159.5C404.442 154.142 403.374 149.492 401.239 145.549ZM477.241 132.44V210.837H509.741V132.44H541.006V108.163H445.977V132.44H477.241ZM475.495 134.176V212.574H511.488V134.176H542.753V106.426H444.23V134.176H475.495ZM612.765 134.176H644.029V106.426H545.507V134.176H576.772V212.574H612.765V134.176ZM611.018 210.837V132.44H642.283V108.163H547.254V132.44H578.518V210.837H611.018ZM655.396 130.992C650.211 139.383 647.618 148.885 647.618 159.5C647.618 170.115 650.211 179.668 655.396 188.16C660.582 196.551 667.75 203.122 676.9 207.873C686.051 212.624 696.371 215 707.86 215C719.349 215 729.669 212.624 738.82 207.873C747.97 203.122 755.138 196.551 760.324 188.16C765.509 179.668 768.102 170.115 768.102 159.5C768.102 148.885 765.509 139.383 760.324 130.992C755.138 122.5 747.97 115.878 738.82 111.127C729.669 106.376 719.349 104 707.86 104C696.371 104 686.051 106.376 676.9 111.127C667.75 115.878 660.582 122.5 655.396 130.992ZM656.884 131.901C651.881 139.997 649.364 149.18 649.364 159.5C649.364 169.817 651.88 179.053 656.885 187.252C661.898 195.364 668.826 201.722 677.709 206.334C686.583 210.942 696.62 213.264 707.86 213.264C719.1 213.264 729.137 210.942 738.011 206.334C746.894 201.722 753.822 195.364 758.835 187.252C763.84 179.052 766.356 169.817 766.356 159.5C766.356 149.18 763.839 139.997 758.836 131.901L758.831 131.893C753.817 123.681 746.889 117.276 738.011 112.666C729.137 108.058 719.1 105.736 707.86 105.736C696.62 105.736 686.583 108.058 677.709 112.666C668.831 117.276 661.903 123.681 656.889 131.893L656.884 131.901ZM730.143 174.418L730.139 174.426C727.865 178.625 724.757 181.941 720.819 184.334L720.813 184.338L720.807 184.341C716.956 186.639 712.625 187.773 707.86 187.773C703.095 187.773 698.722 186.639 694.779 184.352L694.754 184.338L694.73 184.322C690.897 181.927 687.849 178.613 685.581 174.426L685.577 174.418L685.572 174.41C683.285 170.077 682.169 165.09 682.169 159.5C682.169 153.914 683.283 148.973 685.577 144.734C687.843 140.445 690.898 137.117 694.754 134.814C698.699 132.418 703.082 131.227 707.86 131.227C712.63 131.227 716.964 132.415 720.813 134.814C724.766 137.113 727.874 140.44 730.143 144.733C732.437 148.973 733.551 153.914 733.551 159.5C733.551 165.09 732.435 170.077 730.148 174.41L730.143 174.418ZM728.601 145.549C726.466 141.505 723.569 138.422 719.908 136.299C716.35 134.075 712.334 132.963 707.86 132.963C703.386 132.963 699.319 134.075 695.659 136.299C692.101 138.422 689.254 141.505 687.119 145.549C684.983 149.492 683.916 154.142 683.916 159.5C683.916 164.858 684.983 169.559 687.119 173.602C689.254 177.545 692.101 180.628 695.659 182.852C699.319 184.975 703.386 186.037 707.86 186.037C712.334 186.037 716.35 184.975 719.908 182.852C723.569 180.628 726.466 177.545 728.601 173.602C730.737 169.559 731.804 164.858 731.804 159.5C731.804 154.142 730.737 149.492 728.601 145.549ZM810.753 106.426H781.165V212.574H816.243V164.352L856.811 212.574H886.398V106.426H851.32V154.648L810.753 106.426ZM853.067 108.163V159.43L809.937 108.163H782.912V210.837H814.497V159.57L857.627 210.837H884.652V108.163H853.067ZM1005.01 106.426H971.913L952.239 166.779L933.632 106.426H896.572L930.735 212.574H969.32L987.469 155.861L1004.7 212.574H1043.29L1077.45 106.426H1043.29L1023.61 167.537L1005.01 106.426ZM1044.56 108.163L1023.57 173.377L1003.71 108.163H973.182L952.192 172.553L932.341 108.163H898.965L932.009 210.837H968.043L987.512 149.999L1006 210.837H1042.01L1075.06 108.163H1044.56ZM1192.24 130.992C1187.05 122.5 1179.89 115.878 1170.74 111.127C1161.59 106.376 1151.27 104 1139.78 104C1128.29 104 1117.97 106.376 1108.82 111.127C1099.67 115.878 1092.5 122.5 1087.31 130.992C1082.13 139.383 1079.53 148.885 1079.53 159.5C1079.53 170.115 1082.13 179.668 1087.31 188.16C1092.5 196.551 1099.67 203.122 1108.82 207.873C1117.97 212.624 1128.29 215 1139.78 215C1151.27 215 1161.59 212.624 1170.74 207.873C1179.89 203.122 1187.05 196.551 1192.24 188.16C1197.43 179.668 1200.02 170.115 1200.02 159.5C1200.02 148.885 1197.43 139.383 1192.24 130.992ZM1088.8 187.259C1093.82 195.367 1100.74 201.723 1109.62 206.334C1118.5 210.942 1128.54 213.264 1139.78 213.264C1151.02 213.264 1161.05 210.942 1169.93 206.334C1178.81 201.722 1185.74 195.364 1190.75 187.252C1195.76 179.052 1198.27 169.817 1198.27 159.5C1198.27 149.18 1195.76 139.997 1190.75 131.901L1190.75 131.893C1185.73 123.681 1178.81 117.276 1169.93 112.666C1161.05 108.058 1151.02 105.736 1139.78 105.736C1128.54 105.736 1118.5 108.058 1109.62 112.666C1100.75 117.276 1093.82 123.681 1088.8 131.893L1088.8 131.897L1088.8 131.901C1083.8 139.997 1081.28 149.18 1081.28 159.5C1081.28 169.82 1083.8 179.057 1088.8 187.259ZM1162.06 174.418L1162.06 174.426C1159.78 178.625 1156.67 181.941 1152.74 184.334L1152.73 184.338L1152.72 184.341C1148.87 186.639 1144.54 187.773 1139.78 187.773C1135.01 187.773 1130.64 186.639 1126.7 184.352L1126.67 184.338L1126.65 184.322C1122.81 181.927 1119.76 178.613 1117.5 174.426L1117.49 174.418L1117.49 174.41C1115.2 170.077 1114.09 165.09 1114.09 159.5C1114.09 153.914 1115.2 148.973 1117.49 144.734C1119.76 140.445 1122.81 137.117 1126.67 134.814C1130.62 132.418 1135 131.227 1139.78 131.227C1144.55 131.227 1148.88 132.415 1152.73 134.814C1156.68 137.113 1159.79 140.44 1162.06 144.733C1164.35 148.973 1165.47 153.914 1165.47 159.5C1165.47 165.09 1164.35 170.077 1162.06 174.41L1162.06 174.418ZM1160.52 145.549C1158.38 141.505 1155.48 138.422 1151.82 136.299C1148.27 134.075 1144.25 132.963 1139.78 132.963C1135.3 132.963 1131.24 134.075 1127.58 136.299C1124.02 138.422 1121.17 141.505 1119.03 145.549C1116.9 149.492 1115.83 154.142 1115.83 159.5C1115.83 164.858 1116.9 169.559 1119.03 173.602C1121.17 177.545 1124.02 180.628 1127.58 182.852C1131.24 184.975 1135.3 186.037 1139.78 186.037C1144.25 186.037 1148.27 184.975 1151.82 182.852C1155.48 180.628 1158.38 177.545 1160.52 173.602C1162.65 169.559 1163.72 164.858 1163.72 159.5C1163.72 154.142 1162.65 149.492 1160.52 145.549ZM1321.52 130.992C1316.33 122.5 1309.16 115.878 1300.01 111.127C1290.86 106.376 1280.54 104 1269.05 104C1257.56 104 1247.24 106.376 1238.09 111.127C1228.94 115.878 1221.77 122.5 1216.59 130.992C1211.4 139.383 1208.81 148.885 1208.81 159.5C1208.81 170.115 1211.4 179.668 1216.59 188.16C1221.77 196.551 1228.94 203.122 1238.09 207.873C1247.24 212.624 1257.56 215 1269.05 215C1280.54 215 1290.86 212.624 1300.01 207.873C1309.16 203.122 1316.33 196.551 1321.52 188.16C1326.7 179.668 1329.29 170.115 1329.29 159.5C1329.29 148.885 1326.7 139.383 1321.52 130.992ZM1320.03 187.252C1325.03 179.052 1327.55 169.817 1327.55 159.5C1327.55 149.18 1325.03 139.997 1320.03 131.901L1320.02 131.893C1315.01 123.681 1308.08 117.276 1299.2 112.666C1290.33 108.058 1280.29 105.736 1269.05 105.736C1257.81 105.736 1247.78 108.058 1238.9 112.666C1230.02 117.276 1223.1 123.681 1218.08 131.893L1218.08 131.897L1218.08 131.901C1213.07 139.997 1210.56 149.18 1210.56 159.5C1210.56 169.82 1213.07 179.057 1218.08 187.259C1223.09 195.367 1230.02 201.723 1238.9 206.334C1247.78 210.942 1257.81 213.264 1269.05 213.264C1280.29 213.264 1290.33 210.942 1299.2 206.334C1308.09 201.722 1315.01 195.364 1320.03 187.252ZM1291.34 174.418L1291.33 174.426C1289.06 178.625 1285.95 181.941 1282.01 184.334L1282.01 184.338L1282 184.341C1278.15 186.639 1273.82 187.773 1269.05 187.773C1264.29 187.773 1259.91 186.639 1255.97 184.352L1255.95 184.338L1255.92 184.322C1252.09 181.927 1249.04 178.613 1246.77 174.426L1246.77 174.418L1246.77 174.41C1244.48 170.077 1243.36 165.09 1243.36 159.5C1243.36 153.914 1244.48 148.973 1246.77 144.734C1249.04 140.445 1252.09 137.117 1255.95 134.814C1259.89 132.418 1264.27 131.227 1269.05 131.227C1273.82 131.227 1278.16 132.415 1282.01 134.814C1285.96 137.113 1289.07 140.44 1291.34 144.733C1293.63 148.973 1294.74 153.914 1294.74 159.5C1294.74 165.09 1293.63 170.077 1291.34 174.41L1291.34 174.418ZM1289.79 145.549C1287.66 141.505 1284.76 138.422 1281.1 136.299C1277.54 134.075 1273.53 132.963 1269.05 132.963C1264.58 132.963 1260.51 134.075 1256.85 136.299C1253.29 138.422 1250.45 141.505 1248.31 145.549C1246.18 149.492 1245.11 154.142 1245.11 159.5C1245.11 164.858 1246.18 169.559 1248.31 173.602C1250.45 177.545 1253.29 180.628 1256.85 182.852C1260.51 184.975 1264.58 186.037 1269.05 186.037C1273.53 186.037 1277.54 184.975 1281.1 182.852C1284.76 180.628 1287.66 177.545 1289.79 173.602C1291.93 169.559 1293 164.858 1293 159.5C1293 154.142 1291.93 149.492 1289.79 145.549ZM1426.39 112.947C1417.34 108.6 1406.87 106.426 1394.97 106.426H1342.36V212.574H1394.97C1406.87 212.574 1417.34 210.451 1426.39 206.205C1435.54 201.858 1442.61 195.691 1447.59 187.705C1452.67 179.719 1455.22 170.317 1455.22 159.5C1455.22 148.683 1452.67 139.281 1447.59 131.295C1442.61 123.309 1435.54 117.193 1426.39 112.947ZM1425.64 204.635C1434.51 200.421 1441.32 194.471 1446.11 186.79L1446.11 186.783L1446.12 186.776C1451 179.106 1453.47 170.037 1453.47 159.5C1453.47 148.963 1451 139.894 1446.12 132.224L1446.11 132.217L1446.11 132.21C1441.32 124.531 1434.52 118.634 1425.65 114.52L1425.64 114.515L1425.63 114.51C1416.86 110.296 1406.66 108.163 1394.97 108.163H1344.1V210.837H1394.97C1406.66 210.837 1416.87 208.753 1425.64 204.635ZM1393.45 184.672C1401.18 184.672 1407.33 182.499 1411.9 178.152C1416.58 173.704 1418.92 167.486 1418.92 159.5C1418.92 151.514 1416.58 145.347 1411.9 141C1407.33 136.552 1401.18 134.328 1393.45 134.328H1378.35V184.672H1393.45ZM1413.11 139.747C1408.15 134.926 1401.53 132.592 1393.45 132.592H1376.6V186.408H1393.45C1401.52 186.408 1408.14 184.128 1413.11 179.407L1411.91 178.156L1413.11 179.406C1418.21 174.555 1420.67 167.838 1420.67 159.5C1420.67 151.172 1418.22 144.501 1413.11 139.747ZM1466.58 181.687L1466.58 181.688C1463.21 184.857 1461.48 189.029 1461.48 194.377C1461.48 199.716 1463.21 204.005 1466.6 207.387C1470.1 210.682 1474.49 212.354 1479.87 212.354C1485.26 212.354 1489.59 210.676 1492.99 207.387C1496.49 204 1498.25 199.71 1498.25 194.377C1498.25 189.044 1496.49 184.877 1493.02 181.703L1493 181.687L1492.99 181.671C1489.59 178.381 1485.26 176.704 1479.87 176.704C1474.48 176.704 1470.09 178.381 1466.58 181.687ZM1465.38 208.631C1461.62 204.891 1459.74 200.139 1459.74 194.377C1459.74 188.615 1461.62 183.964 1465.38 180.426C1469.24 176.787 1474.07 174.967 1479.87 174.967C1485.66 174.967 1490.44 176.787 1494.2 180.426C1498.07 183.964 1500 188.615 1500 194.377C1500 200.139 1498.07 204.891 1494.2 208.631C1490.44 212.27 1485.66 214.09 1479.87 214.09C1474.07 214.09 1469.24 212.27 1465.38 208.631Z" fill="#1B1A1A"/>
<path fill-rule="evenodd" clip-rule="evenodd" d="M237.977 111.127C228.928 115.777 221.811 122.348 216.626 130.84C211.542 139.231 209 148.784 209 159.5C209 170.216 211.542 179.82 216.626 188.311C221.811 196.702 228.928 203.273 237.977 208.025C247.026 212.675 257.193 215 268.479 215C278.85 215 288.102 213.18 296.236 209.541C304.37 205.902 311.081 200.645 316.368 193.77L293.644 173.602C293.277 174.062 292.907 174.51 292.533 174.944C286.168 182.339 278.76 186.037 270.309 186.037C262.786 186.037 256.736 183.661 252.161 178.91C247.585 174.057 245.298 167.587 245.298 159.5C245.298 151.413 247.585 144.993 252.161 140.242C256.736 135.389 262.786 132.963 270.309 132.963C278.76 132.963 286.168 136.661 292.533 144.056C292.907 144.49 293.277 144.938 293.644 145.398L316.368 125.23C311.081 118.355 304.37 113.098 296.236 109.459C288.102 105.82 278.85 104 268.479 104C257.193 104 247.026 106.376 237.977 111.127ZM313.978 125.023C309.035 118.998 302.89 114.34 295.52 111.042C287.645 107.519 278.643 105.736 268.479 105.736C257.448 105.736 247.565 108.056 238.793 112.662L238.786 112.666L238.779 112.67C230.01 117.176 223.135 123.526 218.12 131.738C213.216 139.833 210.746 149.07 210.746 159.5C210.746 169.926 213.215 179.215 218.12 187.413C223.134 195.523 230.011 201.877 238.786 206.486C247.56 210.993 257.445 213.264 268.479 213.264C278.643 213.264 287.645 211.481 295.52 207.958C302.89 204.66 309.035 200.002 313.978 193.977L293.836 176.1C287.207 183.789 279.352 187.773 270.309 187.773C262.381 187.773 255.85 185.252 250.899 180.111L250.893 180.104L250.887 180.097C245.945 174.857 243.551 167.928 243.551 159.5C243.551 151.077 245.943 144.192 250.893 139.048C255.84 133.804 262.373 131.227 270.309 131.227C279.352 131.227 287.207 135.211 293.836 142.9L313.978 125.023ZM328.034 130.992C322.848 139.383 320.256 148.885 320.256 159.5C320.256 170.115 322.848 179.668 328.034 188.16C333.219 196.551 340.387 203.122 349.538 207.873C358.688 212.624 369.008 215 380.497 215C391.987 215 402.307 212.624 411.457 207.873C420.608 203.122 427.776 196.551 432.961 188.16C438.147 179.668 440.739 170.115 440.739 159.5C440.739 148.885 438.147 139.383 432.961 130.992C427.776 122.5 420.608 115.878 411.457 111.127C402.307 106.376 391.987 104 380.497 104C369.008 104 358.688 106.376 349.538 111.127C340.387 115.878 333.219 122.5 328.034 130.992ZM431.47 187.257C436.477 179.056 438.993 169.819 438.993 159.5C438.993 149.18 436.477 139.997 431.473 131.901L431.471 131.897L431.469 131.893C426.454 123.681 419.527 117.276 410.649 112.666C401.775 108.058 391.737 105.736 380.497 105.736C369.258 105.736 359.22 108.058 350.346 112.666C341.468 117.276 334.541 123.681 329.526 131.893L329.524 131.897L329.522 131.901C324.518 139.997 322.002 149.18 322.002 159.5C322.002 169.818 324.518 179.054 329.524 187.255C334.537 195.365 341.464 201.722 350.346 206.334C359.22 210.942 369.258 213.264 380.497 213.264C391.737 213.264 401.775 210.942 410.649 206.334C419.53 201.722 426.457 195.366 431.47 187.257ZM393.45 184.338L393.444 184.341C389.593 186.639 385.262 187.773 380.497 187.773C375.733 187.773 371.359 186.639 367.417 184.352L367.392 184.338L367.367 184.322C363.535 181.927 360.486 178.613 358.218 174.426L358.214 174.418L358.21 174.41C355.922 170.077 354.807 165.09 354.807 159.5C354.807 153.915 355.92 148.974 358.214 144.735C360.48 140.446 363.535 137.116 367.393 134.813C371.337 132.418 375.72 131.227 380.497 131.227C385.268 131.227 389.602 132.415 393.451 134.814C397.403 137.113 400.512 140.44 402.781 144.733C405.075 148.973 406.188 153.914 406.188 159.5C406.188 165.09 405.073 170.077 402.785 174.41L402.781 174.418L402.777 174.426C400.502 178.625 397.394 181.941 393.456 184.334L393.45 184.338ZM401.239 145.549C399.104 141.505 396.206 138.422 392.546 136.299C388.987 134.075 384.971 132.963 380.497 132.963C376.024 132.963 371.957 134.075 368.297 136.299C364.738 138.422 361.891 141.505 359.756 145.549C357.621 149.492 356.553 154.142 356.553 159.5C356.553 164.858 357.621 169.559 359.756 173.602C361.891 177.545 364.738 180.628 368.297 182.852C371.957 184.975 376.024 186.037 380.497 186.037C384.971 186.037 388.987 184.975 392.546 182.852C396.206 180.628 399.104 177.545 401.239 173.602C403.374 169.559 404.442 164.858 404.442 159.5C404.442 154.142 403.374 149.492 401.239 145.549ZM477.241 132.44V210.837H509.741V132.44H541.006V108.163H445.977V132.44H477.241ZM475.495 134.176V212.574H511.488V134.176H542.753V106.426H444.23V134.176H475.495ZM612.765 134.176H644.029V106.426H545.507V134.176H576.772V212.574H612.765V134.176ZM611.018 210.837V132.44H642.283V108.163H547.254V132.44H578.518V210.837H611.018ZM655.396 130.992C650.211 139.383 647.618 148.885 647.618 159.5C647.618 170.115 650.211 179.668 655.396 188.16C660.582 196.551 667.75 203.122 676.9 207.873C686.051 212.624 696.371 215 707.86 215C719.349 215 729.669 212.624 738.82 207.873C747.97 203.122 755.138 196.551 760.324 188.16C765.509 179.668 768.102 170.115 768.102 159.5C768.102 148.885 765.509 139.383 760.324 130.992C755.138 122.5 747.97 115.878 738.82 111.127C729.669 106.376 719.349 104 707.86 104C696.371 104 686.051 106.376 676.9 111.127C667.75 115.878 660.582 122.5 655.396 130.992ZM656.884 131.901C651.881 139.997 649.364 149.18 649.364 159.5C649.364 169.817 651.88 179.053 656.885 187.252C661.898 195.364 668.826 201.722 677.709 206.334C686.583 210.942 696.62 213.264 707.86 213.264C719.1 213.264 729.137 210.942 738.011 206.334C746.894 201.722 753.822 195.364 758.835 187.252C763.84 179.052 766.356 169.817 766.356 159.5C766.356 149.18 763.839 139.997 758.836 131.901L758.831 131.893C753.817 123.681 746.889 117.276 738.011 112.666C729.137 108.058 719.1 105.736 707.86 105.736C696.62 105.736 686.583 108.058 677.709 112.666C668.831 117.276 661.903 123.681 656.889 131.893L656.884 131.901ZM730.143 174.418L730.139 174.426C727.865 178.625 724.757 181.941 720.819 184.334L720.813 184.338L720.807 184.341C716.956 186.639 712.625 187.773 707.86 187.773C703.095 187.773 698.722 186.639 694.779 184.352L694.754 184.338L694.73 184.322C690.897 181.927 687.849 178.613 685.581 174.426L685.577 174.418L685.572 174.41C683.285 170.077 682.169 165.09 682.169 159.5C682.169 153.914 683.283 148.973 685.577 144.734C687.843 140.445 690.898 137.117 694.754 134.814C698.699 132.418 703.082 131.227 707.86 131.227C712.63 131.227 716.964 132.415 720.813 134.814C724.766 137.113 727.874 140.44 730.143 144.733C732.437 148.973 733.551 153.914 733.551 159.5C733.551 165.09 732.435 170.077 730.148 174.41L730.143 174.418ZM728.601 145.549C726.466 141.505 723.569 138.422 719.908 136.299C716.35 134.075 712.334 132.963 707.86 132.963C703.386 132.963 699.319 134.075 695.659 136.299C692.101 138.422 689.254 141.505 687.119 145.549C684.983 149.492 683.916 154.142 683.916 159.5C683.916 164.858 684.983 169.559 687.119 173.602C689.254 177.545 692.101 180.628 695.659 182.852C699.319 184.975 703.386 186.037 707.86 186.037C712.334 186.037 716.35 184.975 719.908 182.852C723.569 180.628 726.466 177.545 728.601 173.602C730.737 169.559 731.804 164.858 731.804 159.5C731.804 154.142 730.737 149.492 728.601 145.549ZM810.753 106.426H781.165V212.574H816.243V164.352L856.811 212.574H886.398V106.426H851.32V154.648L810.753 106.426ZM853.067 108.163V159.43L809.937 108.163H782.912V210.837H814.497V159.57L857.627 210.837H884.652V108.163H853.067ZM1005.01 106.426H971.913L952.239 166.779L933.632 106.426H896.572L930.735 212.574H969.32L987.469 155.861L1004.7 212.574H1043.29L1077.45 106.426H1043.29L1023.61 167.537L1005.01 106.426ZM1044.56 108.163L1023.57 173.377L1003.71 108.163H973.182L952.192 172.553L932.341 108.163H898.965L932.009 210.837H968.043L987.512 149.999L1006 210.837H1042.01L1075.06 108.163H1044.56ZM1192.24 130.992C1187.05 122.5 1179.89 115.878 1170.74 111.127C1161.59 106.376 1151.27 104 1139.78 104C1128.29 104 1117.97 106.376 1108.82 111.127C1099.67 115.878 1092.5 122.5 1087.31 130.992C1082.13 139.383 1079.53 148.885 1079.53 159.5C1079.53 170.115 1082.13 179.668 1087.31 188.16C1092.5 196.551 1099.67 203.122 1108.82 207.873C1117.97 212.624 1128.29 215 1139.78 215C1151.27 215 1161.59 212.624 1170.74 207.873C1179.89 203.122 1187.05 196.551 1192.24 188.16C1197.43 179.668 1200.02 170.115 1200.02 159.5C1200.02 148.885 1197.43 139.383 1192.24 130.992ZM1088.8 187.259C1093.82 195.367 1100.74 201.723 1109.62 206.334C1118.5 210.942 1128.54 213.264 1139.78 213.264C1151.02 213.264 1161.05 210.942 1169.93 206.334C1178.81 201.722 1185.74 195.364 1190.75 187.252C1195.76 179.052 1198.27 169.817 1198.27 159.5C1198.27 149.18 1195.76 139.997 1190.75 131.901L1190.75 131.893C1185.73 123.681 1178.81 117.276 1169.93 112.666C1161.05 108.058 1151.02 105.736 1139.78 105.736C1128.54 105.736 1118.5 108.058 1109.62 112.666C1100.75 117.276 1093.82 123.681 1088.8 131.893L1088.8 131.897L1088.8 131.901C1083.8 139.997 1081.28 149.18 1081.28 159.5C1081.28 169.82 1083.8 179.057 1088.8 187.259ZM1162.06 174.418L1162.06 174.426C1159.78 178.625 1156.67 181.941 1152.74 184.334L1152.73 184.338L1152.72 184.341C1148.87 186.639 1144.54 187.773 1139.78 187.773C1135.01 187.773 1130.64 186.639 1126.7 184.352L1126.67 184.338L1126.65 184.322C1122.81 181.927 1119.76 178.613 1117.5 174.426L1117.49 174.418L1117.49 174.41C1115.2 170.077 1114.09 165.09 1114.09 159.5C1114.09 153.914 1115.2 148.973 1117.49 144.734C1119.76 140.445 1122.81 137.117 1126.67 134.814C1130.62 132.418 1135 131.227 1139.78 131.227C1144.55 131.227 1148.88 132.415 1152.73 134.814C1156.68 137.113 1159.79 140.44 1162.06 144.733C1164.35 148.973 1165.47 153.914 1165.47 159.5C1165.47 165.09 1164.35 170.077 1162.06 174.41L1162.06 174.418ZM1160.52 145.549C1158.38 141.505 1155.48 138.422 1151.82 136.299C1148.27 134.075 1144.25 132.963 1139.78 132.963C1135.3 132.963 1131.24 134.075 1127.58 136.299C1124.02 138.422 1121.17 141.505 1119.03 145.549C1116.9 149.492 1115.83 154.142 1115.83 159.5C1115.83 164.858 1116.9 169.559 1119.03 173.602C1121.17 177.545 1124.02 180.628 1127.58 182.852C1131.24 184.975 1135.3 186.037 1139.78 186.037C1144.25 186.037 1148.27 184.975 1151.82 182.852C1155.48 180.628 1158.38 177.545 1160.52 173.602C1162.65 169.559 1163.72 164.858 1163.72 159.5C1163.72 154.142 1162.65 149.492 1160.52 145.549ZM1321.52 130.992C1316.33 122.5 1309.16 115.878 1300.01 111.127C1290.86 106.376 1280.54 104 1269.05 104C1257.56 104 1247.24 106.376 1238.09 111.127C1228.94 115.878 1221.77 122.5 1216.59 130.992C1211.4 139.383 1208.81 148.885 1208.81 159.5C1208.81 170.115 1211.4 179.668 1216.59 188.16C1221.77 196.551 1228.94 203.122 1238.09 207.873C1247.24 212.624 1257.56 215 1269.05 215C1280.54 215 1290.86 212.624 1300.01 207.873C1309.16 203.122 1316.33 196.551 1321.52 188.16C1326.7 179.668 1329.29 170.115 1329.29 159.5C1329.29 148.885 1326.7 139.383 1321.52 130.992ZM1320.03 187.252C1325.03 179.052 1327.55 169.817 1327.55 159.5C1327.55 149.18 1325.03 139.997 1320.03 131.901L1320.02 131.893C1315.01 123.681 1308.08 117.276 1299.2 112.666C1290.33 108.058 1280.29 105.736 1269.05 105.736C1257.81 105.736 1247.78 108.058 1238.9 112.666C1230.02 117.276 1223.1 123.681 1218.08 131.893L1218.08 131.897L1218.08 131.901C1213.07 139.997 1210.56 149.18 1210.56 159.5C1210.56 169.82 1213.07 179.057 1218.08 187.259C1223.09 195.367 1230.02 201.723 1238.9 206.334C1247.78 210.942 1257.81 213.264 1269.05 213.264C1280.29 213.264 1290.33 210.942 1299.2 206.334C1308.09 201.722 1315.01 195.364 1320.03 187.252ZM1291.34 174.418L1291.33 174.426C1289.06 178.625 1285.95 181.941 1282.01 184.334L1282.01 184.338L1282 184.341C1278.15 186.639 1273.82 187.773 1269.05 187.773C1264.29 187.773 1259.91 186.639 1255.97 184.352L1255.95 184.338L1255.92 184.322C1252.09 181.927 1249.04 178.613 1246.77 174.426L1246.77 174.418L1246.77 174.41C1244.48 170.077 1243.36 165.09 1243.36 159.5C1243.36 153.914 1244.48 148.973 1246.77 144.734C1249.04 140.445 1252.09 137.117 1255.95 134.814C1259.89 132.418 1264.27 131.227 1269.05 131.227C1273.82 131.227 1278.16 132.415 1282.01 134.814C1285.96 137.113 1289.07 140.44 1291.34 144.733C1293.63 148.973 1294.74 153.914 1294.74 159.5C1294.74 165.09 1293.63 170.077 1291.34 174.41L1291.34 174.418ZM1289.79 145.549C1287.66 141.505 1284.76 138.422 1281.1 136.299C1277.54 134.075 1273.53 132.963 1269.05 132.963C1264.58 132.963 1260.51 134.075 1256.85 136.299C1253.29 138.422 1250.45 141.505 1248.31 145.549C1246.18 149.492 1245.11 154.142 1245.11 159.5C1245.11 164.858 1246.18 169.559 1248.31 173.602C1250.45 177.545 1253.29 180.628 1256.85 182.852C1260.51 184.975 1264.58 186.037 1269.05 186.037C1273.53 186.037 1277.54 184.975 1281.1 182.852C1284.76 180.628 1287.66 177.545 1289.79 173.602C1291.93 169.559 1293 164.858 1293 159.5C1293 154.142 1291.93 149.492 1289.79 145.549ZM1426.39 112.947C1417.34 108.6 1406.87 106.426 1394.97 106.426H1342.36V212.574H1394.97C1406.87 212.574 1417.34 210.451 1426.39 206.205C1435.54 201.858 1442.61 195.691 1447.59 187.705C1452.67 179.719 1455.22 170.317 1455.22 159.5C1455.22 148.683 1452.67 139.281 1447.59 131.295C1442.61 123.309 1435.54 117.193 1426.39 112.947ZM1425.64 204.635C1434.51 200.421 1441.32 194.471 1446.11 186.79L1446.11 186.783L1446.12 186.776C1451 179.106 1453.47 170.037 1453.47 159.5C1453.47 148.963 1451 139.894 1446.12 132.224L1446.11 132.217L1446.11 132.21C1441.32 124.531 1434.52 118.634 1425.65 114.52L1425.64 114.515L1425.63 114.51C1416.86 110.296 1406.66 108.163 1394.97 108.163H1344.1V210.837H1394.97C1406.66 210.837 1416.87 208.753 1425.64 204.635ZM1393.45 184.672C1401.18 184.672 1407.33 182.499 1411.9 178.152C1416.58 173.704 1418.92 167.486 1418.92 159.5C1418.92 151.514 1416.58 145.347 1411.9 141C1407.33 136.552 1401.18 134.328 1393.45 134.328H1378.35V184.672H1393.45ZM1413.11 139.747C1408.15 134.926 1401.53 132.592 1393.45 132.592H1376.6V186.408H1393.45C1401.52 186.408 1408.14 184.128 1413.11 179.407L1411.91 178.156L1413.11 179.406C1418.21 174.555 1420.67 167.838 1420.67 159.5C1420.67 151.172 1418.22 144.501 1413.11 139.747ZM1466.58 181.687L1466.58 181.688C1463.21 184.857 1461.48 189.029 1461.48 194.377C1461.48 199.716 1463.21 204.005 1466.6 207.387C1470.1 210.682 1474.49 212.354 1479.87 212.354C1485.26 212.354 1489.59 210.676 1492.99 207.387C1496.49 204 1498.25 199.71 1498.25 194.377C1498.25 189.044 1496.49 184.877 1493.02 181.703L1493 181.687L1492.99 181.671C1489.59 178.381 1485.26 176.704 1479.87 176.704C1474.48 176.704 1470.09 178.381 1466.58 181.687ZM1465.38 208.631C1461.62 204.891 1459.74 200.139 1459.74 194.377C1459.74 188.615 1461.62 183.964 1465.38 180.426C1469.24 176.787 1474.07 174.967 1479.87 174.967C1485.66 174.967 1490.44 176.787 1494.2 180.426C1498.07 183.964 1500 188.615 1500 194.377C1500 200.139 1498.07 204.891 1494.2 208.631C1490.44 212.27 1485.66 214.09 1479.87 214.09C1474.07 214.09 1469.24 212.27 1465.38 208.631Z" fill="black" fill-opacity="0.2"/>
</g>
</g>
<defs>
<clipPath id="clip0_304_6">
<rect width="1500" height="215" fill="white"/>
</clipPath>
</defs>
</svg>
