<svg width="608" height="80" viewBox="0 0 608 80" fill="none" xmlns="http://www.w3.org/2000/svg">
<path d="M22.419 40.88C18.349 40.88 14.6824 40.0367 11.419 38.35C8.15569 36.6267 5.58902 34.2433 3.71902 31.2C1.88569 28.12 0.969023 24.6367 0.969023 20.75C0.969023 16.8633 1.88569 13.3983 3.71902 10.355C5.58902 7.275 8.15569 4.89167 11.419 3.205C14.6824 1.48167 18.349 0.619999 22.419 0.619999C26.159 0.619999 29.4957 1.28 32.429 2.6C35.3624 3.92 37.7824 5.82666 39.689 8.32L31.494 15.635C29.1107 12.6283 26.3057 11.125 23.079 11.125C20.3657 11.125 18.184 12.005 16.534 13.765C14.884 15.4883 14.059 17.8167 14.059 20.75C14.059 23.6833 14.884 26.03 16.534 27.79C18.184 29.5133 20.3657 30.375 23.079 30.375C26.3057 30.375 29.1107 28.8717 31.494 25.865L39.689 33.18C37.7824 35.6733 35.3624 37.58 32.429 38.9C29.4957 40.22 26.159 40.88 22.419 40.88ZM62.8161 40.88C58.6728 40.88 54.9511 40.0183 51.6511 38.295C48.3511 36.5717 45.7661 34.1883 43.8961 31.145C42.0261 28.065 41.0911 24.6 41.0911 20.75C41.0911 16.9 42.0261 13.4533 43.8961 10.41C45.7661 7.33 48.3511 4.92833 51.6511 3.205C54.9511 1.48167 58.6728 0.619999 62.8161 0.619999C66.9594 0.619999 70.6811 1.48167 73.9811 3.205C77.2811 4.92833 79.8661 7.33 81.7361 10.41C83.6061 13.4533 84.5411 16.9 84.5411 20.75C84.5411 24.6 83.6061 28.065 81.7361 31.145C79.8661 34.1883 77.2811 36.5717 73.9811 38.295C70.6811 40.0183 66.9594 40.88 62.8161 40.88ZM62.8161 30.375C64.4294 30.375 65.8778 29.99 67.1611 29.22C68.4811 28.4133 69.5261 27.295 70.2961 25.865C71.0661 24.3983 71.4511 22.6933 71.4511 20.75C71.4511 18.8067 71.0661 17.12 70.2961 15.69C69.5261 14.2233 68.4811 13.105 67.1611 12.335C65.8778 11.5283 64.4294 11.125 62.8161 11.125C61.2028 11.125 59.7361 11.5283 58.4161 12.335C57.1328 13.105 56.1061 14.2233 55.3361 15.69C54.5661 17.12 54.1811 18.8067 54.1811 20.75C54.1811 22.6933 54.5661 24.3983 55.3361 25.865C56.1061 27.295 57.1328 28.4133 58.4161 29.22C59.7361 29.99 61.2028 30.375 62.8161 30.375ZM97.0751 11.565H85.8001V1.5H121.33V11.565H110.055V40H97.0751V11.565ZM133.599 11.565H122.324V1.5H157.854V11.565H146.579V40H133.599V11.565ZM180.873 40.88C176.729 40.88 173.008 40.0183 169.708 38.295C166.408 36.5717 163.823 34.1883 161.953 31.145C160.083 28.065 159.148 24.6 159.148 20.75C159.148 16.9 160.083 13.4533 161.953 10.41C163.823 7.33 166.408 4.92833 169.708 3.205C173.008 1.48167 176.729 0.619999 180.873 0.619999C185.016 0.619999 188.738 1.48167 192.038 3.205C195.338 4.92833 197.923 7.33 199.793 10.41C201.663 13.4533 202.598 16.9 202.598 20.75C202.598 24.6 201.663 28.065 199.793 31.145C197.923 34.1883 195.338 36.5717 192.038 38.295C188.738 40.0183 185.016 40.88 180.873 40.88ZM180.873 30.375C182.486 30.375 183.934 29.99 185.218 29.22C186.538 28.4133 187.583 27.295 188.353 25.865C189.123 24.3983 189.508 22.6933 189.508 20.75C189.508 18.8067 189.123 17.12 188.353 15.69C187.583 14.2233 186.538 13.105 185.218 12.335C183.934 11.5283 182.486 11.125 180.873 11.125C179.259 11.125 177.793 11.5283 176.473 12.335C175.189 13.105 174.163 14.2233 173.393 15.69C172.623 17.12 172.238 18.8067 172.238 20.75C172.238 22.6933 172.623 24.3983 173.393 25.865C174.163 27.295 175.189 28.4133 176.473 29.22C177.793 29.99 179.259 30.375 180.873 30.375ZM245.259 1.5V40H234.589L219.959 22.51V40H207.309V1.5H217.979L232.609 18.99V1.5H245.259ZM314.158 1.5L301.838 40H287.923L281.708 19.43L275.163 40H261.248L248.928 1.5H262.293L269.003 23.39L276.098 1.5H288.033L294.743 23.665L301.838 1.5H314.158ZM336.634 40.88C332.491 40.88 328.769 40.0183 325.469 38.295C322.169 36.5717 319.584 34.1883 317.714 31.145C315.844 28.065 314.909 24.6 314.909 20.75C314.909 16.9 315.844 13.4533 317.714 10.41C319.584 7.33 322.169 4.92833 325.469 3.205C328.769 1.48167 332.491 0.619999 336.634 0.619999C340.778 0.619999 344.499 1.48167 347.799 3.205C351.099 4.92833 353.684 7.33 355.554 10.41C357.424 13.4533 358.359 16.9 358.359 20.75C358.359 24.6 357.424 28.065 355.554 31.145C353.684 34.1883 351.099 36.5717 347.799 38.295C344.499 40.0183 340.778 40.88 336.634 40.88ZM336.634 30.375C338.248 30.375 339.696 29.99 340.979 29.22C342.299 28.4133 343.344 27.295 344.114 25.865C344.884 24.3983 345.269 22.6933 345.269 20.75C345.269 18.8067 344.884 17.12 344.114 15.69C343.344 14.2233 342.299 13.105 340.979 12.335C339.696 11.5283 338.248 11.125 336.634 11.125C335.021 11.125 333.554 11.5283 332.234 12.335C330.951 13.105 329.924 14.2233 329.154 15.69C328.384 17.12 327.999 18.8067 327.999 20.75C327.999 22.6933 328.384 24.3983 329.154 25.865C329.924 27.295 330.951 28.4133 332.234 29.22C333.554 29.99 335.021 30.375 336.634 30.375ZM383.256 40.88C379.112 40.88 375.391 40.0183 372.091 38.295C368.791 36.5717 366.206 34.1883 364.336 31.145C362.466 28.065 361.531 24.6 361.531 20.75C361.531 16.9 362.466 13.4533 364.336 10.41C366.206 7.33 368.791 4.92833 372.091 3.205C375.391 1.48167 379.112 0.619999 383.256 0.619999C387.399 0.619999 391.121 1.48167 394.421 3.205C397.721 4.92833 400.306 7.33 402.176 10.41C404.046 13.4533 404.981 16.9 404.981 20.75C404.981 24.6 404.046 28.065 402.176 31.145C400.306 34.1883 397.721 36.5717 394.421 38.295C391.121 40.0183 387.399 40.88 383.256 40.88ZM383.256 30.375C384.869 30.375 386.317 29.99 387.601 29.22C388.921 28.4133 389.966 27.295 390.736 25.865C391.506 24.3983 391.891 22.6933 391.891 20.75C391.891 18.8067 391.506 17.12 390.736 15.69C389.966 14.2233 388.921 13.105 387.601 12.335C386.317 11.5283 384.869 11.125 383.256 11.125C381.642 11.125 380.176 11.5283 378.856 12.335C377.572 13.105 376.546 14.2233 375.776 15.69C375.006 17.12 374.621 18.8067 374.621 20.75C374.621 22.6933 375.006 24.3983 375.776 25.865C376.546 27.295 377.572 28.4133 378.856 29.22C380.176 29.99 381.642 30.375 383.256 30.375ZM409.692 1.5H428.667C432.957 1.5 436.733 2.28833 439.997 3.865C443.297 5.405 445.845 7.62333 447.642 10.52C449.475 13.4167 450.392 16.8267 450.392 20.75C450.392 24.6733 449.475 28.0833 447.642 30.98C445.845 33.8767 443.297 36.1133 439.997 37.69C436.733 39.23 432.957 40 428.667 40H409.692V1.5ZM428.117 29.88C430.903 29.88 433.122 29.0917 434.772 27.515C436.458 25.9017 437.302 23.6467 437.302 20.75C437.302 17.8533 436.458 15.6167 434.772 14.04C433.122 12.4267 430.903 11.62 428.117 11.62H422.672V29.88H428.117ZM459.282 40.55C457.192 40.55 455.45 39.89 454.057 38.57C452.7 37.2133 452.022 35.49 452.022 33.4C452.022 31.31 452.7 29.6233 454.057 28.34C455.45 27.02 457.192 26.36 459.282 26.36C461.372 26.36 463.095 27.02 464.452 28.34C465.845 29.6233 466.542 31.31 466.542 33.4C466.542 35.49 465.845 37.2133 464.452 38.57C463.095 39.89 461.372 40.55 459.282 40.55Z" fill="#1B1A1A"/>
<path d="M151.419 76.35L150.952 77.2343L150.96 77.2384L151.419 76.35ZM143.719 69.2L142.86 69.7115L142.867 69.7235L143.719 69.2ZM143.719 48.355L142.864 47.836L142.862 47.839L143.719 48.355ZM151.419 41.205L151.878 42.0934L151.886 42.0893L151.419 41.205ZM172.429 40.6L172.019 41.5119L172.019 41.5119L172.429 40.6ZM179.689 46.32L180.355 47.066L181.046 46.4488L180.483 45.7125L179.689 46.32ZM171.494 53.635L170.71 54.2562L171.369 55.0871L172.16 54.381L171.494 53.635ZM156.534 51.765L157.256 52.4566L157.264 52.4489L156.534 51.765ZM156.534 65.79L155.804 66.474L155.812 66.4816L156.534 65.79ZM171.494 63.865L172.16 63.119L171.369 62.4129L170.71 63.2438L171.494 63.865ZM179.689 71.18L180.483 71.7874L181.046 71.0512L180.355 70.434L179.689 71.18ZM172.429 76.9L172.019 75.9881L172.019 75.9881L172.429 76.9ZM162.419 77.88C158.491 77.88 154.985 77.0673 151.878 75.4616L150.96 77.2384C154.38 79.006 158.207 79.88 162.419 79.88V77.88ZM151.886 75.4657C148.775 73.8231 146.344 71.562 144.571 68.6765L142.867 69.7235C144.834 72.9246 147.536 75.4302 150.952 77.2343L151.886 75.4657ZM144.578 68.6885C142.845 65.7762 141.969 62.4723 141.969 58.75H139.969C139.969 62.801 140.927 66.4638 142.86 69.7115L144.578 68.6885ZM141.969 58.75C141.969 55.0275 142.845 51.7441 144.576 48.871L142.862 47.839C140.927 51.0525 139.969 54.6991 139.969 58.75H141.969ZM144.574 48.874C146.346 45.9543 148.775 43.6973 151.878 42.0934L150.96 40.3166C147.537 42.086 144.832 44.5957 142.864 47.836L144.574 48.874ZM151.886 42.0893C154.991 40.4495 158.495 39.62 162.419 39.62V37.62C158.203 37.62 154.374 38.5138 150.952 40.3207L151.886 42.0893ZM162.419 39.62C166.04 39.62 169.234 40.2587 172.019 41.5119L172.839 39.6881C169.758 38.3013 166.278 37.62 162.419 37.62V39.62ZM172.019 41.5119C174.805 42.7656 177.091 44.5692 178.895 46.9274L180.483 45.7125C178.473 43.0841 175.92 41.0744 172.839 39.6881L172.019 41.5119ZM179.023 45.574L170.828 52.889L172.16 54.381L180.355 47.066L179.023 45.574ZM172.278 53.0138C169.745 49.8183 166.67 48.125 163.079 48.125V50.125C165.941 50.125 168.477 51.4383 170.71 54.2562L172.278 53.0138ZM163.079 48.125C160.127 48.125 157.668 49.0933 155.804 51.0811L157.264 52.4489C158.7 50.9167 160.604 50.125 163.079 50.125V48.125ZM155.812 51.0734C153.945 53.0235 153.059 55.6214 153.059 58.75H155.059C155.059 56.012 155.823 53.9531 157.256 52.4566L155.812 51.0734ZM153.059 58.75C153.059 61.8795 153.945 64.4903 155.804 66.4739L157.264 65.1061C155.823 63.5697 155.059 61.4872 155.059 58.75H153.059ZM155.812 66.4816C157.677 68.4297 160.134 69.375 163.079 69.375V67.375C160.597 67.375 158.691 66.597 157.256 65.0984L155.812 66.4816ZM163.079 69.375C166.67 69.375 169.745 67.6817 172.278 64.4862L170.71 63.2438C168.477 66.0617 165.941 67.375 163.079 67.375V69.375ZM170.828 64.611L179.023 71.926L180.355 70.434L172.16 63.119L170.828 64.611ZM178.895 70.5725C177.091 72.9308 174.805 74.7344 172.019 75.9881L172.839 77.8119C175.92 76.4256 178.473 74.4159 180.483 71.7874L178.895 70.5725ZM172.019 75.9881C169.234 77.2413 166.04 77.88 162.419 77.88V79.88C166.278 79.88 169.758 79.1987 172.839 77.8119L172.019 75.9881ZM191.651 76.295L192.114 75.4086L192.114 75.4086L191.651 76.295ZM183.896 69.145L183.041 69.664L183.044 69.6685L183.896 69.145ZM183.896 48.41L184.748 48.9335L184.751 48.929L183.896 48.41ZM213.981 41.205L214.444 40.3186L214.444 40.3186L213.981 41.205ZM221.736 48.41L220.881 48.929L220.884 48.9335L221.736 48.41ZM221.736 69.145L222.588 69.6685L222.591 69.664L221.736 69.145ZM213.981 76.295L214.444 77.1814L214.444 77.1814L213.981 76.295ZM207.161 67.22L207.676 68.0775L207.683 68.0733L207.161 67.22ZM210.296 63.865L211.177 64.3391L211.181 64.3298L210.296 63.865ZM210.296 53.69L209.411 54.1549L209.416 54.1641L210.296 53.69ZM207.161 50.335L206.629 51.1816L206.643 51.1904L206.657 51.1988L207.161 50.335ZM198.416 50.335L198.931 51.1925L198.938 51.1883L198.416 50.335ZM195.336 53.69L196.217 54.1641L196.221 54.1548L195.336 53.69ZM195.336 63.865L194.451 64.3299L194.456 64.3391L195.336 63.865ZM198.416 67.22L197.884 68.0666L197.898 68.0754L197.912 68.0838L198.416 67.22ZM202.816 77.88C198.815 77.88 195.256 77.0492 192.114 75.4086L191.188 77.1814C194.647 78.9875 198.53 79.88 202.816 79.88V77.88ZM192.114 75.4086C188.967 73.7652 186.519 71.5043 184.748 68.6215L183.044 69.6685C185.013 72.8724 187.735 75.3782 191.188 77.1814L192.114 75.4086ZM184.751 68.626C182.982 65.7132 182.091 62.43 182.091 58.75H180.091C180.091 62.77 181.07 66.4168 183.041 69.664L184.751 68.626ZM182.091 58.75C182.091 55.0699 182.982 51.8071 184.748 48.9335L183.044 47.8865C181.07 51.0996 180.091 54.7301 180.091 58.75H182.091ZM184.751 48.929C186.523 46.0102 188.97 43.7332 192.114 42.0914L191.188 40.3186C187.732 42.1234 185.009 44.6497 183.041 47.891L184.751 48.929ZM192.114 42.0914C195.256 40.4508 198.815 39.62 202.816 39.62V37.62C198.53 37.62 194.647 38.5125 191.188 40.3186L192.114 42.0914ZM202.816 39.62C206.817 39.62 210.377 40.4508 213.518 42.0914L214.444 40.3186C210.986 38.5125 207.102 37.62 202.816 37.62V39.62ZM213.518 42.0914C216.662 43.7332 219.109 46.0102 220.881 48.929L222.591 47.891C220.623 44.6497 217.9 42.1234 214.444 40.3186L213.518 42.0914ZM220.884 48.9335C222.65 51.8071 223.541 55.0699 223.541 58.75H225.541C225.541 54.7301 224.562 51.0996 222.588 47.8865L220.884 48.9335ZM223.541 58.75C223.541 62.43 222.65 65.7132 220.881 68.626L222.591 69.664C224.562 66.4168 225.541 62.77 225.541 58.75H223.541ZM220.884 68.6215C219.113 71.5043 216.665 73.7652 213.518 75.4086L214.444 77.1814C217.897 75.3782 220.619 72.8724 222.588 69.6685L220.884 68.6215ZM213.518 75.4086C210.377 77.0492 206.817 77.88 202.816 77.88V79.88C207.102 79.88 210.986 78.9875 214.444 77.1814L213.518 75.4086ZM202.816 69.375C204.596 69.375 206.225 68.948 207.676 68.0775L206.647 66.3625C205.531 67.032 204.263 67.375 202.816 67.375V69.375ZM207.683 68.0733C209.161 67.1696 210.327 65.917 211.177 64.3391L209.416 63.3909C208.725 64.673 207.801 65.6571 206.64 66.3667L207.683 68.0733ZM211.181 64.3298C212.039 62.6969 212.451 60.8272 212.451 58.75H210.451C210.451 60.5594 210.093 62.0998 209.411 63.4002L211.181 64.3298ZM212.451 58.75C212.451 56.6736 212.039 54.8177 211.177 53.2159L209.416 54.1641C210.093 55.4223 210.451 56.9398 210.451 58.75H212.451ZM211.181 53.2252C210.332 51.6069 209.161 50.3437 207.665 49.4712L206.657 51.1988C207.802 51.8663 208.72 52.8398 209.411 54.1548L211.181 53.2252ZM207.693 49.4884C206.24 48.575 204.605 48.125 202.816 48.125V50.125C204.254 50.125 205.515 50.4817 206.629 51.1816L207.693 49.4884ZM202.816 48.125C201.027 48.125 199.379 48.5749 197.895 49.4817L198.938 51.1883C200.094 50.4818 201.378 50.125 202.816 50.125V48.125ZM197.902 49.4775C196.444 50.3518 195.297 51.6139 194.451 53.2252L196.221 54.1548C196.916 52.8327 197.821 51.8582 198.931 51.1925L197.902 49.4775ZM194.456 53.2159C193.593 54.8177 193.181 56.6736 193.181 58.75H195.181C195.181 56.9398 195.539 55.4223 196.217 54.1641L194.456 53.2159ZM193.181 58.75C193.181 60.8272 193.593 62.6969 194.451 64.3298L196.221 63.4002C195.539 62.0998 195.181 60.5594 195.181 58.75H193.181ZM194.456 64.3391C195.302 65.9101 196.444 67.1614 197.884 68.0666L198.948 66.3734C197.822 65.6652 196.911 64.6799 196.217 63.3909L194.456 64.3391ZM197.912 68.0838C199.394 68.948 201.036 69.375 202.816 69.375V67.375C201.37 67.375 200.078 67.032 198.92 66.3562L197.912 68.0838ZM237.075 49.565H238.075V48.565H237.075V49.565ZM225.8 49.565H224.8V50.565H225.8V49.565ZM225.8 39.5V38.5H224.8V39.5H225.8ZM261.33 39.5H262.33V38.5H261.33V39.5ZM261.33 49.565V50.565H262.33V49.565H261.33ZM250.055 49.565V48.565H249.055V49.565H250.055ZM250.055 78V79H251.055V78H250.055ZM237.075 78H236.075V79H237.075V78ZM237.075 48.565H225.8V50.565H237.075V48.565ZM226.8 49.565V39.5H224.8V49.565H226.8ZM225.8 40.5H261.33V38.5H225.8V40.5ZM260.33 39.5V49.565H262.33V39.5H260.33ZM261.33 48.565H250.055V50.565H261.33V48.565ZM249.055 49.565V78H251.055V49.565H249.055ZM250.055 77H237.075V79H250.055V77ZM238.075 78V49.565H236.075V78H238.075ZM273.599 49.565H274.599V48.565H273.599V49.565ZM262.324 49.565H261.324V50.565H262.324V49.565ZM262.324 39.5V38.5H261.324V39.5H262.324ZM297.854 39.5H298.854V38.5H297.854V39.5ZM297.854 49.565V50.565H298.854V49.565H297.854ZM286.579 49.565V48.565H285.579V49.565H286.579ZM286.579 78V79H287.579V78H286.579ZM273.599 78H272.599V79H273.599V78ZM273.599 48.565H262.324V50.565H273.599V48.565ZM263.324 49.565V39.5H261.324V49.565H263.324ZM262.324 40.5H297.854V38.5H262.324V40.5ZM296.854 39.5V49.565H298.854V39.5H296.854ZM297.854 48.565H286.579V50.565H297.854V48.565ZM285.579 49.565V78H287.579V49.565H285.579ZM286.579 77H273.599V79H286.579V77ZM274.599 78V49.565H272.599V78H274.599ZM309.708 76.295L310.171 75.4086L310.171 75.4086L309.708 76.295ZM301.953 69.145L301.098 69.664L301.101 69.6685L301.953 69.145ZM301.953 48.41L302.805 48.9335L302.808 48.929L301.953 48.41ZM332.038 41.205L332.501 40.3186L332.501 40.3186L332.038 41.205ZM339.793 48.41L338.938 48.929L338.941 48.9335L339.793 48.41ZM339.793 69.145L340.645 69.6685L340.648 69.664L339.793 69.145ZM332.038 76.295L332.501 77.1814L332.501 77.1814L332.038 76.295ZM325.218 67.22L325.732 68.0775L325.739 68.0733L325.218 67.22ZM328.353 63.865L329.233 64.3391L329.238 64.3298L328.353 63.865ZM328.353 53.69L327.467 54.1549L327.472 54.1641L328.353 53.69ZM325.218 50.335L324.686 51.1816L324.7 51.1904L324.714 51.1988L325.218 50.335ZM316.473 50.335L316.987 51.1925L316.994 51.1883L316.473 50.335ZM313.393 53.69L314.273 54.1641L314.278 54.1548L313.393 53.69ZM313.393 63.865L312.507 64.3299L312.512 64.3391L313.393 63.865ZM316.473 67.22L315.941 68.0666L315.955 68.0754L315.969 68.0838L316.473 67.22ZM320.873 77.88C316.872 77.88 313.312 77.0492 310.171 75.4086L309.245 77.1814C312.703 78.9875 316.587 79.88 320.873 79.88V77.88ZM310.171 75.4086C307.024 73.7652 304.576 71.5043 302.805 68.6215L301.101 69.6685C303.069 72.8724 305.792 75.3782 309.245 77.1814L310.171 75.4086ZM302.808 68.626C301.039 65.7132 300.148 62.43 300.148 58.75H298.148C298.148 62.77 299.126 66.4168 301.098 69.664L302.808 68.626ZM300.148 58.75C300.148 55.0699 301.039 51.8071 302.805 48.9335L301.101 47.8865C299.126 51.0996 298.148 54.7301 298.148 58.75H300.148ZM302.808 48.929C304.58 46.0102 307.027 43.7332 310.171 42.0914L309.245 40.3186C305.789 42.1234 303.066 44.6497 301.098 47.891L302.808 48.929ZM310.171 42.0914C313.312 40.4508 316.872 39.62 320.873 39.62V37.62C316.587 37.62 312.703 38.5125 309.245 40.3186L310.171 42.0914ZM320.873 39.62C324.873 39.62 328.433 40.4508 331.575 42.0914L332.501 40.3186C329.042 38.5125 325.159 37.62 320.873 37.62V39.62ZM331.575 42.0914C334.719 43.7332 337.166 46.0102 338.938 48.929L340.648 47.891C338.68 44.6497 335.957 42.1234 332.501 40.3186L331.575 42.0914ZM338.941 48.9335C340.706 51.8071 341.598 55.0699 341.598 58.75H343.598C343.598 54.7301 342.619 51.0996 340.645 47.8865L338.941 48.9335ZM341.598 58.75C341.598 62.43 340.706 65.7132 338.938 68.626L340.648 69.664C342.619 66.4168 343.598 62.77 343.598 58.75H341.598ZM338.941 68.6215C337.169 71.5043 334.722 73.7652 331.575 75.4086L332.501 77.1814C335.954 75.3782 338.676 72.8724 340.645 69.6685L338.941 68.6215ZM331.575 75.4086C328.433 77.0492 324.873 77.88 320.873 77.88V79.88C325.159 79.88 329.042 78.9875 332.501 77.1814L331.575 75.4086ZM320.873 69.375C322.653 69.375 324.281 68.948 325.732 68.0775L324.703 66.3625C323.587 67.032 322.319 67.375 320.873 67.375V69.375ZM325.739 68.0733C327.218 67.1696 328.384 65.917 329.233 64.3391L327.472 63.3909C326.782 64.673 325.857 65.6571 324.696 66.3667L325.739 68.0733ZM329.238 64.3298C330.095 62.6969 330.508 60.8272 330.508 58.75H328.508C328.508 60.5594 328.15 62.0998 327.467 63.4002L329.238 64.3298ZM330.508 58.75C330.508 56.6736 330.096 54.8177 329.233 53.2159L327.472 54.1641C328.15 55.4223 328.508 56.9398 328.508 58.75H330.508ZM329.238 53.2252C328.389 51.6069 327.217 50.3437 325.722 49.4712L324.714 51.1988C325.858 51.8663 326.777 52.8398 327.467 54.1548L329.238 53.2252ZM325.75 49.4884C324.297 48.575 322.662 48.125 320.873 48.125V50.125C322.31 50.125 323.572 50.4817 324.686 51.1816L325.75 49.4884ZM320.873 48.125C319.084 48.125 317.435 48.5749 315.951 49.4817L316.994 51.1883C318.15 50.4818 319.435 50.125 320.873 50.125V48.125ZM315.958 49.4775C314.501 50.3518 313.353 51.6139 312.507 53.2252L314.278 54.1548C314.972 52.8327 315.878 51.8582 316.987 51.1925L315.958 49.4775ZM312.512 53.2159C311.65 54.8177 311.238 56.6736 311.238 58.75H313.238C313.238 56.9398 313.596 55.4223 314.273 54.1641L312.512 53.2159ZM311.238 58.75C311.238 60.8272 311.65 62.6969 312.507 64.3298L314.278 63.4002C313.595 62.0998 313.238 60.5594 313.238 58.75H311.238ZM312.512 64.3391C313.358 65.9101 314.5 67.1614 315.941 68.0666L317.005 66.3734C315.878 65.6652 314.967 64.6799 314.273 63.3909L312.512 64.3391ZM315.969 68.0838C317.45 68.948 319.093 69.375 320.873 69.375V67.375C319.426 67.375 318.135 67.032 316.977 66.3562L315.969 68.0838ZM385.259 39.5H386.259V38.5H385.259V39.5ZM385.259 78V79H386.259V78H385.259ZM374.589 78L373.822 78.6416L374.122 79H374.589V78ZM359.959 60.51L360.726 59.8684L358.959 57.7559V60.51H359.959ZM359.959 78V79H360.959V78H359.959ZM347.309 78H346.309V79H347.309V78ZM347.309 39.5V38.5H346.309V39.5H347.309ZM357.979 39.5L358.746 38.8584L358.446 38.5H357.979V39.5ZM372.609 56.99L371.842 57.6316L373.609 59.7441V56.99H372.609ZM372.609 39.5V38.5H371.609V39.5H372.609ZM384.259 39.5V78H386.259V39.5H384.259ZM385.259 77H374.589V79H385.259V77ZM375.356 77.3584L360.726 59.8684L359.192 61.1516L373.822 78.6416L375.356 77.3584ZM358.959 60.51V78H360.959V60.51H358.959ZM359.959 77H347.309V79H359.959V77ZM348.309 78V39.5H346.309V78H348.309ZM347.309 40.5H357.979V38.5H347.309V40.5ZM357.212 40.1416L371.842 57.6316L373.376 56.3484L358.746 38.8584L357.212 40.1416ZM373.609 56.99V39.5H371.609V56.99H373.609ZM372.609 40.5H385.259V38.5H372.609V40.5ZM454.158 39.5L455.11 39.8048L455.528 38.5H454.158V39.5ZM441.838 78V79H442.568L442.79 78.3048L441.838 78ZM427.923 78L426.966 78.2892L427.18 79H427.923V78ZM421.708 57.43L422.665 57.1408L421.733 54.0543L420.755 57.1268L421.708 57.43ZM415.163 78V79H415.894L416.116 78.3032L415.163 78ZM401.248 78L400.296 78.3048L400.518 79H401.248V78ZM388.928 39.5V38.5H387.558L387.976 39.8048L388.928 39.5ZM402.293 39.5L403.249 39.2069L403.032 38.5H402.293V39.5ZM409.003 61.39L408.047 61.6831L408.976 64.7153L409.954 61.6983L409.003 61.39ZM416.098 39.5V38.5H415.371L415.147 39.1917L416.098 39.5ZM428.033 39.5L428.99 39.2103L428.775 38.5H428.033V39.5ZM434.743 61.665L433.786 61.9547L434.716 65.0284L435.695 61.9699L434.743 61.665ZM441.838 39.5V38.5H441.108L440.886 39.1951L441.838 39.5ZM453.206 39.1952L440.886 77.6952L442.79 78.3048L455.11 39.8048L453.206 39.1952ZM441.838 77H427.923V79H441.838V77ZM428.88 77.7108L422.665 57.1408L420.751 57.7192L426.966 78.2892L428.88 77.7108ZM420.755 57.1268L414.21 77.6968L416.116 78.3032L422.661 57.7332L420.755 57.1268ZM415.163 77H401.248V79H415.163V77ZM402.2 77.6952L389.88 39.1952L387.976 39.8048L400.296 78.3048L402.2 77.6952ZM388.928 40.5H402.293V38.5H388.928V40.5ZM401.337 39.7931L408.047 61.6831L409.959 61.0969L403.249 39.2069L401.337 39.7931ZM409.954 61.6983L417.049 39.8083L415.147 39.1917L408.052 61.0817L409.954 61.6983ZM416.098 40.5H428.033V38.5H416.098V40.5ZM427.076 39.7897L433.786 61.9547L435.7 61.3753L428.99 39.2103L427.076 39.7897ZM435.695 61.9699L442.79 39.8049L440.886 39.1951L433.791 61.3601L435.695 61.9699ZM441.838 40.5H454.158V38.5H441.838V40.5ZM465.469 76.295L465.932 75.4086L465.932 75.4086L465.469 76.295ZM457.714 69.145L456.86 69.664L456.862 69.6685L457.714 69.145ZM457.714 48.41L458.566 48.9335L458.569 48.929L457.714 48.41ZM487.799 41.205L488.262 40.3186L488.262 40.3186L487.799 41.205ZM495.554 48.41L494.7 48.929L494.702 48.9335L495.554 48.41ZM495.554 69.145L496.406 69.6685L496.409 69.664L495.554 69.145ZM487.799 76.295L488.262 77.1814L488.262 77.1814L487.799 76.295ZM480.979 67.22L481.494 68.0775L481.501 68.0733L480.979 67.22ZM484.114 63.865L484.995 64.3391L485 64.3298L484.114 63.865ZM484.114 53.69L483.229 54.1549L483.234 54.1641L484.114 53.69ZM480.979 50.335L480.447 51.1816L480.461 51.1904L480.476 51.1988L480.979 50.335ZM472.234 50.335L472.749 51.1925L472.756 51.1883L472.234 50.335ZM469.154 53.69L470.035 54.1641L470.04 54.1548L469.154 53.69ZM469.154 63.865L468.269 64.3299L468.274 64.3391L469.154 63.865ZM472.234 67.22L471.702 68.0666L471.716 68.0754L471.731 68.0838L472.234 67.22ZM476.634 77.88C472.634 77.88 469.074 77.0492 465.932 75.4086L465.007 77.1814C468.465 78.9875 472.348 79.88 476.634 79.88V77.88ZM465.932 75.4086C462.785 73.7652 460.338 71.5043 458.566 68.6215L456.862 69.6685C458.831 72.8724 461.554 75.3782 465.007 77.1814L465.932 75.4086ZM458.569 68.626C456.801 65.7132 455.909 62.43 455.909 58.75H453.909C453.909 62.77 454.888 66.4168 456.86 69.664L458.569 68.626ZM455.909 58.75C455.909 55.0699 456.801 51.8071 458.566 48.9335L456.862 47.8865C454.888 51.0996 453.909 54.7301 453.909 58.75H455.909ZM458.569 48.929C460.341 46.0102 462.788 43.7332 465.932 42.0914L465.007 40.3186C461.55 42.1234 458.828 44.6497 456.86 47.891L458.569 48.929ZM465.932 42.0914C469.074 40.4508 472.634 39.62 476.634 39.62V37.62C472.348 37.62 468.465 38.5125 465.007 40.3186L465.932 42.0914ZM476.634 39.62C480.635 39.62 484.195 40.4508 487.337 42.0914L488.262 40.3186C484.804 38.5125 480.921 37.62 476.634 37.62V39.62ZM487.337 42.0914C490.48 43.7332 492.928 46.0102 494.7 48.929L496.409 47.891C494.441 44.6497 491.718 42.1234 488.262 40.3186L487.337 42.0914ZM494.702 48.9335C496.468 51.8071 497.359 55.0699 497.359 58.75H499.359C499.359 54.7301 498.381 51.0996 496.406 47.8865L494.702 48.9335ZM497.359 58.75C497.359 62.43 496.468 65.7132 494.7 68.626L496.409 69.664C498.381 66.4168 499.359 62.77 499.359 58.75H497.359ZM494.702 68.6215C492.931 71.5043 490.484 73.7652 487.337 75.4086L488.262 77.1814C491.715 75.3782 494.438 72.8724 496.406 69.6685L494.702 68.6215ZM487.337 75.4086C484.195 77.0492 480.635 77.88 476.634 77.88V79.88C480.921 79.88 484.804 78.9875 488.262 77.1814L487.337 75.4086ZM476.634 69.375C478.414 69.375 480.043 68.948 481.494 68.0775L480.465 66.3625C479.349 67.032 478.081 67.375 476.634 67.375V69.375ZM481.501 68.0733C482.98 67.1696 484.145 65.917 484.995 64.3391L483.234 63.3909C482.544 64.673 481.619 65.6571 480.458 66.3667L481.501 68.0733ZM485 64.3298C485.857 62.6969 486.269 60.8272 486.269 58.75H484.269C484.269 60.5594 483.912 62.0998 483.229 63.4002L485 64.3298ZM486.269 58.75C486.269 56.6736 485.857 54.8177 484.995 53.2159L483.234 54.1641C483.911 55.4223 484.269 56.9398 484.269 58.75H486.269ZM485 53.2252C484.15 51.6069 482.979 50.3437 481.483 49.4712L480.476 51.1988C481.62 51.8663 482.539 52.8398 483.229 54.1548L485 53.2252ZM481.512 49.4884C480.058 48.575 478.423 48.125 476.634 48.125V50.125C478.072 50.125 479.334 50.4817 480.447 51.1816L481.512 49.4884ZM476.634 48.125C474.845 48.125 473.197 48.5749 471.713 49.4817L472.756 51.1883C473.912 50.4818 475.197 50.125 476.634 50.125V48.125ZM471.72 49.4775C470.263 50.3518 469.115 51.6139 468.269 53.2252L470.04 54.1548C470.734 52.8327 471.639 51.8582 472.749 51.1925L471.72 49.4775ZM468.274 53.2159C467.411 54.8177 466.999 56.6736 466.999 58.75H468.999C468.999 56.9398 469.357 55.4223 470.035 54.1641L468.274 53.2159ZM466.999 58.75C466.999 60.8272 467.412 62.6969 468.269 64.3298L470.04 63.4002C469.357 62.0998 468.999 60.5594 468.999 58.75H466.999ZM468.274 64.3391C469.12 65.9101 470.262 67.1614 471.702 68.0666L472.767 66.3734C471.64 65.6652 470.729 64.6799 470.035 63.3909L468.274 64.3391ZM471.731 68.0838C473.212 68.948 474.854 69.375 476.634 69.375V67.375C475.188 67.375 473.897 67.032 472.738 66.3562L471.731 68.0838ZM512.091 76.295L512.553 75.4086L512.553 75.4086L512.091 76.295ZM504.336 69.145L503.481 69.664L503.484 69.6685L504.336 69.145ZM504.336 48.41L505.188 48.9335L505.19 48.929L504.336 48.41ZM534.421 41.205L534.883 40.3186L534.883 40.3186L534.421 41.205ZM542.176 48.41L541.321 48.929L541.324 48.9335L542.176 48.41ZM542.176 69.145L543.028 69.6685L543.03 69.664L542.176 69.145ZM534.421 76.295L534.883 77.1814L534.883 77.1814L534.421 76.295ZM527.601 67.22L528.115 68.0775L528.122 68.0733L527.601 67.22ZM530.736 63.865L531.616 64.3391L531.621 64.3298L530.736 63.865ZM530.736 53.69L529.85 54.1549L529.855 54.1641L530.736 53.69ZM527.601 50.335L527.068 51.1816L527.082 51.1904L527.097 51.1988L527.601 50.335ZM518.856 50.335L519.37 51.1925L519.377 51.1883L518.856 50.335ZM515.776 53.69L516.656 54.1641L516.661 54.1548L515.776 53.69ZM515.776 63.865L514.89 64.3299L514.895 64.3391L515.776 63.865ZM518.856 67.22L518.323 68.0666L518.337 68.0754L518.352 68.0838L518.856 67.22ZM523.256 77.88C519.255 77.88 515.695 77.0492 512.553 75.4086L511.628 77.1814C515.086 78.9875 518.97 79.88 523.256 79.88V77.88ZM512.553 75.4086C509.406 73.7652 506.959 71.5043 505.188 68.6215L503.484 69.6685C505.452 72.8724 508.175 75.3782 511.628 77.1814L512.553 75.4086ZM505.19 68.626C503.422 65.7132 502.531 62.43 502.531 58.75H500.531C500.531 62.77 501.509 66.4168 503.481 69.664L505.19 68.626ZM502.531 58.75C502.531 55.0699 503.422 51.8071 505.188 48.9335L503.484 47.8865C501.509 51.0996 500.531 54.7301 500.531 58.75H502.531ZM505.19 48.929C506.962 46.0102 509.41 43.7332 512.553 42.0914L511.628 40.3186C508.172 42.1234 505.449 44.6497 503.481 47.891L505.19 48.929ZM512.553 42.0914C515.695 40.4508 519.255 39.62 523.256 39.62V37.62C518.97 37.62 515.086 38.5125 511.628 40.3186L512.553 42.0914ZM523.256 39.62C527.256 39.62 530.816 40.4508 533.958 42.0914L534.883 40.3186C531.425 38.5125 527.542 37.62 523.256 37.62V39.62ZM533.958 42.0914C537.102 43.7332 539.549 46.0102 541.321 48.929L543.03 47.891C541.062 44.6497 538.34 42.1234 534.883 40.3186L533.958 42.0914ZM541.324 48.9335C543.089 51.8071 543.981 55.0699 543.981 58.75H545.981C545.981 54.7301 545.002 51.0996 543.028 47.8865L541.324 48.9335ZM543.981 58.75C543.981 62.43 543.089 65.7132 541.321 68.626L543.03 69.664C545.002 66.4168 545.981 62.77 545.981 58.75H543.981ZM541.324 68.6215C539.552 71.5043 537.105 73.7652 533.958 75.4086L534.883 77.1814C538.336 75.3782 541.059 72.8724 543.028 69.6685L541.324 68.6215ZM533.958 75.4086C530.816 77.0492 527.256 77.88 523.256 77.88V79.88C527.542 79.88 531.425 78.9875 534.883 77.1814L533.958 75.4086ZM523.256 69.375C525.035 69.375 526.664 68.948 528.115 68.0775L527.086 66.3625C525.97 67.032 524.702 67.375 523.256 67.375V69.375ZM528.122 68.0733C529.601 67.1696 530.766 65.917 531.616 64.3391L529.855 63.3909C529.165 64.673 528.24 65.6571 527.079 66.3667L528.122 68.0733ZM531.621 64.3298C532.478 62.6969 532.891 60.8272 532.891 58.75H530.891C530.891 60.5594 530.533 62.0998 529.85 63.4002L531.621 64.3298ZM532.891 58.75C532.891 56.6736 532.479 54.8177 531.616 53.2159L529.855 54.1641C530.533 55.4223 530.891 56.9398 530.891 58.75H532.891ZM531.621 53.2252C530.771 51.6069 529.6 50.3437 528.104 49.4712L527.097 51.1988C528.241 51.8663 529.16 52.8398 529.85 54.1548L531.621 53.2252ZM528.133 49.4884C526.68 48.575 525.045 48.125 523.256 48.125V50.125C524.693 50.125 525.955 50.4817 527.068 51.1816L528.133 49.4884ZM523.256 48.125C521.466 48.125 519.818 48.5749 518.334 49.4817L519.377 51.1883C520.533 50.4818 521.818 50.125 523.256 50.125V48.125ZM518.341 49.4775C516.884 50.3518 515.736 51.6139 514.89 53.2252L516.661 54.1548C517.355 52.8327 518.26 51.8582 519.37 51.1925L518.341 49.4775ZM514.895 53.2159C514.033 54.8177 513.621 56.6736 513.621 58.75H515.621C515.621 56.9398 515.979 55.4223 516.656 54.1641L514.895 53.2159ZM513.621 58.75C513.621 60.8272 514.033 62.6969 514.89 64.3298L516.661 63.4002C515.978 62.0998 515.621 60.5594 515.621 58.75H513.621ZM514.895 64.3391C515.741 65.9101 516.883 67.1614 518.323 68.0666L519.388 66.3734C518.261 65.6652 517.35 64.6799 516.656 63.3909L514.895 64.3391ZM518.352 68.0838C519.833 68.948 521.475 69.375 523.256 69.375V67.375C521.809 67.375 520.518 67.032 519.359 66.3562L518.352 68.0838ZM549.692 39.5V38.5H548.692V39.5H549.692ZM579.997 41.865L579.562 42.7655L579.574 42.7712L579.997 41.865ZM587.642 48.52L586.792 49.0471L586.797 49.0548L587.642 48.52ZM587.642 68.98L586.797 68.4452L586.792 68.4529L587.642 68.98ZM579.997 75.69L580.423 76.5944L580.428 76.5923L579.997 75.69ZM549.692 78H548.692V79H549.692V78ZM574.772 65.515L575.462 66.238L575.463 66.2376L574.772 65.515ZM574.772 52.04L574.073 52.755L574.081 52.7629L574.089 52.7705L574.772 52.04ZM562.672 49.62V48.62H561.672V49.62H562.672ZM562.672 67.88H561.672V68.88H562.672V67.88ZM549.692 40.5H568.667V38.5H549.692V40.5ZM568.667 40.5C572.833 40.5 576.457 41.2653 579.562 42.7654L580.432 40.9646C577.01 39.3114 573.08 38.5 568.667 38.5V40.5ZM579.574 42.7712C582.71 44.2349 585.105 46.327 586.792 49.0471L588.491 47.9929C586.585 44.9196 583.883 42.5751 580.42 40.9588L579.574 42.7712ZM586.797 49.0548C588.515 51.7693 589.392 54.988 589.392 58.75H591.392C591.392 54.6653 590.435 51.064 588.487 47.9852L586.797 49.0548ZM589.392 58.75C589.392 62.512 588.515 65.7307 586.797 68.4452L588.487 69.5148C590.435 66.436 591.392 62.8347 591.392 58.75H589.392ZM586.792 68.4529C585.103 71.1751 582.706 73.2872 579.566 74.7877L580.428 76.5923C583.887 74.9395 586.587 72.5783 588.491 69.5071L586.792 68.4529ZM579.57 74.7856C576.463 76.2519 572.837 77 568.667 77V79C573.077 79 577.004 78.2081 580.423 76.5944L579.57 74.7856ZM568.667 77H549.692V79H568.667V77ZM550.692 78V39.5H548.692V78H550.692ZM568.117 68.88C571.101 68.88 573.587 68.0301 575.462 66.238L574.081 64.792C572.656 66.1533 570.706 66.88 568.117 66.88V68.88ZM575.463 66.2376C577.392 64.3921 578.302 61.8494 578.302 58.75H576.302C576.302 61.4439 575.524 63.4112 574.08 64.7924L575.463 66.2376ZM578.302 58.75C578.302 55.6516 577.393 53.1211 575.455 51.3095L574.089 52.7705C575.524 54.1122 576.302 56.0551 576.302 58.75H578.302ZM575.471 51.325C573.596 49.4922 571.107 48.62 568.117 48.62V50.62C570.7 50.62 572.647 51.3611 574.073 52.755L575.471 51.325ZM568.117 48.62H562.672V50.62H568.117V48.62ZM561.672 49.62V67.88H563.672V49.62H561.672ZM562.672 68.88H568.117V66.88H562.672V68.88ZM594.057 76.57L593.35 77.2771L593.359 77.2867L593.369 77.296L594.057 76.57ZM594.057 66.34L594.744 67.0665L594.745 67.066L594.057 66.34ZM604.452 66.34L603.755 67.0567L603.764 67.0663L603.774 67.0755L604.452 66.34ZM604.452 76.57L605.149 77.2867L605.149 77.2865L604.452 76.57ZM599.282 77.55C597.423 77.55 595.935 76.9717 594.745 75.844L593.369 77.296C594.966 78.8083 596.961 79.55 599.282 79.55V77.55ZM594.764 75.8629C593.613 74.7114 593.022 73.2509 593.022 71.4H591.022C591.022 73.7291 591.788 75.7152 593.35 77.2771L594.764 75.8629ZM593.022 71.4C593.022 69.5487 593.612 68.1375 594.744 67.0665L593.37 65.6135C591.789 67.1092 591.022 69.0713 591.022 71.4H593.022ZM594.745 67.066C595.935 65.9383 597.423 65.36 599.282 65.36V63.36C596.961 63.36 594.966 64.1017 593.369 65.614L594.745 67.066ZM599.282 65.36C601.141 65.36 602.605 65.938 603.755 67.0567L605.149 65.6233C603.586 64.102 601.603 63.36 599.282 63.36V65.36ZM603.774 67.0755C604.94 68.1488 605.542 69.5574 605.542 71.4H607.542C607.542 69.0626 606.751 67.0978 605.129 65.6045L603.774 67.0755ZM605.542 71.4C605.542 73.2425 604.939 74.7002 603.754 75.8535L605.149 77.2865C606.752 75.7265 607.542 73.7375 607.542 71.4H605.542ZM603.755 75.8533C602.605 76.972 601.141 77.55 599.282 77.55V79.55C601.603 79.55 603.586 78.808 605.149 77.2867L603.755 75.8533Z" fill="#1B1A1A" fill-opacity="0.2"/>
</svg>
