<svg width="86" height="39" viewBox="0 0 86 39" fill="none" xmlns="http://www.w3.org/2000/svg">
<path d="M23.3492 18.56C23.0412 17.68 22.9532 16.492 22.0292 16.096C21.5012 15.876 21.2812 15.216 20.0932 15.216C18.1132 15.216 17.5852 18.252 17.2332 19.044C16.1772 21.728 15.8252 22.476 14.9892 24.016C14.5492 24.94 10.8532 25.644 10.1052 25.644C7.50919 25.644 6.80519 22.256 6.80519 21.552C6.89319 21.376 6.93719 21.2 6.93719 21.024L6.89319 20.276C6.89319 20.1 7.42119 19.572 7.55319 19.396L7.50919 19.44C8.03719 18.78 8.21319 17.504 8.21319 17.02C8.78519 16.448 10.0612 15.348 10.2372 14.248C10.3692 13.764 10.1932 13.588 10.8532 13.104C11.0732 12.884 11.3812 12.752 11.6012 12.444L13.1852 10.596C13.8452 9.892 14.5052 8.836 15.5172 8.836C16.0452 8.836 16.3092 8.572 16.6612 8.572C16.9692 8.572 17.3652 8.748 17.7172 8.748C18.9492 8.748 20.7092 7.736 20.7092 6.636C20.7092 6.284 20.5772 5.976 20.5772 5.58L20.6212 5.096C20.6212 3.556 17.9372 3.6 18.1572 3.6C17.2772 3.6 16.4412 3.908 15.6052 4.084C15.6492 4.084 15.6492 4.084 15.6932 4.04C14.5052 4.26 13.0532 4.568 12.1732 4.92C7.11319 6.9 2.31719 14.424 0.909188 19C0.601188 19.88 0.469188 20.892 0.469188 21.992C0.469188 25.688 2.40519 31.232 7.15719 31.232C9.40119 31.232 11.9092 29.868 14.0212 29.868L14.5052 29.912C14.2852 31.188 14.9452 30 14.7252 38.052C14.7252 38.14 15.6492 38.404 15.7812 38.404C16.4412 38.404 16.7052 36.776 16.9252 36.292C16.9692 36.16 17.2332 35.588 17.3652 35.368C18.3332 33.256 18.9052 32.904 18.9052 31.892C18.9052 30.572 20.7092 27.096 21.7652 24.632C22.5132 22.916 23.3932 20.892 23.3932 19.264C23.3932 18.956 23.3932 18.692 23.3492 18.56ZM48.5443 17.064C48.1923 15.348 47.7523 13.632 46.7403 12.092C45.9923 10.64 44.5403 9.716 43.4843 8.528C42.2523 7.164 41.2403 6.064 39.5243 6.064C38.2483 6.064 35.8723 7.032 35.6963 7.208C35.0363 7.604 34.2443 7.604 33.4083 8.132C28.8323 11.432 25.7963 18.648 25.7963 22.96C25.7963 28.636 31.5603 32.156 36.1363 32.288C44.4963 32.288 49.0283 24.456 49.0283 19.704C48.5443 18.868 48.6763 17.944 48.5443 17.064ZM43.4843 20.716C43.2643 21.728 42.8683 22.828 42.2083 23.664V23.62C40.4923 25.908 39.3483 27.36 35.7403 27.36C33.9803 27.36 30.8123 26.832 30.8123 23.884C30.8123 19.264 34.2883 14.204 36.9723 12.092C37.1043 11.96 37.2803 11.916 37.5883 11.916L38.2483 11.96C38.7323 11.96 38.9963 11.916 39.4803 11.696C41.7243 13.5 43.7483 15.084 43.7483 18.648C43.7483 19.396 43.6603 20.056 43.4843 20.716ZM64.0523 30.308L64.0083 30.088L64.1403 29.956L64.0963 29.78L64.0083 29.824L64.0523 29.252L63.3923 28.592L59.1683 28.856L58.0683 28.768L57.3643 28.592L56.7923 28.24L56.4403 27.58L56.0443 25.996L56.0003 25.468C56.0003 25.424 56.0003 25.424 56.0003 25.38L55.9563 25.292C56.0003 25.248 56.2203 22.872 56.4843 21.86C56.7043 20.848 56.8363 20.056 57.0563 19.792L57.1003 19.484L57.2323 19.308C58.8163 15.04 58.3323 16.228 58.7283 15.26L58.7723 14.82C59.6523 11.608 59.9163 11.432 60.0043 11.388L60.1803 11.036C60.8843 7.12 61.2363 7.252 61.2363 5.184C61.2363 2.544 58.9923 1.488 58.4203 0.915999L58.0243 0.783998C57.9803 0.783998 57.9803 0.783998 57.9803 0.783998L57.5403 0.739999C56.5723 0.739999 56.5723 1.576 56.5283 1.576C56.5283 1.576 56.5283 1.532 56.5283 1.444L56.5723 1.488L56.2643 1.972V2.192C55.6043 2.852 55.6043 4.48 55.5163 4.7C55.5163 4.744 55.5163 4.832 55.5163 4.876V4.92C55.5163 5.536 54.5923 7.34 54.5923 7.56C51.6883 18.868 51.1603 21.332 50.7643 23.84V24.148C50.7643 24.192 50.7643 24.324 50.7203 24.544V25.116L50.8083 25.556C50.7203 25.644 50.7643 25.82 50.7643 25.908L50.8963 26.304C50.8963 26.48 50.9403 26.7 50.9843 26.92V27.184C51.1603 27.58 51.1603 27.932 51.4683 28.416L51.6883 28.944L52.4363 30.044L53.5803 31.056L54.9443 31.848L56.6163 32.42L58.5963 32.64L60.1363 32.376L61.6763 31.98L63.3923 31.32L64.0523 30.572L64.0083 30.308H64.0523ZM55.5603 4.656C55.6043 4.612 55.6043 4.568 55.6483 4.524L55.5603 4.656ZM85.2627 13.016C84.3387 9.804 82.7107 7.648 79.0587 5.36C77.8707 4.656 75.7147 3.952 74.9667 3.952L73.5587 4.216H72.8987C71.6227 4.216 71.1387 5.404 70.0827 5.756C69.0707 6.108 68.8947 7.252 68.7627 8.264C68.5867 10.332 67.7067 12.136 67.3987 14.116C67.2667 14.644 67.1787 15.04 67.0027 15.7C66.4307 19.572 65.3307 23.62 65.3307 27.492C64.9787 28.328 64.3187 29.252 64.3187 30.176C64.3187 31.1 65.1547 31.32 65.4627 31.32C65.6827 31.32 65.9027 31.188 66.0347 31.188C66.1667 31.364 66.2547 31.54 66.4307 31.54C66.4747 31.54 66.5187 31.54 66.5627 31.496C66.7827 31.716 67.0027 31.804 67.2227 31.804C67.3107 31.804 67.3987 31.804 67.4427 31.76C67.4867 31.804 67.5307 31.804 67.6187 31.804L67.9267 31.76C68.0587 31.76 68.1907 31.804 68.2347 31.892V31.848C68.4547 31.98 68.8067 32.2 69.0267 32.2C69.2467 32.2 70.5227 31.936 70.5227 31.716C70.4787 31.716 70.4787 31.716 70.4787 31.76L70.5667 31.672H70.6547C71.0507 31.496 71.5347 31.584 71.9307 31.452C72.4147 31.32 72.8987 30.924 73.3827 30.704C78.5307 28.24 85.3067 22.388 85.3067 18.12C85.4387 17.284 85.7027 16.58 85.7027 15.7C85.7027 14.776 85.5707 13.896 85.2627 13.016ZM80.6867 17.152C79.9827 22.168 73.5587 25.688 70.3907 26.876C70.3907 24.148 71.5787 21.156 72.0627 18.076C72.2387 16.712 72.5027 15.392 72.8107 14.028C73.0307 12.84 73.4267 11.564 73.4267 10.376C73.5587 10.024 74.3067 9.76 74.6147 9.628C77.3867 10.552 79.6307 11.168 80.5547 14.864C80.6867 15.392 80.7747 15.876 80.7747 16.272C80.7747 16.58 80.7307 16.844 80.6867 17.152Z" fill="#DDD9B7"/>
</svg>
