<svg width="107" height="120" viewBox="0 0 107 120" fill="none" xmlns="http://www.w3.org/2000/svg">
<path d="M104.155 50.2C102.555 42.4 100.555 34.6 95.9547 27.6C92.5547 21 85.9547 16.8 81.1547 11.4C75.5547 5.19999 70.9547 0.199994 63.1547 0.199994C57.3547 0.199994 46.5547 4.6 45.7547 5.4C42.7547 7.2 39.1547 7.2 35.3547 9.6C14.5547 24.6 0.754688 57.4 0.754688 77C0.754688 102.8 26.9547 118.8 47.7547 119.4C85.7547 119.4 106.355 83.8 106.355 62.2C104.155 58.4 104.755 54.2 104.155 50.2ZM81.1547 66.8C80.1547 71.4 78.3547 76.4 75.3547 80.2V80C67.5547 90.4 62.3547 97 45.9547 97C37.9547 97 23.5547 94.6 23.5547 81.2C23.5547 60.2 39.3547 37.2 51.5547 27.6C52.1547 27 52.9547 26.8 54.3547 26.8L57.3547 27C59.5547 27 60.7547 26.8 62.9547 25.8C73.1547 34 82.3547 41.2 82.3547 57.4C82.3547 60.8 81.9547 63.8 81.1547 66.8Z" fill="#1B1A1A" fill-opacity="0.2"/>
</svg>
