<svg width="92" height="136" viewBox="0 0 92 136" fill="none" xmlns="http://www.w3.org/2000/svg">
<path d="M90.9055 30.4V29.4C90.9055 12.8 66.1055 1.19999 50.9055 1.19999L43.5055 0.799995C34.7055 0.799995 16.5055 9.8 16.5055 16.8L17.7055 26.8C17.7055 31.8 16.1055 36.8 14.3055 41.6C12.5055 46.2 11.7055 51.8 10.7055 56.8C6.10547 76.8 0.305469 97.8 0.305469 117.8C0.305469 120.8 0.105469 135.2 8.90547 135.2C13.5055 135.2 16.7055 129.2 18.9055 126L19.7055 124.8C24.3055 113.4 28.1055 102.8 30.5055 91.4C31.1055 88.2 41.9055 78.8 41.3055 79.4C42.1055 78.4 42.3055 78.6 43.3055 78C59.1055 72.2 86.5055 58.8 90.7055 42C90.9055 41.2 90.9055 40.4 91.1055 39.8C91.1055 40 90.9055 40.2 90.7055 40.4C90.9055 39 91.1055 38.4 91.1055 37C91.3055 37.2 91.3055 37.6 91.3055 38.2C91.5055 36.8 91.7055 35.8 91.7055 34.4L90.9055 30.4ZM73.3055 38.6C72.3055 44 65.9055 48.6 61.9055 52C54.7055 57.6 47.1055 62 38.3055 64.4C40.5055 53.2 43.1055 43.2 44.1055 32C44.3055 27 45.3055 25.2 53.3055 25.2C54.7055 25.2 55.5055 25.4 56.9055 25.6H56.7055C63.7055 26.2 73.3055 31.8 73.3055 37.6V38.6Z" fill="#1B1A1A" fill-opacity="0.2"/>
</svg>
