<svg width="164" height="36" viewBox="0 0 164 36" fill="none" xmlns="http://www.w3.org/2000/svg">
<path d="M20.625 11.728V11.508C20.625 7.856 15.169 5.304 11.825 5.304L10.197 5.216C8.26098 5.216 4.25698 7.196 4.25698 8.736L4.52098 10.936C4.52098 12.036 4.16898 13.136 3.77298 14.192C3.37698 15.204 3.20098 16.436 2.98098 17.536C1.96898 21.936 0.692984 26.556 0.692984 30.956C0.692984 31.616 0.648984 34.784 2.58498 34.784C3.59698 34.784 4.30098 33.464 4.78498 32.76L4.96098 32.496C5.97298 29.988 6.80898 27.656 7.33698 25.148C7.46898 24.444 9.84498 22.376 9.71298 22.508C9.88898 22.288 9.93299 22.332 10.153 22.2C13.629 20.924 19.657 17.976 20.581 14.28C20.625 14.104 20.625 13.928 20.669 13.796C20.669 13.84 20.625 13.884 20.581 13.928C20.625 13.62 20.669 13.488 20.669 13.18C20.713 13.224 20.713 13.312 20.713 13.444C20.757 13.136 20.801 12.916 20.801 12.608L20.625 11.728ZM16.753 13.532C16.533 14.72 15.125 15.732 14.245 16.48C12.661 17.712 10.989 18.68 9.05298 19.208C9.53698 16.744 10.109 14.544 10.329 12.08C10.373 10.98 10.593 10.584 12.353 10.584C12.661 10.584 12.837 10.628 13.145 10.672H13.101C14.641 10.804 16.753 12.036 16.753 13.312V13.532ZM33.2066 31.308L33.1626 31.088L33.2946 30.956L33.2506 30.78L33.1626 30.824L33.2066 30.252L32.5466 29.592L28.3226 29.856L27.2226 29.768L26.5186 29.592L25.9466 29.24L25.5946 28.58L25.1986 26.996L25.1546 26.468C25.1546 26.424 25.1546 26.424 25.1546 26.38L25.1106 26.292C25.1546 26.248 25.3746 23.872 25.6386 22.86C25.8586 21.848 25.9906 21.056 26.2106 20.792L26.2546 20.484L26.3866 20.308C27.9706 16.04 27.4866 17.228 27.8826 16.26L27.9266 15.82C28.8066 12.608 29.0706 12.432 29.1586 12.388L29.3346 12.036C30.0386 8.12 30.3906 8.252 30.3906 6.184C30.3906 3.544 28.1466 2.488 27.5746 1.916L27.1786 1.784C27.1346 1.784 27.1346 1.784 27.1346 1.784L26.6946 1.74C25.7266 1.74 25.7266 2.576 25.6826 2.576C25.6826 2.576 25.6826 2.532 25.6826 2.444L25.7266 2.488L25.4186 2.972V3.192C24.7586 3.852 24.7586 5.48 24.6706 5.7C24.6706 5.744 24.6706 5.832 24.6706 5.876V5.92C24.6706 6.536 23.7466 8.34 23.7466 8.56C20.8426 19.868 20.3146 22.332 19.9186 24.84V25.148C19.9186 25.192 19.9186 25.324 19.8746 25.544V26.116L19.9626 26.556C19.8746 26.644 19.9186 26.82 19.9186 26.908L20.0506 27.304C20.0506 27.48 20.0946 27.7 20.1386 27.92V28.184C20.3146 28.58 20.3146 28.932 20.6226 29.416L20.8426 29.944L21.5906 31.044L22.7346 32.056L24.0986 32.848L25.7706 33.42L27.7506 33.64L29.2906 33.376L30.8306 32.98L32.5466 32.32L33.2066 31.572L33.1626 31.308H33.2066ZM24.7146 5.656C24.7586 5.612 24.7586 5.568 24.8026 5.524L24.7146 5.656ZM50.589 8.12C50.369 7.46 50.413 6.712 50.105 6.008C49.445 4.556 47.553 3.544 45.969 3.544C44.077 3.544 42.405 7.768 41.569 10.012C40.293 13.4 38.181 16.436 37.125 19.824C36.817 20.66 36.245 21.012 35.893 21.76C35.893 21.716 35.937 21.716 35.937 21.584C35.761 22.156 35.409 22.728 35.409 23.3L35.497 24.136C35.497 24.796 34.925 25.72 34.749 26.292C34.177 27.92 33.033 30.208 33.033 32.1C33.033 33.332 33.957 34.784 35.189 34.784C37.433 34.784 38.269 30.78 38.489 29.9L38.357 30.12C39.061 28.932 39.545 25.764 40.073 25.676C41.129 25.544 42.669 25.28 43.549 25.28C45.969 25.28 45.045 27.304 45.397 27.524C45.749 30.208 46.541 35.752 47.729 35.752C48.565 35.752 48.609 34.432 48.785 34.432V34.476C48.917 33.816 49.577 33.376 49.577 32.716C49.577 32.54 49.577 32.408 49.533 32.32C49.533 31.66 49.665 31.22 49.665 30.648L49.313 26.424C49.313 26.556 49.269 26.688 49.181 26.776C49.225 26.468 49.269 26.248 49.269 25.94C49.269 25.632 49.225 25.236 49.181 24.928L49.357 23.872C49.313 23.828 49.313 23.74 49.313 23.652V23.388C49.357 23.212 49.445 23.036 49.533 22.86C49.665 22.552 49.753 22.244 49.797 21.936C49.797 21.452 49.401 21.144 49.401 20.792C49.401 20.616 49.489 20.044 49.533 19.912C49.489 19.956 49.445 20 49.445 20.044C49.797 19.12 49.577 18.064 49.929 16.876C50.633 14.412 50.677 11.024 50.677 9C50.677 8.692 50.721 8.428 50.589 8.12ZM45.221 20.132C44.209 20.176 42.845 20.22 41.833 20.22C42.449 17.58 44.429 13.356 45.485 10.76L45.661 15.292C45.661 16.92 45.397 18.592 45.221 20.132ZM49.225 23.652C49.269 23.52 49.313 23.432 49.313 23.388C49.269 23.52 49.225 23.608 49.225 23.652ZM77.9188 8.12C77.9188 6.228 74.3108 6.272 73.2548 6.14L70.2188 6.052C69.4708 6.052 68.8108 6.184 67.9748 6.184L64.8508 6.052L61.7268 6.184L59.7468 6.052C59.6148 6.052 59.4388 6.096 59.1308 6.14L58.2508 5.964L54.6428 6.316C54.5108 6.316 54.3348 6.228 54.1588 6.228C53.8068 6.228 52.4428 6.712 52.4428 7.592C52.4428 10.408 57.6348 10.804 59.5268 10.804H60.4068C61.0668 10.804 61.7268 10.848 61.7268 11.2L61.6388 11.112C61.6828 11.244 61.8148 11.596 61.8588 11.64C61.3748 13.18 61.1548 14.632 60.7588 16.348C60.0988 20.044 59.0868 23.74 59.0868 27.304C59.0868 27.436 59.0868 27.568 59.1308 27.612C58.9988 28.096 58.9548 28.448 58.9548 28.932L58.9988 30.384C58.9988 30.692 58.9988 30.912 58.9548 31.044C58.9548 33.112 58.9108 34.52 60.3188 34.52C60.9788 34.388 62.3868 33.464 62.6508 33.2C63.3988 31.968 63.0028 30.516 63.3548 29.152C63.5748 28.14 63.8828 27.304 64.1028 26.38C65.3348 21.276 66.3028 16.216 67.5788 11.112C67.7108 10.628 70.3068 10.716 71.0108 10.496L71.4068 10.584C71.5388 10.584 71.8028 10.452 72.0228 10.452C72.1108 10.452 72.1548 10.452 72.1988 10.496C72.1988 10.452 72.1988 10.452 72.1548 10.452H72.2428C72.3748 10.496 72.4628 10.54 72.5068 10.54C73.9148 10.54 76.9068 9.44 77.6548 8.604C77.5668 8.736 77.4348 8.78 77.2588 8.78C77.3908 8.648 77.8748 8.34 77.9188 8.12ZM72.2428 10.452C72.1988 10.452 72.1548 10.452 72.1108 10.408L72.2428 10.452ZM61.6388 11.112L61.5948 11.068L61.6388 11.112ZM84.6684 8.032C84.5364 7.064 84.2724 5.7 82.7324 5.7C80.9724 5.7 79.7844 7.592 79.5644 8.076C77.6284 11.42 76.7484 14.236 75.9124 17.008L75.6044 17.756C74.9444 20.528 74.0644 23.344 74.0644 25.764L74.1964 28.492L74.1084 30.34C74.1084 32.1 73.8444 34.168 75.3844 34.168C78.0244 34.168 78.4644 28.932 78.8164 26.82C78.9924 25.236 79.6524 23.872 79.9604 22.772C80.9724 19.076 82.4684 15.16 83.9204 11.816C84.4044 10.628 84.6684 9.748 84.6684 8.34V8.032ZM111.024 2.092C110.892 1.212 110.364 0.859997 109.704 0.859997C106.888 0.859997 106.624 4.116 106.052 6.228C104.82 10.76 104.204 15.292 103.28 19.736C102.972 21.144 102.268 22.684 102.224 24.092C102.18 24.664 101.872 24.928 101.3 24.928C101.08 24.928 99.5844 21.496 99.4964 21.276C98.4404 19.78 97.6484 16.964 96.8124 15.16C96.0644 13.576 95.1844 12.08 94.5244 10.452C94.0404 9.176 92.6764 7.46 91.1364 7.46C89.1124 7.46 88.7164 9.836 88.3644 11.376C87.3524 15.82 86.6924 20.352 85.6364 24.752C85.3284 25.94 85.2404 27.084 84.9324 28.184C84.6244 29.064 84.3604 29.856 84.3604 30.868L84.4484 31.616C84.4484 31.792 84.3164 31.88 84.3164 32.188C84.3164 33.376 85.2404 34.124 85.9004 34.124C88.5404 34.124 89.3764 29.636 89.5084 29.152C90.2564 24.972 91.4004 21.628 92.3244 18.24C93.0284 19.604 93.4244 21.32 94.2604 22.552L96.5044 26.644C97.2524 27.832 98.0884 28.8 98.9684 29.856C99.6724 30.736 100.288 31.968 101.696 31.968C102.708 31.968 103.5 31.176 104.204 30.472C104.864 29.812 106.36 30.164 107.196 28.756C107.944 27.348 108.032 25.632 108.384 24.092C108.912 21.672 108.912 19.34 109.396 16.876C109.44 16.524 109.528 16.084 109.528 15.732L109.44 15.072C109.44 13.884 109.968 12.432 110.144 11.068C110.364 9.44 110.188 7.812 110.496 6.184C110.628 5.48 110.452 4.776 110.628 4.072C110.76 3.412 111.024 2.752 111.024 2.092ZM136.866 10.848C136.998 10.32 137.13 9.704 137.13 9.132C137.13 8.12 136.118 7.152 135.59 7.152C135.194 7.152 134.754 7.504 134.534 7.504C134.05 7.504 133.522 7.328 133.39 7.328C132.994 7.328 132.554 7.636 132.246 7.768C132.29 7.724 132.334 7.724 132.422 7.724C132.202 8.032 131.982 8.296 131.806 8.604C131.762 8.56 131.762 8.472 131.762 8.34C131.762 8.252 131.762 8.164 131.806 8.12C130.97 9.924 129.562 11.332 128.55 13.4C128.374 13.796 128.11 13.972 128.11 14.456C128.242 15.38 128.682 16.172 128.682 17.052C128.682 20.176 126.658 24.136 125.602 25.94C125.118 26.644 124.59 27.568 123.666 27.568C123.578 27.568 123.446 27.524 123.27 27.48H123.402C121.554 27.128 121.862 25.236 121.158 24.664C120.586 24.312 120.454 22.42 120.454 21.848V21.144C120.454 20.924 120.454 20.66 120.41 20.44C120.41 18.46 121.114 16.568 121.114 14.764C121.114 12.96 120.586 12.08 119.706 10.892C119.442 10.584 119.31 10.276 119.31 10.012L119.442 9.22C119.442 9.044 119.398 8.912 119.31 8.824C119.442 9.132 119.002 8.56 118.87 8.428C118.914 8.472 118.958 8.472 118.958 8.472C118.958 8.34 118.518 8.164 118.386 8.164C116.274 8.164 114.206 13.18 113.502 16.128C113.018 18.02 112.578 19.956 112.622 21.848C112.666 23.608 113.282 25.192 113.59 26.908V26.864C114.074 30.824 118.606 33.332 120.586 33.332L122.17 33.112L122.698 33.156C124.194 32.936 126.042 31.352 126.702 30.692C128.902 28.624 129.694 27.48 131.586 24.18C133.302 21.188 135.106 17.624 135.854 14.456C135.81 14.5 135.81 14.544 135.81 14.544V14.5C135.986 13.928 136.162 13.356 136.294 12.828C136.602 11.948 136.822 11.024 136.866 10.848ZM163.52 6.36C163.168 4.732 162.64 2.532 160.176 2.532C158.548 2.532 157.184 5.04 156.48 6.096C153.84 10.012 151.728 14.06 148.956 17.976L149 13.4C149 10.628 148.428 6.712 144.468 6.712C143.104 6.712 142.18 7.592 141.652 8.692C141.696 8.648 141.74 8.56 141.74 8.516C141.432 9.22 141.08 9.704 140.772 10.276C138.968 14.192 138.044 18.9 137.164 23.3C136.856 24.664 136.548 26.072 136.548 27.48L136.196 29.944C136.196 30.472 136.24 33.64 138.132 33.64C139.848 33.64 140.376 29.812 140.508 28.976C140.992 26.204 141.608 23.388 142.532 20.792C142.752 20.088 142.928 19.252 143.412 18.592L143.808 18.02C144.116 19.78 144.556 21.892 145.48 24.884C145.7 25.72 145.92 28.184 146.844 28.184C147.856 28.184 151.904 22.068 152.476 21.012L152.432 21.144C154.192 18.68 154.896 15.424 156.524 13.796C156.436 14.368 156.392 14.984 156.392 15.556L156.568 18.064L156.524 27.92L156.612 29.988L156.568 30.692C156.568 30.56 156.656 30.516 156.7 30.384L156.656 31.132C156.612 31.088 156.612 31.044 156.612 31C156.612 32.188 157.008 33.376 157.008 34.212C157.184 34.52 157.8 34.52 157.932 34.828C158.548 34.74 159.164 32.892 159.164 32.716C159.384 30.956 160.704 30.56 160.704 27.92C160.704 27.964 160.66 28.052 160.616 28.184L161.408 21.98C161.408 22.024 161.364 22.068 161.32 22.2C161.98 20.396 161.892 18.548 162.288 16.92C163.036 13.752 163.564 10.364 163.608 7.416C163.608 7.064 163.564 6.712 163.52 6.36Z" fill="#C7C3AF"/>
</svg>
