<svg width="90" height="133" viewBox="0 0 90 133" fill="none" xmlns="http://www.w3.org/2000/svg">
<path d="M89.5484 17C89.3484 15.4 88.9484 13.6 88.5484 11.8L88.3484 9.99999L87.3484 8.39999C83.3484 3.79999 79.3484 -7.62939e-06 74.3484 -7.62939e-06C73.7484 -7.62939e-06 73.3484 -7.62939e-06 73.1484 0.19999C72.7484 -7.62939e-06 72.3484 -7.62939e-06 71.7484 -7.62939e-06C71.1484 -7.62939e-06 70.5484 -7.62939e-06 70.1484 0.19999C69.9484 -7.62939e-06 69.5484 -7.62939e-06 69.1484 -7.62939e-06H68.5484C55.3484 3.2 50.3484 0.399999 32.9484 13.2C24.9484 18.2 23.5484 19.8 22.5484 22.2C22.3484 22.8 22.5484 22.8 21.9484 23.4L21.5484 24.6C20.1484 26 17.3484 28.6 16.7484 31.8C13.3484 42.2 11.7484 49.4 11.5484 50V51.4V51.6C11.7484 51.8 11.7484 52 11.7484 52C11.5484 52.8 11.3484 53.6 11.1484 55V56.4C14.7484 70.6 16.3484 72.6 24.9484 80.6L25.5484 81C32.5484 86.4 38.7484 89.2 40.5484 91.4C40.7484 93.6 43.5484 95 43.3484 95L45.9484 97.2C48.1484 98.2 50.7484 100 51.5484 100.6L52.1484 101C52.1484 100.8 52.1484 100.8 52.3484 100.8C53.3484 100.8 56.1484 104.6 56.3484 104.6V104.8C54.1484 106.6 52.1484 110.8 49.5484 111.4C45.5484 111.4 42.7484 110.8 40.9484 109.8L39.9484 109.4C32.5484 108 29.3484 106.8 27.5484 106.2L25.7484 105.6C23.3484 105.6 20.9484 103.6 16.3484 103.6C5.14844 103.6 3.94844 110 1.34844 115.2L0.748438 117.8L2.74844 120.6C3.34844 120.6 4.14844 121.2 4.94844 121.8L6.34844 122.2L7.14844 122C9.34844 122 10.5484 124.2 10.7484 124L11.5484 124.6C12.1484 125.2 16.7484 126.2 28.1484 129.4H28.7484C30.3484 130.2 34.7484 131 38.5484 131.6L39.5484 131.8L39.3484 131.6L39.7484 131.8C41.7484 132.4 43.9484 132.6 46.1484 132.6C55.1484 132.6 70.9484 131 77.3484 126.2L83.7484 117.2C85.1484 114 85.3484 111 85.3484 108C85.3484 92.6 76.7484 85.6 72.9484 81.8L72.3484 81.4C53.1484 68 48.3484 70 40.3484 59.4C39.5484 58 37.9484 55.8 37.9484 55V54.8C37.7484 53.8 37.7484 52.8 37.7484 52C37.7484 45.6 42.3484 39.2 42.3484 39C42.3484 36.8 50.1484 28.8 51.7484 28.8L52.1484 28.6C53.5484 27.2 58.3484 25.2 60.5484 25.2C61.9484 25.4 62.7484 25.4 63.5484 25.4C64.5484 25.4 65.3484 25.4 65.9484 25.2L75.1484 28L76.7484 28.4C78.3484 28.4 81.5484 29 81.5484 27.6C81.7484 27.8 82.3484 27.8 83.3484 27.8C87.1484 27.8 89.9484 24 89.9484 20.2C89.9484 19.4 89.7484 18.4 89.5484 17Z" fill="#1B1A1A" fill-opacity="0.2"/>
</svg>
