<svg width="117" height="130" viewBox="0 0 117 130" fill="none" xmlns="http://www.w3.org/2000/svg">
<path d="M116.66 9.99999C116.66 1.4 100.26 1.59999 95.4602 1L81.6602 0.599994C78.2602 0.599994 75.2602 1.2 71.4602 1.2L57.2602 0.599994L43.0602 1.2L34.0602 0.599994C33.4602 0.599994 32.6602 0.799991 31.2602 1L27.2602 0.199999L10.8602 1.79999C10.2602 1.79999 9.46016 1.4 8.66016 1.4C7.06016 1.4 0.860156 3.59999 0.860156 7.6C0.860156 20.4 24.4602 22.2 33.0602 22.2H37.0602C40.0602 22.2 43.0602 22.4 43.0602 24L42.6602 23.6C42.8602 24.2 43.4602 25.8 43.6602 26C41.4602 33 40.4602 39.6 38.6602 47.4C35.6602 64.2 31.0602 81 31.0602 97.2C31.0602 97.8 31.0602 98.4 31.2602 98.6C30.6602 100.8 30.4602 102.4 30.4602 104.6L30.6602 111.2C30.6602 112.6 30.6602 113.6 30.4602 114.2C30.4602 123.6 30.2602 130 36.6602 130C39.6602 129.4 46.0602 125.2 47.2602 124C50.6602 118.4 48.8602 111.8 50.4602 105.6C51.4602 101 52.8602 97.2 53.8602 93C59.4602 69.8 63.8602 46.8 69.6602 23.6C70.2602 21.4 82.0602 21.8 85.2602 20.8L87.0602 21.2C87.6602 21.2 88.8602 20.6 89.8602 20.6C90.2602 20.6 90.4602 20.6 90.6602 20.8C90.6602 20.6 90.6602 20.6 90.4602 20.6H90.8602C91.4602 20.8 91.8602 21 92.0602 21C98.4602 21 112.06 16 115.46 12.2C115.06 12.8 114.46 13 113.66 13C114.26 12.4 116.46 11 116.66 9.99999ZM90.8602 20.6C90.6602 20.6 90.4602 20.6 90.2602 20.4L90.8602 20.6ZM42.6602 23.6L42.4602 23.4L42.6602 23.6Z" fill="#1B1A1A" fill-opacity="0.2"/>
</svg>
