<svg width="1499" height="334" viewBox="0 0 1499 334" fill="none" xmlns="http://www.w3.org/2000/svg">
<g clip-path="url(#clip0_260_386)">
<path d="M43.7375 37.7959H0.6875V-0.639528H136.348V37.7959H93.2975V146.381H43.7375V37.7959Z" fill="#1B1A1A"/>
<path d="M224.239 149.742C208.419 149.742 194.209 146.451 181.609 139.87C169.009 133.289 159.139 124.188 151.999 112.567C144.859 100.805 141.289 87.573 141.289 72.8709C141.289 58.1688 144.859 45.007 151.999 33.3853C159.139 21.6236 169.009 12.4523 181.609 5.8714C194.209 -0.709533 208.419 -4 224.239 -4C240.059 -4 254.269 -0.709533 266.869 5.8714C279.469 12.4523 289.339 21.6236 296.479 33.3853C303.619 45.007 307.189 58.1688 307.189 72.8709C307.189 87.573 303.619 100.805 296.479 112.567C289.339 124.188 279.469 133.289 266.869 139.87C254.269 146.451 240.059 149.742 224.239 149.742ZM224.239 109.626C230.399 109.626 235.929 108.156 240.829 105.216C245.869 102.135 249.859 97.8645 252.799 92.4037C255.739 86.8029 257.209 80.292 257.209 72.8709C257.209 65.4499 255.739 59.0089 252.799 53.5482C249.859 47.9474 245.869 43.6768 240.829 40.7364C235.929 37.6559 230.399 36.1157 224.239 36.1157C218.079 36.1157 212.479 37.6559 207.439 40.7364C202.539 43.6768 198.619 47.9474 195.679 53.5482C192.739 59.0089 191.269 65.4499 191.269 72.8709C191.269 80.292 192.739 86.8029 195.679 92.4037C198.619 97.8645 202.539 102.135 207.439 105.216C212.479 108.156 218.079 109.626 224.239 109.626Z" fill="#1B1A1A"/>
<path d="M395.527 149.742C372.987 149.742 355.417 143.651 342.817 131.469C330.217 119.287 323.917 102.205 323.917 80.2219V-0.639528H373.477V78.7518C373.477 89.5333 375.367 97.3744 379.147 102.275C383.067 107.176 388.667 109.626 395.947 109.626C403.227 109.626 408.757 107.176 412.537 102.275C416.457 97.3744 418.417 89.5333 418.417 78.7518V-0.639528H467.137V80.2219C467.137 102.205 460.837 119.287 448.237 131.469C435.637 143.651 418.067 149.742 395.527 149.742Z" fill="#1B1A1A"/>
<path d="M552.855 109.416H539.415V146.381H489.855V-0.639528H560.625C574.205 -0.639528 586.035 1.60079 596.115 6.08143C606.195 10.5621 613.965 17.003 619.425 25.4042C624.885 33.8054 627.615 43.6068 627.615 54.8083C627.615 65.3098 625.235 74.4811 620.475 82.3223C615.715 90.1634 608.855 96.3943 599.895 101.015L630.765 146.381H577.845L552.855 109.416ZM577.635 54.8083C577.635 49.3476 575.955 45.147 572.595 42.2066C569.235 39.1261 564.195 37.5859 557.475 37.5859H539.415V72.0308H557.475C564.195 72.0308 569.235 70.5606 572.595 67.6202C575.955 64.5397 577.635 60.2691 577.635 54.8083Z" fill="#1B1A1A"/>
<path d="M709.288 -0.639528H781.738C798.118 -0.639528 812.538 2.3709 824.998 8.39176C837.598 14.2726 847.328 22.7438 854.188 33.8054C861.188 44.8669 864.688 57.8888 864.688 72.8709C864.688 87.853 861.188 100.875 854.188 111.936C847.328 122.998 837.598 131.539 824.998 137.56C812.538 143.441 798.118 146.381 781.738 146.381H709.288V-0.639528ZM779.638 107.736C790.278 107.736 798.748 104.725 805.048 98.7046C811.488 92.5437 814.708 83.9325 814.708 72.8709C814.708 61.8093 811.488 53.2681 805.048 47.2473C798.748 41.0864 790.278 38.006 779.638 38.006H758.848V107.736H779.638Z" fill="#1B1A1A"/>
<path d="M980.904 120.758H925.044L915.173 146.381H864.773L929.034 -0.639528H977.753L1042.01 146.381H990.773L980.904 120.758ZM967.253 85.0526L952.974 48.0874L938.693 85.0526H967.253Z" fill="#1B1A1A"/>
<path d="M1074.46 37.7959H1031.41V-0.639528H1167.07V37.7959H1124.02V146.381H1074.46V37.7959Z" fill="#1B1A1A"/>
<path d="M1302.16 108.996V146.381H1179.94V-0.639528H1299.43V36.7458H1228.66V53.9682H1290.82V89.6733H1228.66V108.996H1302.16Z" fill="#1B1A1A"/>
<path d="M1376.05 149.742C1363.87 149.742 1351.97 148.412 1340.35 145.751C1328.87 142.951 1319.42 139.24 1312 134.62L1327.96 98.4945C1334.96 102.555 1342.8 105.846 1351.48 108.366C1360.16 110.746 1368.49 111.936 1376.47 111.936C1383.33 111.936 1388.23 111.306 1391.17 110.046C1394.11 108.646 1395.58 106.616 1395.58 103.955C1395.58 100.875 1393.62 98.5646 1389.7 97.0243C1385.92 95.4841 1379.62 93.8039 1370.8 91.9836C1359.46 89.6033 1350.01 87.0829 1342.45 84.4226C1334.89 81.6222 1328.31 77.1415 1322.71 70.9806C1317.11 64.6798 1314.31 56.2085 1314.31 45.567C1314.31 36.3257 1316.9 27.9245 1322.08 20.3635C1327.26 12.8024 1334.96 6.85153 1345.18 2.51091C1355.54 -1.8297 1368.07 -4 1382.77 -4C1392.85 -4 1402.72 -2.87984 1412.38 -0.639528C1422.18 1.46077 1430.79 4.61122 1438.21 8.81182L1423.3 44.7269C1408.88 37.4459 1395.23 33.8054 1382.35 33.8054C1369.61 33.8054 1363.24 36.8858 1363.24 43.0467C1363.24 45.9871 1365.13 48.2274 1368.91 49.7676C1372.69 51.1678 1378.92 52.7081 1387.6 54.3883C1398.8 56.4886 1408.25 58.9389 1415.95 61.7393C1423.65 64.3997 1430.3 68.8103 1435.9 74.9712C1441.64 81.1321 1444.51 89.5333 1444.51 100.175C1444.51 109.416 1441.92 117.817 1436.74 125.378C1431.56 132.799 1423.79 138.75 1413.43 143.231C1403.21 147.572 1390.75 149.742 1376.05 149.742Z" fill="#1B1A1A"/>
<g opacity="0.24">
<path fill-rule="evenodd" clip-rule="evenodd" d="M1442.08 284.855V149.382H1386.25V284.855H1332.54V326.807H1495.79V284.855H1442.08ZM1445.08 281.855V146.381H1383.25V281.855H1329.54V329.807H1498.79V281.855H1445.08ZM1310.01 287.357C1318.92 272.858 1323.38 256.437 1323.38 238.094C1323.38 219.752 1318.92 203.243 1310.01 188.569C1301.11 174.07 1288.79 162.715 1273.07 154.505C1257.35 146.294 1239.62 142.189 1219.89 142.189C1200.15 142.189 1182.42 146.294 1166.7 154.505C1150.98 162.715 1138.67 174.07 1129.76 188.569C1120.85 203.243 1116.4 219.752 1116.4 238.094C1116.4 256.437 1120.85 272.858 1129.76 287.357C1138.67 302.031 1150.98 313.474 1166.7 321.684C1182.42 329.895 1200.15 334 1219.89 334C1239.62 334 1257.35 329.895 1273.07 321.684C1288.79 313.474 1301.11 302.031 1310.01 287.357ZM1132.32 190.133C1123.72 204.304 1119.4 220.265 1119.4 238.094C1119.4 255.927 1123.72 271.796 1132.31 285.787L1132.32 285.793L1132.32 285.8C1140.94 299.99 1152.84 311.059 1168.09 319.025C1183.33 326.987 1200.58 331 1219.89 331C1239.19 331 1256.44 326.987 1271.68 319.025C1286.93 311.059 1298.84 299.99 1307.45 285.8L1307.45 285.793L1307.46 285.787C1316.05 271.797 1320.38 255.927 1320.38 238.094C1320.38 220.265 1316.05 204.304 1307.45 190.133C1298.84 176.119 1286.94 165.134 1271.68 157.164C1256.44 149.202 1239.19 145.189 1219.89 145.189C1200.58 145.189 1183.33 149.202 1168.09 157.164C1152.83 165.134 1140.93 176.119 1132.32 190.133ZM1197.63 195.174L1197.64 195.168C1204.26 191.198 1211.7 189.237 1219.89 189.237C1228.07 189.237 1235.58 191.198 1242.36 195.149L1242.4 195.174L1242.44 195.2C1249.03 199.339 1254.26 205.067 1258.16 212.302L1258.17 212.316L1258.17 212.33C1262.1 219.817 1264.02 228.434 1264.02 238.094C1264.02 247.746 1262.11 256.285 1258.17 263.61C1254.27 271.021 1249.02 276.775 1242.4 280.753C1235.62 284.892 1228.09 286.951 1219.89 286.951C1211.69 286.951 1204.25 284.899 1197.63 280.753C1190.84 276.78 1185.5 271.031 1181.61 263.611C1177.66 256.286 1175.75 247.747 1175.75 238.094C1175.75 228.434 1177.67 219.817 1181.6 212.33L1181.6 212.316L1181.61 212.302C1185.52 205.046 1190.86 199.315 1197.62 195.18L1197.63 195.174ZM1184.25 262.202C1187.92 269.189 1192.9 274.518 1199.19 278.186C1205.3 282.029 1212.2 283.951 1219.89 283.951C1227.57 283.951 1234.56 282.029 1240.85 278.186C1246.96 274.518 1251.85 269.189 1255.52 262.202C1259.19 255.389 1261.02 247.353 1261.02 238.094C1261.02 228.836 1259.19 220.713 1255.52 213.725C1251.85 206.912 1246.96 201.584 1240.85 197.741C1234.56 194.072 1227.57 192.238 1219.89 192.238C1212.2 192.238 1205.3 194.072 1199.19 197.741C1192.9 201.584 1187.92 206.912 1184.25 213.725C1180.59 220.713 1178.75 228.836 1178.75 238.094C1178.75 247.353 1180.59 255.389 1184.25 262.202ZM1026.62 201.409C1031.34 207.523 1033.69 217.306 1033.69 230.757V329.807H1095.53V228.923C1095.53 201.497 1087.67 180.184 1071.95 164.986C1056.23 149.788 1034.31 142.189 1006.18 142.189C978.063 142.189 956.142 149.788 940.422 164.986C924.702 180.184 916.842 201.497 916.842 228.923V329.807H977.626V230.757C977.626 217.306 980.071 207.523 984.962 201.409C989.678 195.295 996.577 192.238 1005.66 192.238C1014.74 192.238 1021.73 195.295 1026.62 201.409ZM982.603 199.555C987.991 192.584 995.842 189.237 1005.66 189.237C1015.49 189.237 1023.41 192.59 1028.96 199.535L1028.98 199.556L1029 199.576C1034.32 206.482 1036.69 217.084 1036.69 230.757V326.807H1092.53V228.923C1092.53 202.091 1084.86 181.64 1069.86 167.143C1054.85 152.628 1033.76 145.189 1006.18 145.189C978.609 145.189 957.52 152.628 942.507 167.143C927.512 181.64 919.842 202.091 919.842 228.923V326.807H974.626V230.757C974.626 217.081 977.086 206.467 982.603 199.555ZM808.306 195.5L777.128 149.382H718.367L755.597 204.095L752.586 205.648C741.848 211.186 733.723 218.596 728.099 227.86C722.485 237.108 719.627 247.996 719.627 260.63C719.627 274.095 722.901 285.741 729.36 295.68C735.824 305.626 745.044 313.301 757.145 318.68C769.26 324.065 783.587 326.807 800.205 326.807L885.499 326.807V149.382H829.667V195.5H808.306ZM712.697 146.381H778.721L809.899 192.5H826.667V146.381H888.499V329.807L800.205 329.807C783.262 329.807 768.503 327.012 755.927 321.422C743.351 315.832 733.657 307.796 726.845 297.315C720.033 286.833 716.627 274.605 716.627 260.63C716.627 247.528 719.596 236.085 725.535 226.303C730.995 217.309 738.669 210.013 748.558 204.415C749.425 203.924 750.309 203.446 751.211 202.981L712.697 146.381ZM785.271 244.645C789.463 240.977 795.751 239.143 804.135 239.143H826.667V282.117H804.135C795.751 282.117 789.463 280.195 785.271 276.352C781.079 272.683 778.983 267.443 778.983 260.63C778.983 253.817 781.079 248.489 785.271 244.645ZM783.268 278.586C788.225 283.116 795.364 285.117 804.135 285.117H829.667V236.142H804.135C795.379 236.142 788.253 238.049 783.295 242.387L783.269 242.41L783.244 242.434C778.31 246.957 775.983 253.156 775.983 260.63C775.983 268.085 778.301 274.224 783.268 278.586ZM548.916 318.54C564.461 326.052 582.452 329.807 602.888 329.807H693.278V146.381L602.888 146.381C582.452 146.381 564.461 150.05 548.916 157.387C533.196 164.899 521.057 175.555 512.498 189.355C503.765 203.156 499.398 219.402 499.398 238.094C499.398 256.786 503.765 273.033 512.498 286.833C521.057 300.634 533.196 311.203 548.916 318.54ZM550.204 160.097C534.965 167.38 523.281 177.661 515.047 190.937L515.04 190.949L515.033 190.96C506.645 204.214 502.398 219.886 502.398 238.094C502.398 256.302 506.645 271.975 515.033 285.229L515.04 285.24L515.047 285.252C523.277 298.523 534.955 308.713 550.185 315.821L550.203 315.829L550.221 315.838C565.291 323.12 582.822 326.807 602.888 326.807H690.278V149.382L602.888 149.382C582.816 149.382 565.279 152.984 550.204 160.097ZM573.806 205.864C581.666 198.352 592.233 194.596 605.508 194.596H631.446V281.593H605.508C592.233 281.593 581.666 277.749 573.806 270.063C565.771 262.551 561.754 251.895 561.754 238.094C561.754 224.294 565.771 213.55 573.806 205.864ZM571.733 272.232C580.263 280.561 591.636 284.593 605.508 284.593H634.446V191.596H605.508C591.642 191.596 580.27 195.537 571.733 203.695L571.732 203.696C562.969 212.079 558.754 223.685 558.754 238.094C558.754 252.487 562.961 264.016 571.733 272.232ZM352.346 181.35L340.032 149.382H282.749L360.298 326.807H417.157L494.706 149.382L438.471 149.382L426.157 181.35H352.346ZM436.412 146.381L499.292 146.381L419.12 329.807H358.336L278.164 146.381H342.092L354.406 178.35H424.098L436.412 146.381ZM367.06 219.896L411.443 219.896L389.252 277.34L367.06 219.896ZM389.252 269.015L407.068 222.896L371.436 222.896L389.252 269.015ZM234.682 284.855V149.382L178.851 149.382V284.855H125.141V326.807H288.393V284.855H234.682ZM237.682 281.855V146.381L175.851 146.381V281.855H122.141V329.807H291.393V281.855H237.682ZM45.2968 193.024V217.131H-32.2552V261.678H45.2968V283.165H-42.9972V329.807H106.081V146.381L-46.4032 146.381V193.024L45.2968 193.024ZM-43.4032 190.024L48.2968 190.024V220.132H-29.2552V258.677H48.2968V286.165H-39.9972V326.807H103.081V149.382L-43.4032 149.382V190.024ZM-107.934 193.81C-98.178 196.643 -89.2725 200.256 -81.2173 204.648C-80.3313 205.131 -79.4557 205.624 -78.5903 206.126L-58.6783 161.055C-67.9357 155.291 -79.7257 150.661 -94.0483 147.167C-108.546 143.848 -123.392 142.189 -138.588 142.189C-156.928 142.189 -172.474 144.896 -185.224 150.312C-198.15 155.902 -207.844 163.326 -214.306 172.585C-220.769 182.018 -224 192.5 -224 204.03C-224 217.306 -220.42 227.788 -213.258 235.474C-206.272 243.16 -197.975 248.663 -188.368 251.982C-178.762 255.476 -166.972 258.533 -152.998 261.154C-142.169 263.25 -134.396 265.172 -129.68 266.918C-124.964 268.84 -122.606 271.635 -122.606 275.304C-122.606 282.99 -130.554 286.833 -146.448 286.833C-161.713 286.833 -177.844 282.735 -194.843 274.538C-195.739 274.106 -196.637 273.662 -197.538 273.207L-216.14 318.016C-206.883 323.256 -196.141 327.187 -183.914 329.807C-171.862 332.602 -159.548 334 -146.972 334C-128.632 334 -113 331.292 -100.074 325.877C-87.3237 320.461 -77.717 313.037 -71.2544 303.604C-64.7916 294.17 -61.5603 283.689 -61.5603 272.159C-61.5603 258.883 -65.0537 248.314 -72.0403 240.453C-79.027 232.766 -87.2363 227.176 -96.6683 223.682C-106.1 220.363 -117.89 217.219 -132.038 214.249C-143.042 211.978 -150.902 209.882 -155.618 207.96C-160.509 206.038 -162.954 203.156 -162.954 199.313C-162.954 195.994 -161.12 193.461 -157.452 191.714C-153.784 190.142 -147.671 189.355 -139.112 189.355C-129.156 189.355 -118.764 190.84 -107.934 193.81ZM-156.732 210.746C-159.461 209.672 -161.768 208.232 -163.408 206.298C-165.099 204.305 -165.954 201.933 -165.954 199.313C-165.954 197.062 -165.32 194.975 -164.009 193.164C-162.722 191.387 -160.898 190.032 -158.742 189.005L-158.689 188.979L-158.634 188.956C-154.364 187.126 -147.718 186.355 -139.112 186.355C-128.857 186.355 -118.196 187.885 -107.141 190.916L-107.119 190.922L-107.098 190.929C-97.2432 193.79 -88.2068 197.442 -80.0007 201.895L-62.4932 162.266C-71.0568 157.326 -81.7826 153.25 -94.7377 150.088C-109.004 146.823 -123.62 145.189 -138.588 145.189C-156.642 145.189 -171.759 147.856 -184.037 153.068C-196.571 158.489 -205.767 165.598 -211.841 174.294C-217.952 183.22 -221 193.105 -221 204.03C-221 216.755 -217.581 226.433 -211.063 233.429L-211.051 233.442L-211.039 233.456C-204.382 240.778 -196.509 245.995 -187.389 249.146L-187.366 249.154L-187.343 249.163C-177.937 252.584 -166.315 255.604 -152.445 258.205L-152.437 258.206L-152.428 258.208C-141.581 260.308 -133.602 262.266 -128.638 264.105L-128.593 264.122L-128.548 264.14C-125.908 265.216 -123.672 266.636 -122.082 268.521C-120.445 270.462 -119.606 272.764 -119.606 275.304C-119.606 277.771 -120.254 280.06 -121.626 282.051C-122.982 284.018 -124.926 285.523 -127.261 286.652C-131.849 288.871 -138.355 289.834 -146.448 289.834C-162.212 289.834 -178.738 285.613 -195.995 277.313L-212.336 316.676C-203.916 321.118 -194.242 324.525 -183.286 326.874L-183.261 326.879L-183.237 326.885C-171.411 329.627 -159.324 331 -146.972 331C-128.915 331 -113.7 328.332 -101.237 323.111C-88.9059 317.872 -79.804 310.775 -73.7291 301.908C-67.6116 292.978 -64.5603 283.089 -64.5603 272.159C-64.5603 259.424 -67.8993 249.634 -74.2743 242.455C-80.9402 235.127 -88.7379 229.823 -97.689 226.504C-106.95 223.247 -118.593 220.137 -132.649 217.187C-143.656 214.915 -151.741 212.777 -156.732 210.746Z" fill="#1B1A1A"/>
<path fill-rule="evenodd" clip-rule="evenodd" d="M1442.08 284.855V149.382H1386.25V284.855H1332.54V326.807H1495.79V284.855H1442.08ZM1445.08 281.855V146.381H1383.25V281.855H1329.54V329.807H1498.79V281.855H1445.08ZM1310.01 287.357C1318.92 272.858 1323.38 256.437 1323.38 238.094C1323.38 219.752 1318.92 203.243 1310.01 188.569C1301.11 174.07 1288.79 162.715 1273.07 154.505C1257.35 146.294 1239.62 142.189 1219.89 142.189C1200.15 142.189 1182.42 146.294 1166.7 154.505C1150.98 162.715 1138.67 174.07 1129.76 188.569C1120.85 203.243 1116.4 219.752 1116.4 238.094C1116.4 256.437 1120.85 272.858 1129.76 287.357C1138.67 302.031 1150.98 313.474 1166.7 321.684C1182.42 329.895 1200.15 334 1219.89 334C1239.62 334 1257.35 329.895 1273.07 321.684C1288.79 313.474 1301.11 302.031 1310.01 287.357ZM1132.32 190.133C1123.72 204.304 1119.4 220.265 1119.4 238.094C1119.4 255.927 1123.72 271.796 1132.31 285.787L1132.32 285.793L1132.32 285.8C1140.94 299.99 1152.84 311.059 1168.09 319.025C1183.33 326.987 1200.58 331 1219.89 331C1239.19 331 1256.44 326.987 1271.68 319.025C1286.93 311.059 1298.84 299.99 1307.45 285.8L1307.45 285.793L1307.46 285.787C1316.05 271.797 1320.38 255.927 1320.38 238.094C1320.38 220.265 1316.05 204.304 1307.45 190.133C1298.84 176.119 1286.94 165.134 1271.68 157.164C1256.44 149.202 1239.19 145.189 1219.89 145.189C1200.58 145.189 1183.33 149.202 1168.09 157.164C1152.83 165.134 1140.93 176.119 1132.32 190.133ZM1197.63 195.174L1197.64 195.168C1204.26 191.198 1211.7 189.237 1219.89 189.237C1228.07 189.237 1235.58 191.198 1242.36 195.149L1242.4 195.174L1242.44 195.2C1249.03 199.339 1254.26 205.067 1258.16 212.302L1258.17 212.316L1258.17 212.33C1262.1 219.817 1264.02 228.434 1264.02 238.094C1264.02 247.746 1262.11 256.285 1258.17 263.61C1254.27 271.021 1249.02 276.775 1242.4 280.753C1235.62 284.892 1228.09 286.951 1219.89 286.951C1211.69 286.951 1204.25 284.899 1197.63 280.753C1190.84 276.78 1185.5 271.031 1181.61 263.611C1177.66 256.286 1175.75 247.747 1175.75 238.094C1175.75 228.434 1177.67 219.817 1181.6 212.33L1181.6 212.316L1181.61 212.302C1185.52 205.046 1190.86 199.315 1197.62 195.18L1197.63 195.174ZM1184.25 262.202C1187.92 269.189 1192.9 274.518 1199.19 278.186C1205.3 282.029 1212.2 283.951 1219.89 283.951C1227.57 283.951 1234.56 282.029 1240.85 278.186C1246.96 274.518 1251.85 269.189 1255.52 262.202C1259.19 255.389 1261.02 247.353 1261.02 238.094C1261.02 228.836 1259.19 220.713 1255.52 213.725C1251.85 206.912 1246.96 201.584 1240.85 197.741C1234.56 194.072 1227.57 192.238 1219.89 192.238C1212.2 192.238 1205.3 194.072 1199.19 197.741C1192.9 201.584 1187.92 206.912 1184.25 213.725C1180.59 220.713 1178.75 228.836 1178.75 238.094C1178.75 247.353 1180.59 255.389 1184.25 262.202ZM1026.62 201.409C1031.34 207.523 1033.69 217.306 1033.69 230.757V329.807H1095.53V228.923C1095.53 201.497 1087.67 180.184 1071.95 164.986C1056.23 149.788 1034.31 142.189 1006.18 142.189C978.063 142.189 956.142 149.788 940.422 164.986C924.702 180.184 916.842 201.497 916.842 228.923V329.807H977.626V230.757C977.626 217.306 980.071 207.523 984.962 201.409C989.678 195.295 996.577 192.238 1005.66 192.238C1014.74 192.238 1021.73 195.295 1026.62 201.409ZM982.603 199.555C987.991 192.584 995.842 189.237 1005.66 189.237C1015.49 189.237 1023.41 192.59 1028.96 199.535L1028.98 199.556L1029 199.576C1034.32 206.482 1036.69 217.084 1036.69 230.757V326.807H1092.53V228.923C1092.53 202.091 1084.86 181.64 1069.86 167.143C1054.85 152.628 1033.76 145.189 1006.18 145.189C978.609 145.189 957.52 152.628 942.507 167.143C927.512 181.64 919.842 202.091 919.842 228.923V326.807H974.626V230.757C974.626 217.081 977.086 206.467 982.603 199.555ZM808.306 195.5L777.128 149.382H718.367L755.597 204.095L752.586 205.648C741.848 211.186 733.723 218.596 728.099 227.86C722.485 237.108 719.627 247.996 719.627 260.63C719.627 274.095 722.901 285.741 729.36 295.68C735.824 305.626 745.044 313.301 757.145 318.68C769.26 324.065 783.587 326.807 800.205 326.807L885.499 326.807V149.382H829.667V195.5H808.306ZM712.697 146.381H778.721L809.899 192.5H826.667V146.381H888.499V329.807L800.205 329.807C783.262 329.807 768.503 327.012 755.927 321.422C743.351 315.832 733.657 307.796 726.845 297.315C720.033 286.833 716.627 274.605 716.627 260.63C716.627 247.528 719.596 236.085 725.535 226.303C730.995 217.309 738.669 210.013 748.558 204.415C749.425 203.924 750.309 203.446 751.211 202.981L712.697 146.381ZM785.271 244.645C789.463 240.977 795.751 239.143 804.135 239.143H826.667V282.117H804.135C795.751 282.117 789.463 280.195 785.271 276.352C781.079 272.683 778.983 267.443 778.983 260.63C778.983 253.817 781.079 248.489 785.271 244.645ZM783.268 278.586C788.225 283.116 795.364 285.117 804.135 285.117H829.667V236.142H804.135C795.379 236.142 788.253 238.049 783.295 242.387L783.269 242.41L783.244 242.434C778.31 246.957 775.983 253.156 775.983 260.63C775.983 268.085 778.301 274.224 783.268 278.586ZM548.916 318.54C564.461 326.052 582.452 329.807 602.888 329.807H693.278V146.381L602.888 146.381C582.452 146.381 564.461 150.05 548.916 157.387C533.196 164.899 521.057 175.555 512.498 189.355C503.765 203.156 499.398 219.402 499.398 238.094C499.398 256.786 503.765 273.033 512.498 286.833C521.057 300.634 533.196 311.203 548.916 318.54ZM550.204 160.097C534.965 167.38 523.281 177.661 515.047 190.937L515.04 190.949L515.033 190.96C506.645 204.214 502.398 219.886 502.398 238.094C502.398 256.302 506.645 271.975 515.033 285.229L515.04 285.24L515.047 285.252C523.277 298.523 534.955 308.713 550.185 315.821L550.203 315.829L550.221 315.838C565.291 323.12 582.822 326.807 602.888 326.807H690.278V149.382L602.888 149.382C582.816 149.382 565.279 152.984 550.204 160.097ZM573.806 205.864C581.666 198.352 592.233 194.596 605.508 194.596H631.446V281.593H605.508C592.233 281.593 581.666 277.749 573.806 270.063C565.771 262.551 561.754 251.895 561.754 238.094C561.754 224.294 565.771 213.55 573.806 205.864ZM571.733 272.232C580.263 280.561 591.636 284.593 605.508 284.593H634.446V191.596H605.508C591.642 191.596 580.27 195.537 571.733 203.695L571.732 203.696C562.969 212.079 558.754 223.685 558.754 238.094C558.754 252.487 562.961 264.016 571.733 272.232ZM352.346 181.35L340.032 149.382H282.749L360.298 326.807H417.157L494.706 149.382L438.471 149.382L426.157 181.35H352.346ZM436.412 146.381L499.292 146.381L419.12 329.807H358.336L278.164 146.381H342.092L354.406 178.35H424.098L436.412 146.381ZM367.06 219.896L411.443 219.896L389.252 277.34L367.06 219.896ZM389.252 269.015L407.068 222.896L371.436 222.896L389.252 269.015ZM234.682 284.855V149.382L178.851 149.382V284.855H125.141V326.807H288.393V284.855H234.682ZM237.682 281.855V146.381L175.851 146.381V281.855H122.141V329.807H291.393V281.855H237.682ZM45.2968 193.024V217.131H-32.2552V261.678H45.2968V283.165H-42.9972V329.807H106.081V146.381L-46.4032 146.381V193.024L45.2968 193.024ZM-43.4032 190.024L48.2968 190.024V220.132H-29.2552V258.677H48.2968V286.165H-39.9972V326.807H103.081V149.382L-43.4032 149.382V190.024ZM-107.934 193.81C-98.178 196.643 -89.2725 200.256 -81.2173 204.648C-80.3313 205.131 -79.4557 205.624 -78.5903 206.126L-58.6783 161.055C-67.9357 155.291 -79.7257 150.661 -94.0483 147.167C-108.546 143.848 -123.392 142.189 -138.588 142.189C-156.928 142.189 -172.474 144.896 -185.224 150.312C-198.15 155.902 -207.844 163.326 -214.306 172.585C-220.769 182.018 -224 192.5 -224 204.03C-224 217.306 -220.42 227.788 -213.258 235.474C-206.272 243.16 -197.975 248.663 -188.368 251.982C-178.762 255.476 -166.972 258.533 -152.998 261.154C-142.169 263.25 -134.396 265.172 -129.68 266.918C-124.964 268.84 -122.606 271.635 -122.606 275.304C-122.606 282.99 -130.554 286.833 -146.448 286.833C-161.713 286.833 -177.844 282.735 -194.843 274.538C-195.739 274.106 -196.637 273.662 -197.538 273.207L-216.14 318.016C-206.883 323.256 -196.141 327.187 -183.914 329.807C-171.862 332.602 -159.548 334 -146.972 334C-128.632 334 -113 331.292 -100.074 325.877C-87.3237 320.461 -77.717 313.037 -71.2544 303.604C-64.7916 294.17 -61.5603 283.689 -61.5603 272.159C-61.5603 258.883 -65.0537 248.314 -72.0403 240.453C-79.027 232.766 -87.2363 227.176 -96.6683 223.682C-106.1 220.363 -117.89 217.219 -132.038 214.249C-143.042 211.978 -150.902 209.882 -155.618 207.96C-160.509 206.038 -162.954 203.156 -162.954 199.313C-162.954 195.994 -161.12 193.461 -157.452 191.714C-153.784 190.142 -147.671 189.355 -139.112 189.355C-129.156 189.355 -118.764 190.84 -107.934 193.81ZM-156.732 210.746C-159.461 209.672 -161.768 208.232 -163.408 206.298C-165.099 204.305 -165.954 201.933 -165.954 199.313C-165.954 197.062 -165.32 194.975 -164.009 193.164C-162.722 191.387 -160.898 190.032 -158.742 189.005L-158.689 188.979L-158.634 188.956C-154.364 187.126 -147.718 186.355 -139.112 186.355C-128.857 186.355 -118.196 187.885 -107.141 190.916L-107.119 190.922L-107.098 190.929C-97.2432 193.79 -88.2068 197.442 -80.0007 201.895L-62.4932 162.266C-71.0568 157.326 -81.7826 153.25 -94.7377 150.088C-109.004 146.823 -123.62 145.189 -138.588 145.189C-156.642 145.189 -171.759 147.856 -184.037 153.068C-196.571 158.489 -205.767 165.598 -211.841 174.294C-217.952 183.22 -221 193.105 -221 204.03C-221 216.755 -217.581 226.433 -211.063 233.429L-211.051 233.442L-211.039 233.456C-204.382 240.778 -196.509 245.995 -187.389 249.146L-187.366 249.154L-187.343 249.163C-177.937 252.584 -166.315 255.604 -152.445 258.205L-152.437 258.206L-152.428 258.208C-141.581 260.308 -133.602 262.266 -128.638 264.105L-128.593 264.122L-128.548 264.14C-125.908 265.216 -123.672 266.636 -122.082 268.521C-120.445 270.462 -119.606 272.764 -119.606 275.304C-119.606 277.771 -120.254 280.06 -121.626 282.051C-122.982 284.018 -124.926 285.523 -127.261 286.652C-131.849 288.871 -138.355 289.834 -146.448 289.834C-162.212 289.834 -178.738 285.613 -195.995 277.313L-212.336 316.676C-203.916 321.118 -194.242 324.525 -183.286 326.874L-183.261 326.879L-183.237 326.885C-171.411 329.627 -159.324 331 -146.972 331C-128.915 331 -113.7 328.332 -101.237 323.111C-88.9059 317.872 -79.804 310.775 -73.7291 301.908C-67.6116 292.978 -64.5603 283.089 -64.5603 272.159C-64.5603 259.424 -67.8993 249.634 -74.2743 242.455C-80.9402 235.127 -88.7379 229.823 -97.689 226.504C-106.95 223.247 -118.593 220.137 -132.649 217.187C-143.656 214.915 -151.741 212.777 -156.732 210.746Z" fill="black" fill-opacity="0.2"/>
</g>
</g>
<defs>
<clipPath id="clip0_260_386">
<rect width="1499" height="334" fill="white"/>
</clipPath>
</defs>
</svg>
