<svg width="455" height="95" viewBox="0 0 455 95" fill="none" xmlns="http://www.w3.org/2000/svg">
<g opacity="0.24">
<path d="M440.579 80.673H437.579V83.673H440.579V80.673ZM454.724 80.673H457.724V77.673H454.724V80.673ZM454.724 93.3V96.3H457.724V93.3H454.724ZM410.15 93.3H407.15V96.3H410.15V93.3ZM410.15 80.673V77.673H407.15V80.673H410.15ZM424.295 80.673V83.673H427.295V80.673H424.295ZM424.295 45V42H421.295V45H424.295ZM440.579 45H443.579V42H440.579V45ZM440.579 83.673H454.724V77.673H440.579V83.673ZM451.724 80.673V93.3H457.724V80.673H451.724ZM454.724 90.3H410.15V96.3H454.724V90.3ZM413.15 93.3V80.673H407.15V93.3H413.15ZM410.15 83.673H424.295V77.673H410.15V83.673ZM427.295 80.673V45L421.295 45V80.673H427.295ZM424.295 48L440.579 48V42L424.295 42V48ZM437.579 45V80.673H443.579V45H437.579ZM395.278 47.139L393.89 49.7982L395.278 47.139ZM405.007 56.109L407.572 54.5521L407.568 54.5452L407.563 54.5384L405.007 56.109ZM405.007 82.122L402.451 80.5514L402.447 80.5582L402.443 80.5651L405.007 82.122ZM367.264 91.161L365.876 93.8202L365.876 93.8202L367.264 91.161ZM357.535 82.122L360.1 80.5651L360.096 80.5582L360.091 80.5514L357.535 82.122ZM357.535 56.109L354.979 54.5384L354.975 54.5452L354.971 54.5521L357.535 56.109ZM367.264 47.139L365.876 44.4798L365.876 44.4798L367.264 47.139ZM375.82 58.524L374.277 55.9515L374.266 55.9578L374.256 55.9642L375.82 58.524ZM371.887 62.733L369.246 61.3107L369.238 61.3246L369.231 61.3385L371.887 62.733ZM371.887 75.498L374.544 74.1035L374.536 74.0896L374.529 74.0757L371.887 75.498ZM375.82 79.707L377.417 77.1671L377.375 77.1407L377.332 77.1157L375.82 79.707ZM386.791 79.707L385.248 77.1345L385.237 77.1408L385.227 77.1472L386.791 79.707ZM390.655 75.498L388.014 74.0757L388.006 74.0896L387.999 74.1035L390.655 75.498ZM390.655 62.733L393.312 61.3385L393.304 61.3246L393.297 61.3107L390.655 62.733ZM386.791 58.524L388.388 55.9841L388.346 55.9577L388.303 55.9327L386.791 58.524ZM381.271 46.896C386.041 46.896 390.225 47.8844 393.89 49.7982L396.667 44.4798C392.052 42.0696 386.897 40.896 381.271 40.896V46.896ZM393.89 49.7982C397.571 51.7205 400.401 54.3432 402.451 57.6796L407.563 54.5384C404.921 50.2388 401.266 46.8815 396.667 44.4798L393.89 49.7982ZM402.443 57.6659C404.484 61.0283 405.526 64.83 405.526 69.15H411.526C411.526 63.81 410.222 58.9177 407.572 54.5521L402.443 57.6659ZM405.526 69.15C405.526 73.4704 404.484 77.2427 402.451 80.5514L407.563 83.6926C410.222 79.3653 411.526 74.4897 411.526 69.15H405.526ZM402.443 80.5651C400.391 83.9453 397.561 86.5843 393.89 88.5018L396.667 93.8202C401.275 91.4137 404.932 88.0268 407.572 83.6789L402.443 80.5651ZM393.89 88.5018C390.225 90.4156 386.041 91.404 381.271 91.404V97.404C386.897 97.404 392.052 96.2304 396.667 93.8202L393.89 88.5018ZM381.271 91.404C376.501 91.404 372.318 90.4156 368.653 88.5018L365.876 93.8202C370.491 96.2304 375.645 97.404 381.271 97.404V91.404ZM368.653 88.5018C364.981 86.5843 362.152 83.9453 360.1 80.5651L354.971 83.6789C357.611 88.0268 361.267 91.4137 365.876 93.8202L368.653 88.5018ZM360.091 80.5514C358.058 77.2427 357.016 73.4703 357.016 69.15H351.016C351.016 74.4897 352.32 79.3653 354.979 83.6926L360.091 80.5514ZM357.016 69.15C357.016 64.83 358.058 61.0283 360.1 57.6659L354.971 54.5521C352.32 58.9177 351.016 63.81 351.016 69.15H357.016ZM360.091 57.6796C362.141 54.3432 364.972 51.7205 368.653 49.7982L365.876 44.4798C361.277 46.8815 357.621 50.2388 354.979 54.5384L360.091 57.6796ZM368.653 49.7982C372.318 47.8844 376.501 46.896 381.271 46.896V40.896C375.645 40.896 370.491 42.0696 365.876 44.4798L368.653 49.7982ZM381.271 54.075C378.748 54.075 376.389 54.684 374.277 55.9515L377.364 61.0965C378.471 60.432 379.747 60.075 381.271 60.075V54.075ZM374.256 55.9642C372.124 57.2673 370.451 59.0731 369.246 61.3107L374.529 64.1553C375.256 62.8049 376.205 61.8047 377.385 61.0838L374.256 55.9642ZM369.231 61.3385C368.003 63.6774 367.438 66.3103 367.438 69.15H373.438C373.438 67.1137 373.839 65.4686 374.544 64.1275L369.231 61.3385ZM367.438 69.15C367.438 71.9873 368.002 74.6109 369.246 76.9203L374.529 74.0757C373.84 72.7971 373.438 71.1887 373.438 69.15H367.438ZM369.231 76.8925C370.436 79.1874 372.126 81.0249 374.309 82.2983L377.332 77.1157C376.203 76.4571 375.271 75.4886 374.544 74.1035L369.231 76.8925ZM374.224 82.2469C376.343 83.5791 378.72 84.225 381.271 84.225V78.225C379.774 78.225 378.517 77.8589 377.417 77.1671L374.224 82.2469ZM381.271 84.225C383.823 84.225 386.208 83.5794 388.356 82.2668L385.227 77.1472C384.063 77.8586 382.768 78.225 381.271 78.225V84.225ZM388.335 82.2795C390.466 81.0007 392.118 79.1662 393.312 76.8925L387.999 74.1035C387.261 75.5098 386.337 76.4813 385.248 77.1345L388.335 82.2795ZM393.297 76.9203C394.54 74.6109 395.104 71.9873 395.104 69.15H389.104C389.104 71.1887 388.702 72.7971 388.014 74.0757L393.297 76.9203ZM395.104 69.15C395.104 66.3103 394.539 63.6774 393.312 61.3385L387.999 64.1275C388.703 65.4686 389.104 67.1137 389.104 69.15H395.104ZM393.297 61.3107C392.103 59.0938 390.468 57.2917 388.388 55.9841L385.195 61.0639C386.334 61.7803 387.276 62.7842 388.014 64.1553L393.297 61.3107ZM388.303 55.9327C386.162 54.6839 383.796 54.075 381.271 54.075V60.075C382.795 60.075 384.108 60.4321 385.28 61.1153L388.303 55.9327ZM342.31 49.899L344.395 47.742L344.395 47.742L342.31 49.899ZM348.52 93.3V96.3H351.52V93.3H348.52ZM332.236 93.3H329.236V96.3H332.236V93.3ZM330.373 59.49L332.748 57.6576L332.732 57.6366L332.716 57.6159L330.373 59.49ZM319.402 59.49L321.745 61.3641L321.761 61.3434L321.777 61.3224L319.402 59.49ZM317.47 93.3V96.3H320.47V93.3H317.47ZM301.462 93.3H298.462V96.3H301.462V93.3ZM307.672 49.899L309.757 52.056L309.757 52.056L307.672 49.899ZM324.991 46.896C331.851 46.896 336.791 48.7368 340.225 52.056L344.395 47.742C339.549 43.0572 332.943 40.896 324.991 40.896V46.896ZM340.225 52.056C343.639 55.3565 345.52 60.107 345.52 66.735H351.52C351.52 58.919 349.261 52.4455 344.395 47.742L340.225 52.056ZM345.52 66.735V93.3H351.52V66.735H345.52ZM348.52 90.3H332.236V96.3H348.52V90.3ZM335.236 93.3V67.218H329.236V93.3H335.236ZM335.236 67.218C335.236 63.4535 334.6 60.0584 332.748 57.6576L327.998 61.3224C328.63 62.1416 329.236 63.8985 329.236 67.218H335.236ZM332.716 57.6159C330.763 55.1754 327.993 54.075 324.853 54.075V60.075C326.498 60.075 327.407 60.5846 328.03 61.3641L332.716 57.6159ZM324.853 54.075C321.716 54.075 318.941 55.1765 317.027 57.6576L321.777 61.3224C322.347 60.5835 323.206 60.075 324.853 60.075V54.075ZM317.059 57.6159C315.134 60.023 314.47 63.4374 314.47 67.218H320.47C320.47 63.9146 321.094 62.177 321.745 61.3641L317.059 57.6159ZM314.47 67.218V93.3H320.47V67.218H314.47ZM317.47 90.3H301.462V96.3H317.47V90.3ZM304.462 93.3V66.735H298.462V93.3H304.462ZM304.462 66.735C304.462 60.107 306.343 55.3565 309.757 52.056L305.587 47.742C300.721 52.4455 298.462 58.919 298.462 66.735H304.462ZM309.757 52.056C313.191 48.7368 318.131 46.896 324.991 46.896V40.896C317.039 40.896 310.433 43.0572 305.587 47.742L309.757 52.056ZM273.298 57.144L270.812 58.8244L271.705 60.144H273.298V57.144ZM277.714 57.144V60.144H280.714V57.144H277.714ZM277.714 45V42H274.714V45H277.714ZM293.998 45H296.998V42H293.998V45ZM293.998 93.3V96.3H296.998V93.3H293.998ZM259.084 91.092L260.302 88.3506L260.302 88.3506L259.084 91.092ZM251.425 84.744L253.94 83.109L253.94 83.109L251.425 84.744ZM251.08 66.045L253.644 67.6019L253.644 67.6019L251.08 66.045ZM257.842 59.904L259.217 62.5704L262.228 61.0175L260.322 58.2161L257.842 59.904ZM247.699 45V42H242.028L245.219 46.6879L247.699 45ZM265.087 45L267.572 43.3196L266.68 42H265.087V45ZM266.812 79.224L268.839 77.0125L268.813 76.9891L268.787 76.9663L266.812 79.224ZM277.714 80.742V83.742H280.714V80.742H277.714ZM277.714 69.426H280.714V66.426H277.714V69.426ZM266.812 70.875L264.836 68.6173L264.81 68.6401L264.784 68.6635L266.812 70.875ZM273.298 60.144H277.714V54.144H273.298V60.144ZM280.714 57.144V45H274.714V57.144H280.714ZM277.714 48H293.998V42H277.714V48ZM290.998 45V93.3H296.998V45H290.998ZM293.998 90.3L270.745 90.3V96.3L293.998 96.3V90.3ZM270.745 90.3C266.608 90.3 263.153 89.6175 260.302 88.3506L257.865 93.8334C261.639 95.5105 265.957 96.3 270.745 96.3V90.3ZM260.302 88.3506C257.465 87.0895 255.386 85.3339 253.94 83.109L248.909 86.379C251.051 89.6741 254.079 92.1505 257.865 93.8334L260.302 88.3506ZM253.94 83.109C252.499 80.8918 251.734 78.2544 251.734 75.084H245.734C245.734 79.2736 246.763 83.0762 248.909 86.379L253.94 83.109ZM251.734 75.084C251.734 72.102 252.404 69.6438 253.644 67.6019L248.515 64.4881C246.627 67.5982 245.734 71.166 245.734 75.084H251.734ZM253.644 67.6019C254.893 65.5444 256.713 63.8611 259.217 62.5704L256.467 57.2376C253.082 58.9829 250.394 61.3936 248.515 64.4881L253.644 67.6019ZM260.322 58.2161L250.179 43.3121L245.219 46.6879L255.362 61.5919L260.322 58.2161ZM247.699 48L265.087 48V42L247.699 42V48ZM262.601 46.6804L270.812 58.8244L275.783 55.4636L267.572 43.3196L262.601 46.6804ZM262.156 75.084C262.156 77.5334 262.938 79.8212 264.836 81.4817L268.787 76.9663C268.477 76.6948 268.156 76.2226 268.156 75.084H262.156ZM264.784 81.4355C266.655 83.1497 269.171 83.742 271.78 83.742V77.742C269.973 77.742 269.177 77.3223 268.839 77.0125L264.784 81.4355ZM271.78 83.742H277.714V77.742H271.78V83.742ZM280.714 80.742V69.426H274.714V80.742H280.714ZM277.714 66.426H271.78V72.426H277.714V66.426ZM271.78 66.426C269.2 66.426 266.706 66.9816 264.836 68.6173L268.787 73.1327C269.126 72.8364 269.943 72.426 271.78 72.426V66.426ZM264.784 68.6635C262.939 70.3554 262.156 72.6298 262.156 75.084H268.156C268.156 73.9502 268.476 73.4186 268.839 73.0865L264.784 68.6635ZM242.585 93.3V96.3H245.585V93.3H242.585ZM204.566 90.333L205.871 87.6318L205.853 87.623L205.834 87.6145L204.566 90.333ZM194.975 81.984L197.524 80.4027L197.517 80.3911L197.51 80.3796L194.975 81.984ZM194.975 56.316L197.51 57.9204L197.517 57.9089L197.524 57.8973L194.975 56.316ZM204.566 47.898L203.285 45.1849L203.279 45.188L203.272 45.1911L204.566 47.898ZM242.585 45H245.585V42H242.585V45ZM211.121 60.663L209.048 58.494L209.047 58.4951L211.121 60.663ZM211.121 77.568L213.218 75.423L213.194 75.3994L213.169 75.3764L211.121 77.568ZM226.301 80.604V83.604H229.301V80.604H226.301ZM226.301 57.696H229.301V54.696H226.301V57.696ZM242.585 90.3H218.78V96.3H242.585V90.3ZM218.78 90.3C213.767 90.3 209.49 89.3802 205.871 87.6318L203.26 93.0342C207.83 95.2418 213.028 96.3 218.78 96.3V90.3ZM205.834 87.6145C202.185 85.9114 199.449 83.5069 197.524 80.4027L192.425 83.5653C195.008 87.7291 198.666 90.8906 203.297 93.0515L205.834 87.6145ZM197.51 80.3796C195.555 77.292 194.525 73.588 194.525 69.15H188.525C188.525 74.556 189.794 79.408 192.44 83.5884L197.51 80.3796ZM194.525 69.15C194.525 64.712 195.555 61.008 197.51 57.9204L192.44 54.7116C189.794 58.892 188.525 63.744 188.525 69.15H194.525ZM197.524 57.8973C199.453 54.7868 202.197 52.3544 205.859 50.6049L203.272 45.1911C198.654 47.3976 195.004 50.5772 192.425 54.7347L197.524 57.8973ZM205.846 50.6111C209.471 48.9004 213.758 48 218.78 48V42C213.038 42 207.848 43.0316 203.285 45.1849L205.846 50.6111ZM218.78 48H242.585V42H218.78V48ZM239.585 45V93.3H245.585V45H239.585ZM219.47 54.696C215.382 54.696 211.794 55.8698 209.048 58.494L213.193 62.832C214.587 61.5002 216.565 60.696 219.47 60.696V54.696ZM209.047 58.4951C206.203 61.2157 204.947 64.9077 204.947 69.15H210.947C210.947 66.1243 211.806 64.1583 213.194 62.8309L209.047 58.4951ZM204.947 69.15C204.947 73.3892 206.202 77.0767 209.072 79.7596L213.169 75.3764C211.807 74.1033 210.947 72.1788 210.947 69.15H204.947ZM209.023 79.713C211.767 82.3953 215.363 83.604 219.47 83.604V77.604C216.584 77.604 214.615 76.7887 213.218 75.423L209.023 79.713ZM219.47 83.604H226.301V77.604H219.47V83.604ZM229.301 80.604V57.696H223.301V80.604H229.301ZM226.301 54.696H219.47V60.696H226.301V54.696ZM153.34 53.418L150.54 54.4965L151.28 56.418H153.34V53.418ZM171.694 53.418V56.418H173.753L174.493 54.4965L171.694 53.418ZM174.937 45V42H172.877L172.137 43.9215L174.937 45ZM191.497 45L194.245 46.2016L196.082 42L191.497 42V45ZM170.383 93.3V96.3H172.345L173.131 94.5016L170.383 93.3ZM154.375 93.3L151.626 94.5016L152.412 96.3H154.375V93.3ZM133.261 45V42H128.675L130.512 46.2016L133.261 45ZM150.097 45L152.896 43.9215L152.156 42H150.097V45ZM157.825 65.148V62.148H153.449L155.026 66.2292L157.825 65.148ZM162.517 77.292L159.718 78.3732L162.517 85.6161L165.315 78.3732L162.517 77.292ZM167.209 65.148L170.007 66.2292L171.584 62.148H167.209V65.148ZM153.34 56.418H171.694V50.418H153.34V56.418ZM174.493 54.4965L177.736 46.0785L172.137 43.9215L168.894 52.3395L174.493 54.4965ZM174.937 48H191.497V42H174.937V48ZM188.748 43.7984L167.634 92.0984L173.131 94.5016L194.245 46.2016L188.748 43.7984ZM170.383 90.3L154.375 90.3V96.3L170.383 96.3V90.3ZM157.123 92.0984L136.009 43.7984L130.512 46.2016L151.626 94.5016L157.123 92.0984ZM133.261 48L150.097 48V42L133.261 42V48ZM147.297 46.0785L150.54 54.4965L156.139 52.3395L152.896 43.9215L147.297 46.0785ZM155.026 66.2292L159.718 78.3732L165.315 76.2108L160.623 64.0668L155.026 66.2292ZM165.315 78.3732L170.007 66.2292L164.41 64.0668L159.718 76.2108L165.315 78.3732ZM167.209 62.148H157.825V68.148H167.209V62.148ZM122.6 80.673H119.6V83.673H122.6V80.673ZM136.745 80.673H139.745V77.673H136.745V80.673ZM136.745 93.3V96.3H139.745V93.3H136.745ZM92.1705 93.3H89.1705V96.3H92.1705V93.3ZM92.1705 80.673V77.673H89.1705V80.673H92.1705ZM106.316 80.673V83.673H109.316V80.673H106.316ZM106.316 45V42H103.316V45H106.316ZM122.6 45H125.6V42H122.6V45ZM122.6 83.673H136.745V77.673H122.6V83.673ZM133.745 80.673V93.3H139.745V80.673H133.745ZM136.745 90.3H92.1705V96.3H136.745V90.3ZM95.1705 93.3V80.673H89.1705V93.3H95.1705ZM92.1705 83.673H106.316V77.673H92.1705V83.673ZM109.316 80.673V45H103.316V80.673H109.316ZM106.316 48H122.6V42H106.316V48ZM119.6 45V80.673H125.6V45H119.6ZM47.783 57.282H44.783V60.282H47.783V57.282ZM47.783 45V42H44.783V45H47.783ZM87.941 45H90.941V42H87.941V45ZM87.941 93.3V96.3H90.941V93.3H87.941ZM48.68 93.3H45.68V96.3H48.68V93.3ZM48.68 81.018V78.018H45.68V81.018H48.68ZM71.933 81.018V84.018H74.933V81.018H71.933ZM71.933 75.36H74.933V72.36H71.933V75.36ZM51.509 75.36H48.509V78.36H51.509V75.36ZM51.509 63.63V60.63H48.509V63.63H51.509ZM71.933 63.63V66.63H74.933V63.63H71.933ZM71.933 57.282H74.933V54.282H71.933V57.282ZM50.783 57.282V45H44.783V57.282H50.783ZM47.783 48L87.941 48V42L47.783 42V48ZM84.941 45V93.3H90.941V45H84.941ZM87.941 90.3L48.68 90.3V96.3L87.941 96.3V90.3ZM51.68 93.3V81.018H45.68V93.3L51.68 93.3ZM48.68 84.018L71.933 84.018V78.018L48.68 78.018V84.018ZM74.933 81.018V75.36H68.933V81.018H74.933ZM71.933 72.36L51.509 72.36V78.36L71.933 78.36V72.36ZM54.509 75.36V63.63H48.509V75.36H54.509ZM51.509 66.63L71.933 66.63V60.63H51.509V66.63ZM74.933 63.63V57.282H68.933V63.63H74.933ZM71.933 54.282H47.783V60.282H71.933V54.282ZM35.2353 45.207L35.9461 42.2924L35.9255 42.2874L35.9047 42.2826L35.2353 45.207ZM44.5503 48.864L47.2943 50.0765L48.347 47.694L46.1359 46.3173L44.5503 48.864ZM39.3063 60.732L37.8011 63.3271L40.6972 65.0068L42.0503 61.9445L39.3063 60.732ZM31.5783 57.489L32.4147 54.608L32.3932 54.6017L32.3716 54.5958L31.5783 57.489ZM18.5373 56.937L17.3555 54.1796L17.301 54.2029L17.2475 54.2284L18.5373 56.937ZM19.0203 61.215L20.1522 58.4367L20.1347 58.4296L20.1172 58.4227L19.0203 61.215ZM25.2303 62.871L25.8465 59.935L25.8365 59.9329L25.2303 62.871ZM34.5453 65.355L35.5872 62.5418L35.5642 62.5332L35.541 62.5251L34.5453 65.355ZM41.0313 69.771L43.2735 67.7779L43.2624 67.7654L43.2511 67.753L41.0313 69.771ZM41.2383 86.4L38.7635 84.7043L38.7635 84.7043L41.2383 86.4ZM33.6483 92.265L34.8074 95.032L34.8142 95.0292L34.8209 95.0263L33.6483 92.265ZM11.5683 93.3L12.2459 90.3775L12.2214 90.3719L12.1969 90.3666L11.5683 93.3ZM3.08126 90.195L0.310597 89.0446L-0.707846 91.4975L1.60347 92.8058L3.08126 90.195ZM7.98026 78.396L9.33229 75.7179L6.4484 74.262L5.2096 77.2456L7.98026 78.396ZM25.8513 76.74L26.9832 73.9617L26.9385 73.9435L26.8932 73.9268L25.8513 76.74ZM19.7103 75.222L20.2803 72.2767L20.2717 72.275L20.2631 72.2734L19.7103 75.222ZM10.3953 72.807L11.4205 69.9876L11.3977 69.9793L11.3748 69.9714L10.3953 72.807ZM3.84026 68.46L6.06008 66.442L6.04767 66.4283L6.03509 66.4148L3.84026 68.46ZM3.56426 51.9L1.10439 50.1827L1.09688 50.1935L1.08946 50.2043L3.56426 51.9ZM11.2233 46.035L10.0506 43.2737L10.0416 43.2775L10.0325 43.2814L11.2233 46.035ZM23.5053 46.896C27.2869 46.896 30.9722 47.3087 34.5658 48.1314L35.9047 42.2826C31.8624 41.3573 27.7276 40.896 23.5053 40.896V46.896ZM34.5244 48.1216C38.0885 48.9908 40.8731 50.1084 42.9646 51.4107L46.1359 46.3173C43.3515 44.5836 39.9261 43.2632 35.9461 42.2924L34.5244 48.1216ZM41.8062 47.6515L36.5622 59.5195L42.0503 61.9445L47.2943 50.0765L41.8062 47.6515ZM40.8114 58.1369C38.2781 56.6676 35.4736 55.496 32.4147 54.608L30.7418 60.37C33.387 61.138 35.7345 62.1284 37.8011 63.3271L40.8114 58.1369ZM32.3716 54.5958C29.2935 53.7518 26.2889 53.316 23.3673 53.316V59.316C25.6896 59.316 28.159 59.6622 30.785 60.3822L32.3716 54.5958ZM23.3673 53.316C21.0665 53.316 18.9238 53.5075 17.3555 54.1796L19.719 59.6944C20.0828 59.5385 21.16 59.316 23.3673 59.316V53.316ZM17.2475 54.2284C16.4427 54.6116 15.6319 55.1787 15.0207 56.0227C14.3851 56.9004 14.0883 57.9102 14.0883 58.938L20.0883 58.938C20.0883 58.9988 20.0793 59.0979 20.0415 59.2186C20.0031 59.341 19.9456 59.4516 19.8803 59.5418C19.7521 59.7188 19.6658 59.7224 19.8271 59.6456L17.2475 54.2284ZM14.0883 58.938C14.0883 60.142 14.4934 61.2757 15.2837 62.2072C16.0268 63.0829 16.9886 63.6401 17.9233 64.0073L20.1172 58.4227C19.7639 58.2839 19.7597 58.2086 19.8588 58.3253C19.9149 58.3914 19.9806 58.4928 20.0284 58.6243C20.076 58.7551 20.0883 58.8673 20.0883 58.938L14.0883 58.938ZM17.8884 63.9933C19.4048 64.6111 21.7079 65.2074 24.624 65.8091L25.8365 59.9329C22.9567 59.3386 21.1198 58.8309 20.1522 58.4367L17.8884 63.9933ZM24.6141 65.807C28.2627 66.5728 31.2308 67.3691 33.5495 68.1849L35.541 62.5251C32.8917 61.5929 29.6498 60.7332 25.8465 59.935L24.6141 65.807ZM33.5033 68.1682C35.5217 68.9158 37.2838 70.1086 38.8114 71.789L43.2511 67.753C41.0988 65.3854 38.5369 63.6342 35.5872 62.5418L33.5033 68.1682ZM38.789 71.7641C40.023 73.1522 40.7913 75.1594 40.7913 78.12H46.7913C46.7913 74.0886 45.7196 70.5298 43.2735 67.7779L38.789 71.7641ZM40.7913 78.12C40.7913 80.5561 40.1203 82.724 38.7635 84.7043L43.7131 88.0957C45.7602 85.108 46.7913 81.7559 46.7913 78.12H40.7913ZM38.7635 84.7043C37.4476 86.6247 35.4191 88.2537 32.4756 89.5037L34.8209 95.0263C38.5934 93.4243 41.6249 91.1433 43.7131 88.0957L38.7635 84.7043ZM32.4891 89.498C29.5466 90.7307 25.8462 91.404 21.2973 91.404V97.404C26.4083 97.404 30.942 96.6513 34.8074 95.032L32.4891 89.498ZM21.2973 91.404C18.2096 91.404 15.1941 91.0612 12.2459 90.3775L10.8906 96.2225C14.2905 97.0108 17.7609 97.404 21.2973 97.404V91.404ZM12.1969 90.3666C9.2238 89.7295 6.69025 88.7906 4.55906 87.5842L1.60347 92.8058C4.34827 94.3594 7.47273 95.4905 10.9397 96.2334L12.1969 90.3666ZM5.85193 91.3454L10.7509 79.5464L5.2096 77.2456L0.310597 89.0446L5.85193 91.3454ZM6.62823 81.0741C11.6814 83.6252 16.6295 84.984 21.4353 84.984V78.984C17.7771 78.984 13.7551 77.9508 9.33229 75.7179L6.62823 81.0741ZM21.4353 84.984C23.6741 84.984 25.7898 84.7288 27.4504 83.9259C28.3215 83.5047 29.1677 82.8843 29.7918 81.979C30.4323 81.0499 30.7143 80 30.7143 78.948H24.7143C24.7143 78.908 24.7346 78.7436 24.8519 78.5735C24.9527 78.4272 25.0141 78.4393 24.8386 78.5241C24.4062 78.7332 23.3824 78.984 21.4353 78.984V84.984ZM30.7143 78.948C30.7143 77.7593 30.3101 76.648 29.5414 75.7369C28.8193 74.8811 27.887 74.3299 26.9832 73.9617L24.7194 79.5183C25.0576 79.6561 25.0567 79.7259 24.9556 79.6061C24.8984 79.5382 24.83 79.4331 24.7796 79.2949C24.7292 79.1568 24.7143 79.0338 24.7143 78.948H30.7143ZM26.8932 73.9268C25.4041 73.3752 23.1498 72.832 20.2803 72.2767L19.1402 78.1673C21.9747 78.716 23.8144 79.1848 24.8093 79.5532L26.8932 73.9268ZM20.2631 72.2734C16.6867 71.6028 13.7505 70.8349 11.4205 69.9876L9.37004 75.6264C12.1001 76.6191 15.3738 77.4612 19.1574 78.1706L20.2631 72.2734ZM11.3748 69.9714C9.33099 69.2654 7.56947 68.1023 6.06008 66.442L1.62044 70.478C3.79106 72.8657 6.39954 74.6006 9.4157 75.6426L11.3748 69.9714ZM6.03509 66.4148C4.79298 65.0818 4.01126 63.1254 4.01126 60.18H-1.98874C-1.98874 64.2266 -0.884458 67.7902 1.64544 70.5052L6.03509 66.4148ZM4.01126 60.18C4.01126 57.7439 4.68218 55.576 6.03906 53.5957L1.08946 50.2043C-0.957659 53.192 -1.98874 56.5441 -1.98874 60.18H4.01126ZM6.02414 53.6173C7.33721 51.7364 9.39529 50.094 12.414 48.7886L10.0325 43.2814C6.24324 44.92 3.19531 47.1876 1.10439 50.1827L6.02414 53.6173ZM12.3959 48.7963C15.2839 47.5699 18.9544 46.896 23.5053 46.896V40.896C18.3962 40.896 13.8786 41.6481 10.0506 43.2737L12.3959 48.7963Z" fill="#1B1A1A"/>
<path d="M440.579 80.673H437.579V83.673H440.579V80.673ZM454.724 80.673H457.724V77.673H454.724V80.673ZM454.724 93.3V96.3H457.724V93.3H454.724ZM410.15 93.3H407.15V96.3H410.15V93.3ZM410.15 80.673V77.673H407.15V80.673H410.15ZM424.295 80.673V83.673H427.295V80.673H424.295ZM424.295 45V42H421.295V45H424.295ZM440.579 45H443.579V42H440.579V45ZM440.579 83.673H454.724V77.673H440.579V83.673ZM451.724 80.673V93.3H457.724V80.673H451.724ZM454.724 90.3H410.15V96.3H454.724V90.3ZM413.15 93.3V80.673H407.15V93.3H413.15ZM410.15 83.673H424.295V77.673H410.15V83.673ZM427.295 80.673V45L421.295 45V80.673H427.295ZM424.295 48L440.579 48V42L424.295 42V48ZM437.579 45V80.673H443.579V45H437.579ZM395.278 47.139L393.89 49.7982L395.278 47.139ZM405.007 56.109L407.572 54.5521L407.568 54.5452L407.563 54.5384L405.007 56.109ZM405.007 82.122L402.451 80.5514L402.447 80.5582L402.443 80.5651L405.007 82.122ZM367.264 91.161L365.876 93.8202L365.876 93.8202L367.264 91.161ZM357.535 82.122L360.1 80.5651L360.096 80.5582L360.091 80.5514L357.535 82.122ZM357.535 56.109L354.979 54.5384L354.975 54.5452L354.971 54.5521L357.535 56.109ZM367.264 47.139L365.876 44.4798L365.876 44.4798L367.264 47.139ZM375.82 58.524L374.277 55.9515L374.266 55.9578L374.256 55.9642L375.82 58.524ZM371.887 62.733L369.246 61.3107L369.238 61.3246L369.231 61.3385L371.887 62.733ZM371.887 75.498L374.544 74.1035L374.536 74.0896L374.529 74.0757L371.887 75.498ZM375.82 79.707L377.417 77.1671L377.375 77.1407L377.332 77.1157L375.82 79.707ZM386.791 79.707L385.248 77.1345L385.237 77.1408L385.227 77.1472L386.791 79.707ZM390.655 75.498L388.014 74.0757L388.006 74.0896L387.999 74.1035L390.655 75.498ZM390.655 62.733L393.312 61.3385L393.304 61.3246L393.297 61.3107L390.655 62.733ZM386.791 58.524L388.388 55.9841L388.346 55.9577L388.303 55.9327L386.791 58.524ZM381.271 46.896C386.041 46.896 390.225 47.8844 393.89 49.7982L396.667 44.4798C392.052 42.0696 386.897 40.896 381.271 40.896V46.896ZM393.89 49.7982C397.571 51.7205 400.401 54.3432 402.451 57.6796L407.563 54.5384C404.921 50.2388 401.266 46.8815 396.667 44.4798L393.89 49.7982ZM402.443 57.6659C404.484 61.0283 405.526 64.83 405.526 69.15H411.526C411.526 63.81 410.222 58.9177 407.572 54.5521L402.443 57.6659ZM405.526 69.15C405.526 73.4704 404.484 77.2427 402.451 80.5514L407.563 83.6926C410.222 79.3653 411.526 74.4897 411.526 69.15H405.526ZM402.443 80.5651C400.391 83.9453 397.561 86.5843 393.89 88.5018L396.667 93.8202C401.275 91.4137 404.932 88.0268 407.572 83.6789L402.443 80.5651ZM393.89 88.5018C390.225 90.4156 386.041 91.404 381.271 91.404V97.404C386.897 97.404 392.052 96.2304 396.667 93.8202L393.89 88.5018ZM381.271 91.404C376.501 91.404 372.318 90.4156 368.653 88.5018L365.876 93.8202C370.491 96.2304 375.645 97.404 381.271 97.404V91.404ZM368.653 88.5018C364.981 86.5843 362.152 83.9453 360.1 80.5651L354.971 83.6789C357.611 88.0268 361.267 91.4137 365.876 93.8202L368.653 88.5018ZM360.091 80.5514C358.058 77.2427 357.016 73.4703 357.016 69.15H351.016C351.016 74.4897 352.32 79.3653 354.979 83.6926L360.091 80.5514ZM357.016 69.15C357.016 64.83 358.058 61.0283 360.1 57.6659L354.971 54.5521C352.32 58.9177 351.016 63.81 351.016 69.15H357.016ZM360.091 57.6796C362.141 54.3432 364.972 51.7205 368.653 49.7982L365.876 44.4798C361.277 46.8815 357.621 50.2388 354.979 54.5384L360.091 57.6796ZM368.653 49.7982C372.318 47.8844 376.501 46.896 381.271 46.896V40.896C375.645 40.896 370.491 42.0696 365.876 44.4798L368.653 49.7982ZM381.271 54.075C378.748 54.075 376.389 54.684 374.277 55.9515L377.364 61.0965C378.471 60.432 379.747 60.075 381.271 60.075V54.075ZM374.256 55.9642C372.124 57.2673 370.451 59.0731 369.246 61.3107L374.529 64.1553C375.256 62.8049 376.205 61.8047 377.385 61.0838L374.256 55.9642ZM369.231 61.3385C368.003 63.6774 367.438 66.3103 367.438 69.15H373.438C373.438 67.1137 373.839 65.4686 374.544 64.1275L369.231 61.3385ZM367.438 69.15C367.438 71.9873 368.002 74.6109 369.246 76.9203L374.529 74.0757C373.84 72.7971 373.438 71.1887 373.438 69.15H367.438ZM369.231 76.8925C370.436 79.1874 372.126 81.0249 374.309 82.2983L377.332 77.1157C376.203 76.4571 375.271 75.4886 374.544 74.1035L369.231 76.8925ZM374.224 82.2469C376.343 83.5791 378.72 84.225 381.271 84.225V78.225C379.774 78.225 378.517 77.8589 377.417 77.1671L374.224 82.2469ZM381.271 84.225C383.823 84.225 386.208 83.5794 388.356 82.2668L385.227 77.1472C384.063 77.8586 382.768 78.225 381.271 78.225V84.225ZM388.335 82.2795C390.466 81.0007 392.118 79.1662 393.312 76.8925L387.999 74.1035C387.261 75.5098 386.337 76.4813 385.248 77.1345L388.335 82.2795ZM393.297 76.9203C394.54 74.6109 395.104 71.9873 395.104 69.15H389.104C389.104 71.1887 388.702 72.7971 388.014 74.0757L393.297 76.9203ZM395.104 69.15C395.104 66.3103 394.539 63.6774 393.312 61.3385L387.999 64.1275C388.703 65.4686 389.104 67.1137 389.104 69.15H395.104ZM393.297 61.3107C392.103 59.0938 390.468 57.2917 388.388 55.9841L385.195 61.0639C386.334 61.7803 387.276 62.7842 388.014 64.1553L393.297 61.3107ZM388.303 55.9327C386.162 54.6839 383.796 54.075 381.271 54.075V60.075C382.795 60.075 384.108 60.4321 385.28 61.1153L388.303 55.9327ZM342.31 49.899L344.395 47.742L344.395 47.742L342.31 49.899ZM348.52 93.3V96.3H351.52V93.3H348.52ZM332.236 93.3H329.236V96.3H332.236V93.3ZM330.373 59.49L332.748 57.6576L332.732 57.6366L332.716 57.6159L330.373 59.49ZM319.402 59.49L321.745 61.3641L321.761 61.3434L321.777 61.3224L319.402 59.49ZM317.47 93.3V96.3H320.47V93.3H317.47ZM301.462 93.3H298.462V96.3H301.462V93.3ZM307.672 49.899L309.757 52.056L309.757 52.056L307.672 49.899ZM324.991 46.896C331.851 46.896 336.791 48.7368 340.225 52.056L344.395 47.742C339.549 43.0572 332.943 40.896 324.991 40.896V46.896ZM340.225 52.056C343.639 55.3565 345.52 60.107 345.52 66.735H351.52C351.52 58.919 349.261 52.4455 344.395 47.742L340.225 52.056ZM345.52 66.735V93.3H351.52V66.735H345.52ZM348.52 90.3H332.236V96.3H348.52V90.3ZM335.236 93.3V67.218H329.236V93.3H335.236ZM335.236 67.218C335.236 63.4535 334.6 60.0584 332.748 57.6576L327.998 61.3224C328.63 62.1416 329.236 63.8985 329.236 67.218H335.236ZM332.716 57.6159C330.763 55.1754 327.993 54.075 324.853 54.075V60.075C326.498 60.075 327.407 60.5846 328.03 61.3641L332.716 57.6159ZM324.853 54.075C321.716 54.075 318.941 55.1765 317.027 57.6576L321.777 61.3224C322.347 60.5835 323.206 60.075 324.853 60.075V54.075ZM317.059 57.6159C315.134 60.023 314.47 63.4374 314.47 67.218H320.47C320.47 63.9146 321.094 62.177 321.745 61.3641L317.059 57.6159ZM314.47 67.218V93.3H320.47V67.218H314.47ZM317.47 90.3H301.462V96.3H317.47V90.3ZM304.462 93.3V66.735H298.462V93.3H304.462ZM304.462 66.735C304.462 60.107 306.343 55.3565 309.757 52.056L305.587 47.742C300.721 52.4455 298.462 58.919 298.462 66.735H304.462ZM309.757 52.056C313.191 48.7368 318.131 46.896 324.991 46.896V40.896C317.039 40.896 310.433 43.0572 305.587 47.742L309.757 52.056ZM273.298 57.144L270.812 58.8244L271.705 60.144H273.298V57.144ZM277.714 57.144V60.144H280.714V57.144H277.714ZM277.714 45V42H274.714V45H277.714ZM293.998 45H296.998V42H293.998V45ZM293.998 93.3V96.3H296.998V93.3H293.998ZM259.084 91.092L260.302 88.3506L260.302 88.3506L259.084 91.092ZM251.425 84.744L253.94 83.109L253.94 83.109L251.425 84.744ZM251.08 66.045L253.644 67.6019L253.644 67.6019L251.08 66.045ZM257.842 59.904L259.217 62.5704L262.228 61.0175L260.322 58.2161L257.842 59.904ZM247.699 45V42H242.028L245.219 46.6879L247.699 45ZM265.087 45L267.572 43.3196L266.68 42H265.087V45ZM266.812 79.224L268.839 77.0125L268.813 76.9891L268.787 76.9663L266.812 79.224ZM277.714 80.742V83.742H280.714V80.742H277.714ZM277.714 69.426H280.714V66.426H277.714V69.426ZM266.812 70.875L264.836 68.6173L264.81 68.6401L264.784 68.6635L266.812 70.875ZM273.298 60.144H277.714V54.144H273.298V60.144ZM280.714 57.144V45H274.714V57.144H280.714ZM277.714 48H293.998V42H277.714V48ZM290.998 45V93.3H296.998V45H290.998ZM293.998 90.3L270.745 90.3V96.3L293.998 96.3V90.3ZM270.745 90.3C266.608 90.3 263.153 89.6175 260.302 88.3506L257.865 93.8334C261.639 95.5105 265.957 96.3 270.745 96.3V90.3ZM260.302 88.3506C257.465 87.0895 255.386 85.3339 253.94 83.109L248.909 86.379C251.051 89.6741 254.079 92.1505 257.865 93.8334L260.302 88.3506ZM253.94 83.109C252.499 80.8918 251.734 78.2544 251.734 75.084H245.734C245.734 79.2736 246.763 83.0762 248.909 86.379L253.94 83.109ZM251.734 75.084C251.734 72.102 252.404 69.6438 253.644 67.6019L248.515 64.4881C246.627 67.5982 245.734 71.166 245.734 75.084H251.734ZM253.644 67.6019C254.893 65.5444 256.713 63.8611 259.217 62.5704L256.467 57.2376C253.082 58.9829 250.394 61.3936 248.515 64.4881L253.644 67.6019ZM260.322 58.2161L250.179 43.3121L245.219 46.6879L255.362 61.5919L260.322 58.2161ZM247.699 48L265.087 48V42L247.699 42V48ZM262.601 46.6804L270.812 58.8244L275.783 55.4636L267.572 43.3196L262.601 46.6804ZM262.156 75.084C262.156 77.5334 262.938 79.8212 264.836 81.4817L268.787 76.9663C268.477 76.6948 268.156 76.2226 268.156 75.084H262.156ZM264.784 81.4355C266.655 83.1497 269.171 83.742 271.78 83.742V77.742C269.973 77.742 269.177 77.3223 268.839 77.0125L264.784 81.4355ZM271.78 83.742H277.714V77.742H271.78V83.742ZM280.714 80.742V69.426H274.714V80.742H280.714ZM277.714 66.426H271.78V72.426H277.714V66.426ZM271.78 66.426C269.2 66.426 266.706 66.9816 264.836 68.6173L268.787 73.1327C269.126 72.8364 269.943 72.426 271.78 72.426V66.426ZM264.784 68.6635C262.939 70.3554 262.156 72.6298 262.156 75.084H268.156C268.156 73.9502 268.476 73.4186 268.839 73.0865L264.784 68.6635ZM242.585 93.3V96.3H245.585V93.3H242.585ZM204.566 90.333L205.871 87.6318L205.853 87.623L205.834 87.6145L204.566 90.333ZM194.975 81.984L197.524 80.4027L197.517 80.3911L197.51 80.3796L194.975 81.984ZM194.975 56.316L197.51 57.9204L197.517 57.9089L197.524 57.8973L194.975 56.316ZM204.566 47.898L203.285 45.1849L203.279 45.188L203.272 45.1911L204.566 47.898ZM242.585 45H245.585V42H242.585V45ZM211.121 60.663L209.048 58.494L209.047 58.4951L211.121 60.663ZM211.121 77.568L213.218 75.423L213.194 75.3994L213.169 75.3764L211.121 77.568ZM226.301 80.604V83.604H229.301V80.604H226.301ZM226.301 57.696H229.301V54.696H226.301V57.696ZM242.585 90.3H218.78V96.3H242.585V90.3ZM218.78 90.3C213.767 90.3 209.49 89.3802 205.871 87.6318L203.26 93.0342C207.83 95.2418 213.028 96.3 218.78 96.3V90.3ZM205.834 87.6145C202.185 85.9114 199.449 83.5069 197.524 80.4027L192.425 83.5653C195.008 87.7291 198.666 90.8906 203.297 93.0515L205.834 87.6145ZM197.51 80.3796C195.555 77.292 194.525 73.588 194.525 69.15H188.525C188.525 74.556 189.794 79.408 192.44 83.5884L197.51 80.3796ZM194.525 69.15C194.525 64.712 195.555 61.008 197.51 57.9204L192.44 54.7116C189.794 58.892 188.525 63.744 188.525 69.15H194.525ZM197.524 57.8973C199.453 54.7868 202.197 52.3544 205.859 50.6049L203.272 45.1911C198.654 47.3976 195.004 50.5772 192.425 54.7347L197.524 57.8973ZM205.846 50.6111C209.471 48.9004 213.758 48 218.78 48V42C213.038 42 207.848 43.0316 203.285 45.1849L205.846 50.6111ZM218.78 48H242.585V42H218.78V48ZM239.585 45V93.3H245.585V45H239.585ZM219.47 54.696C215.382 54.696 211.794 55.8698 209.048 58.494L213.193 62.832C214.587 61.5002 216.565 60.696 219.47 60.696V54.696ZM209.047 58.4951C206.203 61.2157 204.947 64.9077 204.947 69.15H210.947C210.947 66.1243 211.806 64.1583 213.194 62.8309L209.047 58.4951ZM204.947 69.15C204.947 73.3892 206.202 77.0767 209.072 79.7596L213.169 75.3764C211.807 74.1033 210.947 72.1788 210.947 69.15H204.947ZM209.023 79.713C211.767 82.3953 215.363 83.604 219.47 83.604V77.604C216.584 77.604 214.615 76.7887 213.218 75.423L209.023 79.713ZM219.47 83.604H226.301V77.604H219.47V83.604ZM229.301 80.604V57.696H223.301V80.604H229.301ZM226.301 54.696H219.47V60.696H226.301V54.696ZM153.34 53.418L150.54 54.4965L151.28 56.418H153.34V53.418ZM171.694 53.418V56.418H173.753L174.493 54.4965L171.694 53.418ZM174.937 45V42H172.877L172.137 43.9215L174.937 45ZM191.497 45L194.245 46.2016L196.082 42L191.497 42V45ZM170.383 93.3V96.3H172.345L173.131 94.5016L170.383 93.3ZM154.375 93.3L151.626 94.5016L152.412 96.3H154.375V93.3ZM133.261 45V42H128.675L130.512 46.2016L133.261 45ZM150.097 45L152.896 43.9215L152.156 42H150.097V45ZM157.825 65.148V62.148H153.449L155.026 66.2292L157.825 65.148ZM162.517 77.292L159.718 78.3732L162.517 85.6161L165.315 78.3732L162.517 77.292ZM167.209 65.148L170.007 66.2292L171.584 62.148H167.209V65.148ZM153.34 56.418H171.694V50.418H153.34V56.418ZM174.493 54.4965L177.736 46.0785L172.137 43.9215L168.894 52.3395L174.493 54.4965ZM174.937 48H191.497V42H174.937V48ZM188.748 43.7984L167.634 92.0984L173.131 94.5016L194.245 46.2016L188.748 43.7984ZM170.383 90.3L154.375 90.3V96.3L170.383 96.3V90.3ZM157.123 92.0984L136.009 43.7984L130.512 46.2016L151.626 94.5016L157.123 92.0984ZM133.261 48L150.097 48V42L133.261 42V48ZM147.297 46.0785L150.54 54.4965L156.139 52.3395L152.896 43.9215L147.297 46.0785ZM155.026 66.2292L159.718 78.3732L165.315 76.2108L160.623 64.0668L155.026 66.2292ZM165.315 78.3732L170.007 66.2292L164.41 64.0668L159.718 76.2108L165.315 78.3732ZM167.209 62.148H157.825V68.148H167.209V62.148ZM122.6 80.673H119.6V83.673H122.6V80.673ZM136.745 80.673H139.745V77.673H136.745V80.673ZM136.745 93.3V96.3H139.745V93.3H136.745ZM92.1705 93.3H89.1705V96.3H92.1705V93.3ZM92.1705 80.673V77.673H89.1705V80.673H92.1705ZM106.316 80.673V83.673H109.316V80.673H106.316ZM106.316 45V42H103.316V45H106.316ZM122.6 45H125.6V42H122.6V45ZM122.6 83.673H136.745V77.673H122.6V83.673ZM133.745 80.673V93.3H139.745V80.673H133.745ZM136.745 90.3H92.1705V96.3H136.745V90.3ZM95.1705 93.3V80.673H89.1705V93.3H95.1705ZM92.1705 83.673H106.316V77.673H92.1705V83.673ZM109.316 80.673V45H103.316V80.673H109.316ZM106.316 48H122.6V42H106.316V48ZM119.6 45V80.673H125.6V45H119.6ZM47.783 57.282H44.783V60.282H47.783V57.282ZM47.783 45V42H44.783V45H47.783ZM87.941 45H90.941V42H87.941V45ZM87.941 93.3V96.3H90.941V93.3H87.941ZM48.68 93.3H45.68V96.3H48.68V93.3ZM48.68 81.018V78.018H45.68V81.018H48.68ZM71.933 81.018V84.018H74.933V81.018H71.933ZM71.933 75.36H74.933V72.36H71.933V75.36ZM51.509 75.36H48.509V78.36H51.509V75.36ZM51.509 63.63V60.63H48.509V63.63H51.509ZM71.933 63.63V66.63H74.933V63.63H71.933ZM71.933 57.282H74.933V54.282H71.933V57.282ZM50.783 57.282V45H44.783V57.282H50.783ZM47.783 48L87.941 48V42L47.783 42V48ZM84.941 45V93.3H90.941V45H84.941ZM87.941 90.3L48.68 90.3V96.3L87.941 96.3V90.3ZM51.68 93.3V81.018H45.68V93.3L51.68 93.3ZM48.68 84.018L71.933 84.018V78.018L48.68 78.018V84.018ZM74.933 81.018V75.36H68.933V81.018H74.933ZM71.933 72.36L51.509 72.36V78.36L71.933 78.36V72.36ZM54.509 75.36V63.63H48.509V75.36H54.509ZM51.509 66.63L71.933 66.63V60.63H51.509V66.63ZM74.933 63.63V57.282H68.933V63.63H74.933ZM71.933 54.282H47.783V60.282H71.933V54.282ZM35.2353 45.207L35.9461 42.2924L35.9255 42.2874L35.9047 42.2826L35.2353 45.207ZM44.5503 48.864L47.2943 50.0765L48.347 47.694L46.1359 46.3173L44.5503 48.864ZM39.3063 60.732L37.8011 63.3271L40.6972 65.0068L42.0503 61.9445L39.3063 60.732ZM31.5783 57.489L32.4147 54.608L32.3932 54.6017L32.3716 54.5958L31.5783 57.489ZM18.5373 56.937L17.3555 54.1796L17.301 54.2029L17.2475 54.2284L18.5373 56.937ZM19.0203 61.215L20.1522 58.4367L20.1347 58.4296L20.1172 58.4227L19.0203 61.215ZM25.2303 62.871L25.8465 59.935L25.8365 59.9329L25.2303 62.871ZM34.5453 65.355L35.5872 62.5418L35.5642 62.5332L35.541 62.5251L34.5453 65.355ZM41.0313 69.771L43.2735 67.7779L43.2624 67.7654L43.2511 67.753L41.0313 69.771ZM41.2383 86.4L38.7635 84.7043L38.7635 84.7043L41.2383 86.4ZM33.6483 92.265L34.8074 95.032L34.8142 95.0292L34.8209 95.0263L33.6483 92.265ZM11.5683 93.3L12.2459 90.3775L12.2214 90.3719L12.1969 90.3666L11.5683 93.3ZM3.08126 90.195L0.310597 89.0446L-0.707846 91.4975L1.60347 92.8058L3.08126 90.195ZM7.98026 78.396L9.33229 75.7179L6.4484 74.262L5.2096 77.2456L7.98026 78.396ZM25.8513 76.74L26.9832 73.9617L26.9385 73.9435L26.8932 73.9268L25.8513 76.74ZM19.7103 75.222L20.2803 72.2767L20.2717 72.275L20.2631 72.2734L19.7103 75.222ZM10.3953 72.807L11.4205 69.9876L11.3977 69.9793L11.3748 69.9714L10.3953 72.807ZM3.84026 68.46L6.06008 66.442L6.04767 66.4283L6.03509 66.4148L3.84026 68.46ZM3.56426 51.9L1.10439 50.1827L1.09688 50.1935L1.08946 50.2043L3.56426 51.9ZM11.2233 46.035L10.0506 43.2737L10.0416 43.2775L10.0325 43.2814L11.2233 46.035ZM23.5053 46.896C27.2869 46.896 30.9722 47.3087 34.5658 48.1314L35.9047 42.2826C31.8624 41.3573 27.7276 40.896 23.5053 40.896V46.896ZM34.5244 48.1216C38.0885 48.9908 40.8731 50.1084 42.9646 51.4107L46.1359 46.3173C43.3515 44.5836 39.9261 43.2632 35.9461 42.2924L34.5244 48.1216ZM41.8062 47.6515L36.5622 59.5195L42.0503 61.9445L47.2943 50.0765L41.8062 47.6515ZM40.8114 58.1369C38.2781 56.6676 35.4736 55.496 32.4147 54.608L30.7418 60.37C33.387 61.138 35.7345 62.1284 37.8011 63.3271L40.8114 58.1369ZM32.3716 54.5958C29.2935 53.7518 26.2889 53.316 23.3673 53.316V59.316C25.6896 59.316 28.159 59.6622 30.785 60.3822L32.3716 54.5958ZM23.3673 53.316C21.0665 53.316 18.9238 53.5075 17.3555 54.1796L19.719 59.6944C20.0828 59.5385 21.16 59.316 23.3673 59.316V53.316ZM17.2475 54.2284C16.4427 54.6116 15.6319 55.1787 15.0207 56.0227C14.3851 56.9004 14.0883 57.9102 14.0883 58.938L20.0883 58.938C20.0883 58.9988 20.0793 59.0979 20.0415 59.2186C20.0031 59.341 19.9456 59.4516 19.8803 59.5418C19.7521 59.7188 19.6658 59.7224 19.8271 59.6456L17.2475 54.2284ZM14.0883 58.938C14.0883 60.142 14.4934 61.2757 15.2837 62.2072C16.0268 63.0829 16.9886 63.6401 17.9233 64.0073L20.1172 58.4227C19.7639 58.2839 19.7597 58.2086 19.8588 58.3253C19.9149 58.3914 19.9806 58.4928 20.0284 58.6243C20.076 58.7551 20.0883 58.8673 20.0883 58.938L14.0883 58.938ZM17.8884 63.9933C19.4048 64.6111 21.7079 65.2074 24.624 65.8091L25.8365 59.9329C22.9567 59.3386 21.1198 58.8309 20.1522 58.4367L17.8884 63.9933ZM24.6141 65.807C28.2627 66.5728 31.2308 67.3691 33.5495 68.1849L35.541 62.5251C32.8917 61.5929 29.6498 60.7332 25.8465 59.935L24.6141 65.807ZM33.5033 68.1682C35.5217 68.9158 37.2838 70.1086 38.8114 71.789L43.2511 67.753C41.0988 65.3854 38.5369 63.6342 35.5872 62.5418L33.5033 68.1682ZM38.789 71.7641C40.023 73.1522 40.7913 75.1594 40.7913 78.12H46.7913C46.7913 74.0886 45.7196 70.5298 43.2735 67.7779L38.789 71.7641ZM40.7913 78.12C40.7913 80.5561 40.1203 82.724 38.7635 84.7043L43.7131 88.0957C45.7602 85.108 46.7913 81.7559 46.7913 78.12H40.7913ZM38.7635 84.7043C37.4476 86.6247 35.4191 88.2537 32.4756 89.5037L34.8209 95.0263C38.5934 93.4243 41.6249 91.1433 43.7131 88.0957L38.7635 84.7043ZM32.4891 89.498C29.5466 90.7307 25.8462 91.404 21.2973 91.404V97.404C26.4083 97.404 30.942 96.6513 34.8074 95.032L32.4891 89.498ZM21.2973 91.404C18.2096 91.404 15.1941 91.0612 12.2459 90.3775L10.8906 96.2225C14.2905 97.0108 17.7609 97.404 21.2973 97.404V91.404ZM12.1969 90.3666C9.2238 89.7295 6.69025 88.7906 4.55906 87.5842L1.60347 92.8058C4.34827 94.3594 7.47273 95.4905 10.9397 96.2334L12.1969 90.3666ZM5.85193 91.3454L10.7509 79.5464L5.2096 77.2456L0.310597 89.0446L5.85193 91.3454ZM6.62823 81.0741C11.6814 83.6252 16.6295 84.984 21.4353 84.984V78.984C17.7771 78.984 13.7551 77.9508 9.33229 75.7179L6.62823 81.0741ZM21.4353 84.984C23.6741 84.984 25.7898 84.7288 27.4504 83.9259C28.3215 83.5047 29.1677 82.8843 29.7918 81.979C30.4323 81.0499 30.7143 80 30.7143 78.948H24.7143C24.7143 78.908 24.7346 78.7436 24.8519 78.5735C24.9527 78.4272 25.0141 78.4393 24.8386 78.5241C24.4062 78.7332 23.3824 78.984 21.4353 78.984V84.984ZM30.7143 78.948C30.7143 77.7593 30.3101 76.648 29.5414 75.7369C28.8193 74.8811 27.887 74.3299 26.9832 73.9617L24.7194 79.5183C25.0576 79.6561 25.0567 79.7259 24.9556 79.6061C24.8984 79.5382 24.83 79.4331 24.7796 79.2949C24.7292 79.1568 24.7143 79.0338 24.7143 78.948H30.7143ZM26.8932 73.9268C25.4041 73.3752 23.1498 72.832 20.2803 72.2767L19.1402 78.1673C21.9747 78.716 23.8144 79.1848 24.8093 79.5532L26.8932 73.9268ZM20.2631 72.2734C16.6867 71.6028 13.7505 70.8349 11.4205 69.9876L9.37004 75.6264C12.1001 76.6191 15.3738 77.4612 19.1574 78.1706L20.2631 72.2734ZM11.3748 69.9714C9.33099 69.2654 7.56947 68.1023 6.06008 66.442L1.62044 70.478C3.79106 72.8657 6.39954 74.6006 9.4157 75.6426L11.3748 69.9714ZM6.03509 66.4148C4.79298 65.0818 4.01126 63.1254 4.01126 60.18H-1.98874C-1.98874 64.2266 -0.884458 67.7902 1.64544 70.5052L6.03509 66.4148ZM4.01126 60.18C4.01126 57.7439 4.68218 55.576 6.03906 53.5957L1.08946 50.2043C-0.957659 53.192 -1.98874 56.5441 -1.98874 60.18H4.01126ZM6.02414 53.6173C7.33721 51.7364 9.39529 50.094 12.414 48.7886L10.0325 43.2814C6.24324 44.92 3.19531 47.1876 1.10439 50.1827L6.02414 53.6173ZM12.3959 48.7963C15.2839 47.5699 18.9544 46.896 23.5053 46.896V40.896C18.3962 40.896 13.8786 41.6481 10.0506 43.2737L12.3959 48.7963Z" fill="black" fill-opacity="0.2"/>
</g>
<path d="M11.495 16.565H0.22V6.5H35.75V16.565H24.475V45H11.495V16.565ZM58.7692 45.88C54.6259 45.88 50.9042 45.0183 47.6042 43.295C44.3042 41.5717 41.7192 39.1883 39.8492 36.145C37.9792 33.065 37.0442 29.6 37.0442 25.75C37.0442 21.9 37.9792 18.4533 39.8492 15.41C41.7192 12.33 44.3042 9.92833 47.6042 8.205C50.9042 6.48167 54.6259 5.62 58.7692 5.62C62.9126 5.62 66.6342 6.48167 69.9342 8.205C73.2342 9.92833 75.8192 12.33 77.6892 15.41C79.5592 18.4533 80.4942 21.9 80.4942 25.75C80.4942 29.6 79.5592 33.065 77.6892 36.145C75.8192 39.1883 73.2342 41.5717 69.9342 43.295C66.6342 45.0183 62.9126 45.88 58.7692 45.88ZM58.7692 35.375C60.3826 35.375 61.8309 34.99 63.1142 34.22C64.4342 33.4133 65.4792 32.295 66.2492 30.865C67.0192 29.3983 67.4042 27.6933 67.4042 25.75C67.4042 23.8067 67.0192 22.12 66.2492 20.69C65.4792 19.2233 64.4342 18.105 63.1142 17.335C61.8309 16.5283 60.3826 16.125 58.7692 16.125C57.1559 16.125 55.6892 16.5283 54.3692 17.335C53.0859 18.105 52.0592 19.2233 51.2892 20.69C50.5192 22.12 50.1342 23.8067 50.1342 25.75C50.1342 27.6933 50.5192 29.3983 51.2892 30.865C52.0592 32.295 53.0859 33.4133 54.3692 34.22C55.6892 34.99 57.1559 35.375 58.7692 35.375ZM103.63 45.88C97.727 45.88 93.1253 44.285 89.8253 41.095C86.5253 37.905 84.8753 33.4317 84.8753 27.675V6.5H97.8553V27.29C97.8553 30.1133 98.3503 32.1667 99.3403 33.45C100.367 34.7333 101.834 35.375 103.74 35.375C105.647 35.375 107.095 34.7333 108.085 33.45C109.112 32.1667 109.625 30.1133 109.625 27.29V6.5H122.385V27.675C122.385 33.4317 120.735 37.905 117.435 41.095C114.135 44.285 109.534 45.88 103.63 45.88ZM144.835 35.32H141.315V45H128.335V6.5H146.87C150.427 6.5 153.525 7.08666 156.165 8.26C158.805 9.43333 160.84 11.12 162.27 13.32C163.7 15.52 164.415 18.0867 164.415 21.02C164.415 23.77 163.792 26.1717 162.545 28.225C161.299 30.2783 159.502 31.91 157.155 33.12L165.24 45H151.38L144.835 35.32ZM151.325 21.02C151.325 19.59 150.885 18.49 150.005 17.72C149.125 16.9133 147.805 16.51 146.045 16.51H141.315V25.53H146.045C147.805 25.53 149.125 25.145 150.005 24.375C150.885 23.5683 151.325 22.45 151.325 21.02ZM185.806 6.5H204.781C209.071 6.5 212.848 7.28833 216.111 8.865C219.411 10.405 221.959 12.6233 223.756 15.52C225.589 18.4167 226.506 21.8267 226.506 25.75C226.506 29.6733 225.589 33.0833 223.756 35.98C221.959 38.8767 219.411 41.1133 216.111 42.69C212.848 44.23 209.071 45 204.781 45H185.806V6.5ZM204.231 34.88C207.018 34.88 209.236 34.0917 210.886 32.515C212.573 30.9017 213.416 28.6467 213.416 25.75C213.416 22.8533 212.573 20.6167 210.886 19.04C209.236 17.4267 207.018 16.62 204.231 16.62H198.786V34.88H204.231ZM256.943 38.29H242.313L239.728 45H226.528L243.358 6.5H256.118L272.948 45H259.528L256.943 38.29ZM253.368 28.94L249.628 19.26L245.888 28.94H253.368ZM281.446 16.565H270.171V6.5H305.701V16.565H294.426V45H281.446V16.565ZM341.083 35.21V45H309.073V6.5H340.368V16.29H321.833V20.8H338.113V30.15H321.833V35.21H341.083ZM360.434 45.88C357.244 45.88 354.128 45.5317 351.084 44.835C348.078 44.1017 345.603 43.13 343.659 41.92L347.839 32.46C349.673 33.5233 351.726 34.385 353.999 35.045C356.273 35.6683 358.454 35.98 360.544 35.98C362.341 35.98 363.624 35.815 364.394 35.485C365.164 35.1183 365.549 34.5867 365.549 33.89C365.549 33.0833 365.036 32.4783 364.009 32.075C363.019 31.6717 361.369 31.2317 359.059 30.755C356.089 30.1317 353.614 29.4717 351.634 28.775C349.654 28.0417 347.931 26.8683 346.464 25.255C344.998 23.605 344.264 21.3867 344.264 18.6C344.264 16.18 344.943 13.98 346.299 12C347.656 10.02 349.673 8.46166 352.349 7.325C355.063 6.18833 358.344 5.62 362.194 5.62C364.834 5.62 367.419 5.91333 369.949 6.5C372.516 7.05 374.771 7.875 376.714 8.975L372.809 18.38C369.033 16.4733 365.458 15.52 362.084 15.52C358.748 15.52 357.079 16.3267 357.079 17.94C357.079 18.71 357.574 19.2967 358.564 19.7C359.554 20.0667 361.186 20.47 363.459 20.91C366.393 21.46 368.868 22.1017 370.884 22.835C372.901 23.5317 374.643 24.6867 376.109 26.3C377.613 27.9133 378.364 30.1133 378.364 32.9C378.364 35.32 377.686 37.52 376.329 39.5C374.973 41.4433 372.938 43.0017 370.224 44.175C367.548 45.3117 364.284 45.88 360.434 45.88Z" fill="#1B1A1A"/>
</svg>
